G04 EAGLE Gerber RS-274X export*
G75*
%MOMM*%
%FSLAX34Y34*%
%LPD*%
%INSilkscreen Top*%
%IPPOS*%
%AMOC8*
5,1,8,0,0,1.08239X$1,22.5*%
G01*
%ADD10C,0.101600*%
%ADD11C,0.127000*%
%ADD12R,0.381000X2.540000*%
%ADD13C,0.152400*%
%ADD14C,0.400000*%
%ADD15C,0.254000*%
%ADD16C,0.200000*%
%ADD17C,0.203200*%
%ADD18C,0.635000*%


D10*
X104648Y66041D02*
X104648Y72143D01*
X106173Y73668D01*
X109224Y73668D01*
X110749Y72143D01*
X110749Y66041D01*
X109224Y64516D01*
X106173Y64516D01*
X104648Y66041D01*
X107699Y67567D02*
X110749Y64516D01*
X114003Y66041D02*
X114003Y70617D01*
X114003Y66041D02*
X115528Y64516D01*
X117054Y66041D01*
X118579Y64516D01*
X120104Y66041D01*
X120104Y70617D01*
X123358Y70617D02*
X124884Y70617D01*
X124884Y64516D01*
X126409Y64516D02*
X123358Y64516D01*
X124884Y73668D02*
X124884Y75193D01*
X129595Y70617D02*
X131120Y70617D01*
X131120Y64516D01*
X129595Y64516D02*
X132646Y64516D01*
X131120Y73668D02*
X131120Y75193D01*
X137357Y70617D02*
X141933Y70617D01*
X137357Y70617D02*
X135832Y69092D01*
X135832Y66041D01*
X137357Y64516D01*
X141933Y64516D01*
X224790Y66041D02*
X224790Y72143D01*
X226315Y73668D01*
X229366Y73668D01*
X230891Y72143D01*
X230891Y66041D01*
X229366Y64516D01*
X226315Y64516D01*
X224790Y66041D01*
X227841Y67567D02*
X230891Y64516D01*
X234145Y66041D02*
X234145Y70617D01*
X234145Y66041D02*
X235670Y64516D01*
X237196Y66041D01*
X238721Y64516D01*
X240246Y66041D01*
X240246Y70617D01*
X243500Y70617D02*
X245026Y70617D01*
X245026Y64516D01*
X246551Y64516D02*
X243500Y64516D01*
X245026Y73668D02*
X245026Y75193D01*
X249737Y70617D02*
X251262Y70617D01*
X251262Y64516D01*
X249737Y64516D02*
X252788Y64516D01*
X251262Y73668D02*
X251262Y75193D01*
X257499Y70617D02*
X262075Y70617D01*
X257499Y70617D02*
X255974Y69092D01*
X255974Y66041D01*
X257499Y64516D01*
X262075Y64516D01*
X311404Y117856D02*
X314455Y117856D01*
X312929Y117856D02*
X312929Y127008D01*
X311404Y127008D02*
X314455Y127008D01*
X322217Y127008D02*
X323742Y125483D01*
X322217Y127008D02*
X319166Y127008D01*
X317641Y125483D01*
X317641Y123957D01*
X319166Y122432D01*
X322217Y122432D01*
X323742Y120907D01*
X323742Y119381D01*
X322217Y117856D01*
X319166Y117856D01*
X317641Y119381D01*
X326996Y117856D02*
X326996Y127008D01*
X331572Y127008D01*
X333097Y125483D01*
X333097Y122432D01*
X331572Y120907D01*
X326996Y120907D01*
X31751Y121158D02*
X30226Y119633D01*
X30226Y118107D01*
X31751Y116582D01*
X39378Y116582D01*
X39378Y118107D02*
X39378Y115057D01*
X39378Y111803D02*
X30226Y111803D01*
X39378Y111803D02*
X39378Y107227D01*
X37853Y105702D01*
X34802Y105702D01*
X33277Y107227D01*
X33277Y111803D01*
X36327Y102448D02*
X39378Y99397D01*
X30226Y99397D01*
X30226Y102448D02*
X30226Y96346D01*
X289806Y287020D02*
X298958Y287020D01*
X298958Y293121D01*
X338828Y277876D02*
X347980Y277876D01*
X338828Y277876D02*
X338828Y282452D01*
X340354Y283977D01*
X343404Y283977D01*
X344929Y282452D01*
X344929Y277876D01*
X347980Y287231D02*
X338828Y287231D01*
X344929Y290282D02*
X347980Y287231D01*
X344929Y290282D02*
X347980Y293332D01*
X338828Y293332D01*
X338828Y296586D02*
X347980Y296586D01*
X338828Y296586D02*
X338828Y301162D01*
X340354Y302688D01*
X343404Y302688D01*
X344929Y301162D01*
X344929Y296586D01*
X344929Y299637D02*
X347980Y302688D01*
D11*
X350012Y173736D02*
X350012Y145796D01*
X337312Y145796D01*
X337312Y173736D01*
X350012Y173736D01*
X252222Y330962D02*
X224282Y330962D01*
X224282Y343662D01*
X252222Y343662D01*
X252222Y330962D01*
X139192Y339090D02*
X139192Y311150D01*
X126492Y311150D01*
X126492Y339090D01*
X139192Y339090D01*
X140462Y228346D02*
X168402Y228346D01*
X140462Y228346D02*
X140462Y241046D01*
X168402Y241046D01*
X168402Y228346D01*
X131572Y157226D02*
X131572Y129286D01*
X118872Y129286D01*
X118872Y157226D01*
X131572Y157226D01*
X140462Y213614D02*
X168402Y213614D01*
X140462Y213614D02*
X140462Y226314D01*
X168402Y226314D01*
X168402Y213614D01*
X326454Y282068D02*
X326454Y298068D01*
X334454Y298068D01*
X334454Y282068D01*
X326454Y282068D01*
X326644Y288798D02*
X334264Y288798D01*
X332359Y290068D01*
X330454Y291338D01*
X328549Y290068D01*
X326644Y288798D01*
X327914Y289433D02*
X332994Y289433D01*
X332359Y290068D02*
X328549Y290068D01*
X165766Y332804D02*
X165766Y340804D01*
X153766Y340804D02*
X153766Y332804D01*
X153766Y340804D02*
X165766Y340804D01*
X165766Y332804D02*
X153766Y332804D01*
X157766Y334804D02*
X157766Y338804D01*
X157766Y334804D02*
X161766Y336804D01*
X157766Y338804D01*
X161766Y338804D02*
X161766Y336804D01*
X161766Y334804D01*
X147672Y209850D02*
X191672Y209850D01*
X191672Y183850D01*
X147672Y183850D01*
X147672Y209850D01*
D12*
X155067Y196850D03*
D11*
X150812Y327310D02*
X142812Y327310D01*
X142812Y315310D02*
X150812Y315310D01*
X142812Y315310D02*
X142812Y327310D01*
X150812Y327310D02*
X150812Y315310D01*
X148812Y319310D02*
X144812Y319310D01*
X148812Y319310D02*
X146812Y323310D01*
X144812Y319310D01*
X144812Y323310D02*
X146812Y323310D01*
X148812Y323310D01*
D13*
X282702Y69342D02*
X289052Y62992D01*
X301752Y62992D02*
X308102Y69342D01*
X314452Y62992D01*
X327152Y62992D02*
X333502Y69342D01*
X282702Y69342D02*
X282702Y107442D01*
X289052Y113792D01*
X301752Y113792D01*
X308102Y107442D01*
X314452Y113792D01*
X327152Y113792D01*
X333502Y107442D01*
X308102Y107442D02*
X308102Y69342D01*
X333502Y69342D02*
X333502Y107442D01*
X327152Y62992D02*
X314452Y62992D01*
X301752Y62992D02*
X289052Y62992D01*
X333502Y69342D02*
X339852Y62992D01*
X352552Y62992D02*
X358902Y69342D01*
X333502Y107442D02*
X339852Y113792D01*
X352552Y113792D01*
X358902Y107442D01*
X358902Y69342D01*
X352552Y62992D02*
X339852Y62992D01*
D14*
X95986Y55324D02*
X95988Y55399D01*
X95994Y55473D01*
X96004Y55547D01*
X96017Y55620D01*
X96035Y55693D01*
X96056Y55764D01*
X96081Y55835D01*
X96110Y55904D01*
X96143Y55971D01*
X96179Y56036D01*
X96218Y56100D01*
X96260Y56161D01*
X96306Y56220D01*
X96355Y56277D01*
X96407Y56330D01*
X96461Y56381D01*
X96518Y56430D01*
X96578Y56474D01*
X96640Y56516D01*
X96704Y56555D01*
X96770Y56590D01*
X96837Y56621D01*
X96907Y56649D01*
X96977Y56673D01*
X97049Y56694D01*
X97122Y56710D01*
X97195Y56723D01*
X97270Y56732D01*
X97344Y56737D01*
X97419Y56738D01*
X97493Y56735D01*
X97568Y56728D01*
X97641Y56717D01*
X97715Y56703D01*
X97787Y56684D01*
X97858Y56662D01*
X97928Y56636D01*
X97997Y56606D01*
X98063Y56573D01*
X98128Y56536D01*
X98191Y56496D01*
X98252Y56452D01*
X98310Y56406D01*
X98366Y56356D01*
X98419Y56304D01*
X98470Y56249D01*
X98517Y56191D01*
X98561Y56131D01*
X98602Y56068D01*
X98640Y56004D01*
X98674Y55938D01*
X98705Y55869D01*
X98732Y55800D01*
X98755Y55729D01*
X98774Y55657D01*
X98790Y55584D01*
X98802Y55510D01*
X98810Y55436D01*
X98814Y55361D01*
X98814Y55287D01*
X98810Y55212D01*
X98802Y55138D01*
X98790Y55064D01*
X98774Y54991D01*
X98755Y54919D01*
X98732Y54848D01*
X98705Y54779D01*
X98674Y54710D01*
X98640Y54644D01*
X98602Y54580D01*
X98561Y54517D01*
X98517Y54457D01*
X98470Y54399D01*
X98419Y54344D01*
X98366Y54292D01*
X98310Y54242D01*
X98252Y54196D01*
X98191Y54152D01*
X98128Y54112D01*
X98063Y54075D01*
X97997Y54042D01*
X97928Y54012D01*
X97858Y53986D01*
X97787Y53964D01*
X97715Y53945D01*
X97641Y53931D01*
X97568Y53920D01*
X97493Y53913D01*
X97419Y53910D01*
X97344Y53911D01*
X97270Y53916D01*
X97195Y53925D01*
X97122Y53938D01*
X97049Y53954D01*
X96977Y53975D01*
X96907Y53999D01*
X96837Y54027D01*
X96770Y54058D01*
X96704Y54093D01*
X96640Y54132D01*
X96578Y54174D01*
X96518Y54218D01*
X96461Y54267D01*
X96407Y54318D01*
X96355Y54371D01*
X96306Y54428D01*
X96260Y54487D01*
X96218Y54548D01*
X96179Y54612D01*
X96143Y54677D01*
X96110Y54744D01*
X96081Y54813D01*
X96056Y54884D01*
X96035Y54955D01*
X96017Y55028D01*
X96004Y55101D01*
X95994Y55175D01*
X95988Y55249D01*
X95986Y55324D01*
D15*
X107400Y6324D02*
X137400Y6324D01*
X92400Y32324D02*
X92400Y48824D01*
X144900Y48824D02*
X152400Y48824D01*
X152400Y32324D01*
X99900Y48824D02*
X92400Y48824D01*
D14*
X215986Y55578D02*
X215988Y55653D01*
X215994Y55727D01*
X216004Y55801D01*
X216017Y55874D01*
X216035Y55947D01*
X216056Y56018D01*
X216081Y56089D01*
X216110Y56158D01*
X216143Y56225D01*
X216179Y56290D01*
X216218Y56354D01*
X216260Y56415D01*
X216306Y56474D01*
X216355Y56531D01*
X216407Y56584D01*
X216461Y56635D01*
X216518Y56684D01*
X216578Y56728D01*
X216640Y56770D01*
X216704Y56809D01*
X216770Y56844D01*
X216837Y56875D01*
X216907Y56903D01*
X216977Y56927D01*
X217049Y56948D01*
X217122Y56964D01*
X217195Y56977D01*
X217270Y56986D01*
X217344Y56991D01*
X217419Y56992D01*
X217493Y56989D01*
X217568Y56982D01*
X217641Y56971D01*
X217715Y56957D01*
X217787Y56938D01*
X217858Y56916D01*
X217928Y56890D01*
X217997Y56860D01*
X218063Y56827D01*
X218128Y56790D01*
X218191Y56750D01*
X218252Y56706D01*
X218310Y56660D01*
X218366Y56610D01*
X218419Y56558D01*
X218470Y56503D01*
X218517Y56445D01*
X218561Y56385D01*
X218602Y56322D01*
X218640Y56258D01*
X218674Y56192D01*
X218705Y56123D01*
X218732Y56054D01*
X218755Y55983D01*
X218774Y55911D01*
X218790Y55838D01*
X218802Y55764D01*
X218810Y55690D01*
X218814Y55615D01*
X218814Y55541D01*
X218810Y55466D01*
X218802Y55392D01*
X218790Y55318D01*
X218774Y55245D01*
X218755Y55173D01*
X218732Y55102D01*
X218705Y55033D01*
X218674Y54964D01*
X218640Y54898D01*
X218602Y54834D01*
X218561Y54771D01*
X218517Y54711D01*
X218470Y54653D01*
X218419Y54598D01*
X218366Y54546D01*
X218310Y54496D01*
X218252Y54450D01*
X218191Y54406D01*
X218128Y54366D01*
X218063Y54329D01*
X217997Y54296D01*
X217928Y54266D01*
X217858Y54240D01*
X217787Y54218D01*
X217715Y54199D01*
X217641Y54185D01*
X217568Y54174D01*
X217493Y54167D01*
X217419Y54164D01*
X217344Y54165D01*
X217270Y54170D01*
X217195Y54179D01*
X217122Y54192D01*
X217049Y54208D01*
X216977Y54229D01*
X216907Y54253D01*
X216837Y54281D01*
X216770Y54312D01*
X216704Y54347D01*
X216640Y54386D01*
X216578Y54428D01*
X216518Y54472D01*
X216461Y54521D01*
X216407Y54572D01*
X216355Y54625D01*
X216306Y54682D01*
X216260Y54741D01*
X216218Y54802D01*
X216179Y54866D01*
X216143Y54931D01*
X216110Y54998D01*
X216081Y55067D01*
X216056Y55138D01*
X216035Y55209D01*
X216017Y55282D01*
X216004Y55355D01*
X215994Y55429D01*
X215988Y55503D01*
X215986Y55578D01*
D15*
X227400Y6578D02*
X257400Y6578D01*
X212400Y32578D02*
X212400Y49078D01*
X264900Y49078D02*
X272400Y49078D01*
X272400Y32578D01*
X219900Y49078D02*
X212400Y49078D01*
D13*
X26670Y96266D02*
X26670Y121666D01*
X8890Y124206D02*
X8790Y124204D01*
X8691Y124198D01*
X8591Y124188D01*
X8493Y124175D01*
X8394Y124157D01*
X8297Y124136D01*
X8201Y124111D01*
X8105Y124082D01*
X8011Y124049D01*
X7918Y124013D01*
X7827Y123973D01*
X7737Y123929D01*
X7649Y123882D01*
X7563Y123832D01*
X7479Y123778D01*
X7397Y123721D01*
X7318Y123661D01*
X7240Y123597D01*
X7166Y123531D01*
X7094Y123462D01*
X7025Y123390D01*
X6959Y123316D01*
X6895Y123238D01*
X6835Y123159D01*
X6778Y123077D01*
X6724Y122993D01*
X6674Y122907D01*
X6627Y122819D01*
X6583Y122729D01*
X6543Y122638D01*
X6507Y122545D01*
X6474Y122451D01*
X6445Y122355D01*
X6420Y122259D01*
X6399Y122162D01*
X6381Y122063D01*
X6368Y121965D01*
X6358Y121865D01*
X6352Y121766D01*
X6350Y121666D01*
X6350Y96266D02*
X6352Y96166D01*
X6358Y96067D01*
X6368Y95967D01*
X6381Y95869D01*
X6399Y95770D01*
X6420Y95673D01*
X6445Y95577D01*
X6474Y95481D01*
X6507Y95387D01*
X6543Y95294D01*
X6583Y95203D01*
X6627Y95113D01*
X6674Y95025D01*
X6724Y94939D01*
X6778Y94855D01*
X6835Y94773D01*
X6895Y94694D01*
X6959Y94616D01*
X7025Y94542D01*
X7094Y94470D01*
X7166Y94401D01*
X7240Y94335D01*
X7318Y94271D01*
X7397Y94211D01*
X7479Y94154D01*
X7563Y94100D01*
X7649Y94050D01*
X7737Y94003D01*
X7827Y93959D01*
X7918Y93919D01*
X8011Y93883D01*
X8105Y93850D01*
X8201Y93821D01*
X8297Y93796D01*
X8394Y93775D01*
X8493Y93757D01*
X8591Y93744D01*
X8691Y93734D01*
X8790Y93728D01*
X8890Y93726D01*
X24130Y93726D02*
X24230Y93728D01*
X24329Y93734D01*
X24429Y93744D01*
X24527Y93757D01*
X24626Y93775D01*
X24723Y93796D01*
X24819Y93821D01*
X24915Y93850D01*
X25009Y93883D01*
X25102Y93919D01*
X25193Y93959D01*
X25283Y94003D01*
X25371Y94050D01*
X25457Y94100D01*
X25541Y94154D01*
X25623Y94211D01*
X25702Y94271D01*
X25780Y94335D01*
X25854Y94401D01*
X25926Y94470D01*
X25995Y94542D01*
X26061Y94616D01*
X26125Y94694D01*
X26185Y94773D01*
X26242Y94855D01*
X26296Y94939D01*
X26346Y95025D01*
X26393Y95113D01*
X26437Y95203D01*
X26477Y95294D01*
X26513Y95387D01*
X26546Y95481D01*
X26575Y95577D01*
X26600Y95673D01*
X26621Y95770D01*
X26639Y95869D01*
X26652Y95967D01*
X26662Y96067D01*
X26668Y96166D01*
X26670Y96266D01*
X26670Y121666D02*
X26668Y121766D01*
X26662Y121865D01*
X26652Y121965D01*
X26639Y122063D01*
X26621Y122162D01*
X26600Y122259D01*
X26575Y122355D01*
X26546Y122451D01*
X26513Y122545D01*
X26477Y122638D01*
X26437Y122729D01*
X26393Y122819D01*
X26346Y122907D01*
X26296Y122993D01*
X26242Y123077D01*
X26185Y123159D01*
X26125Y123238D01*
X26061Y123316D01*
X25995Y123390D01*
X25926Y123462D01*
X25854Y123531D01*
X25780Y123597D01*
X25702Y123661D01*
X25623Y123721D01*
X25541Y123778D01*
X25457Y123832D01*
X25371Y123882D01*
X25283Y123929D01*
X25193Y123973D01*
X25102Y124013D01*
X25009Y124049D01*
X24915Y124082D01*
X24819Y124111D01*
X24723Y124136D01*
X24626Y124157D01*
X24527Y124175D01*
X24429Y124188D01*
X24329Y124198D01*
X24230Y124204D01*
X24130Y124206D01*
X8890Y124206D01*
X8890Y93726D02*
X24130Y93726D01*
X6350Y96266D02*
X6350Y121666D01*
D16*
X175834Y122240D02*
X175834Y162240D01*
X215834Y162240D02*
X215834Y122240D01*
D11*
X3062Y202400D02*
X3077Y203590D01*
X3120Y204780D01*
X3193Y205968D01*
X3296Y207154D01*
X3427Y208337D01*
X3587Y209516D01*
X3776Y210692D01*
X3994Y211862D01*
X4240Y213026D01*
X4515Y214185D01*
X4819Y215336D01*
X5150Y216479D01*
X5510Y217614D01*
X5897Y218739D01*
X6312Y219855D01*
X6754Y220960D01*
X7223Y222054D01*
X7719Y223136D01*
X8241Y224206D01*
X8789Y225263D01*
X9363Y226306D01*
X9962Y227334D01*
X10587Y228347D01*
X11236Y229345D01*
X11909Y230327D01*
X12606Y231291D01*
X13327Y232239D01*
X14071Y233168D01*
X14837Y234079D01*
X15626Y234971D01*
X16436Y235843D01*
X17267Y236695D01*
X18119Y237526D01*
X18991Y238336D01*
X19883Y239125D01*
X20794Y239891D01*
X21723Y240635D01*
X22671Y241356D01*
X23635Y242053D01*
X24617Y242726D01*
X25615Y243375D01*
X26628Y244000D01*
X27656Y244599D01*
X28699Y245173D01*
X29756Y245721D01*
X30826Y246243D01*
X31908Y246739D01*
X33002Y247208D01*
X34107Y247650D01*
X35223Y248065D01*
X36348Y248452D01*
X37483Y248812D01*
X38626Y249143D01*
X39777Y249447D01*
X40936Y249722D01*
X42100Y249968D01*
X43270Y250186D01*
X44446Y250375D01*
X45625Y250535D01*
X46808Y250666D01*
X47994Y250769D01*
X49182Y250842D01*
X50372Y250885D01*
X51562Y250900D01*
X52752Y250885D01*
X53942Y250842D01*
X55130Y250769D01*
X56316Y250666D01*
X57499Y250535D01*
X58678Y250375D01*
X59854Y250186D01*
X61024Y249968D01*
X62188Y249722D01*
X63347Y249447D01*
X64498Y249143D01*
X65641Y248812D01*
X66776Y248452D01*
X67901Y248065D01*
X69017Y247650D01*
X70122Y247208D01*
X71216Y246739D01*
X72298Y246243D01*
X73368Y245721D01*
X74425Y245173D01*
X75468Y244599D01*
X76496Y244000D01*
X77509Y243375D01*
X78507Y242726D01*
X79489Y242053D01*
X80453Y241356D01*
X81401Y240635D01*
X82330Y239891D01*
X83241Y239125D01*
X84133Y238336D01*
X85005Y237526D01*
X85857Y236695D01*
X86688Y235843D01*
X87498Y234971D01*
X88287Y234079D01*
X89053Y233168D01*
X89797Y232239D01*
X90518Y231291D01*
X91215Y230327D01*
X91888Y229345D01*
X92537Y228347D01*
X93162Y227334D01*
X93761Y226306D01*
X94335Y225263D01*
X94883Y224206D01*
X95405Y223136D01*
X95901Y222054D01*
X96370Y220960D01*
X96812Y219855D01*
X97227Y218739D01*
X97614Y217614D01*
X97974Y216479D01*
X98305Y215336D01*
X98609Y214185D01*
X98884Y213026D01*
X99130Y211862D01*
X99348Y210692D01*
X99537Y209516D01*
X99697Y208337D01*
X99828Y207154D01*
X99931Y205968D01*
X100004Y204780D01*
X100047Y203590D01*
X100062Y202400D01*
X100047Y201210D01*
X100004Y200020D01*
X99931Y198832D01*
X99828Y197646D01*
X99697Y196463D01*
X99537Y195284D01*
X99348Y194108D01*
X99130Y192938D01*
X98884Y191774D01*
X98609Y190615D01*
X98305Y189464D01*
X97974Y188321D01*
X97614Y187186D01*
X97227Y186061D01*
X96812Y184945D01*
X96370Y183840D01*
X95901Y182746D01*
X95405Y181664D01*
X94883Y180594D01*
X94335Y179537D01*
X93761Y178494D01*
X93162Y177466D01*
X92537Y176453D01*
X91888Y175455D01*
X91215Y174473D01*
X90518Y173509D01*
X89797Y172561D01*
X89053Y171632D01*
X88287Y170721D01*
X87498Y169829D01*
X86688Y168957D01*
X85857Y168105D01*
X85005Y167274D01*
X84133Y166464D01*
X83241Y165675D01*
X82330Y164909D01*
X81401Y164165D01*
X80453Y163444D01*
X79489Y162747D01*
X78507Y162074D01*
X77509Y161425D01*
X76496Y160800D01*
X75468Y160201D01*
X74425Y159627D01*
X73368Y159079D01*
X72298Y158557D01*
X71216Y158061D01*
X70122Y157592D01*
X69017Y157150D01*
X67901Y156735D01*
X66776Y156348D01*
X65641Y155988D01*
X64498Y155657D01*
X63347Y155353D01*
X62188Y155078D01*
X61024Y154832D01*
X59854Y154614D01*
X58678Y154425D01*
X57499Y154265D01*
X56316Y154134D01*
X55130Y154031D01*
X53942Y153958D01*
X52752Y153915D01*
X51562Y153900D01*
X50372Y153915D01*
X49182Y153958D01*
X47994Y154031D01*
X46808Y154134D01*
X45625Y154265D01*
X44446Y154425D01*
X43270Y154614D01*
X42100Y154832D01*
X40936Y155078D01*
X39777Y155353D01*
X38626Y155657D01*
X37483Y155988D01*
X36348Y156348D01*
X35223Y156735D01*
X34107Y157150D01*
X33002Y157592D01*
X31908Y158061D01*
X30826Y158557D01*
X29756Y159079D01*
X28699Y159627D01*
X27656Y160201D01*
X26628Y160800D01*
X25615Y161425D01*
X24617Y162074D01*
X23635Y162747D01*
X22671Y163444D01*
X21723Y164165D01*
X20794Y164909D01*
X19883Y165675D01*
X18991Y166464D01*
X18119Y167274D01*
X17267Y168105D01*
X16436Y168957D01*
X15626Y169829D01*
X14837Y170721D01*
X14071Y171632D01*
X13327Y172561D01*
X12606Y173509D01*
X11909Y174473D01*
X11236Y175455D01*
X10587Y176453D01*
X9962Y177466D01*
X9363Y178494D01*
X8789Y179537D01*
X8241Y180594D01*
X7719Y181664D01*
X7223Y182746D01*
X6754Y183840D01*
X6312Y184945D01*
X5897Y186061D01*
X5510Y187186D01*
X5150Y188321D01*
X4819Y189464D01*
X4515Y190615D01*
X4240Y191774D01*
X3994Y192938D01*
X3776Y194108D01*
X3587Y195284D01*
X3427Y196463D01*
X3296Y197646D01*
X3193Y198832D01*
X3120Y200020D01*
X3077Y201210D01*
X3062Y202400D01*
X10527Y202400D02*
X10539Y203407D01*
X10576Y204413D01*
X10638Y205419D01*
X10725Y206422D01*
X10836Y207423D01*
X10971Y208421D01*
X11131Y209415D01*
X11315Y210406D01*
X11524Y211391D01*
X11757Y212371D01*
X12013Y213345D01*
X12294Y214312D01*
X12598Y215272D01*
X12926Y216224D01*
X13277Y217168D01*
X13651Y218103D01*
X14047Y219029D01*
X14467Y219945D01*
X14909Y220850D01*
X15372Y221744D01*
X15858Y222626D01*
X16365Y223496D01*
X16893Y224354D01*
X17443Y225198D01*
X18012Y226028D01*
X18602Y226845D01*
X19212Y227646D01*
X19842Y228432D01*
X20490Y229203D01*
X21157Y229957D01*
X21843Y230695D01*
X22546Y231416D01*
X23267Y232119D01*
X24005Y232805D01*
X24759Y233472D01*
X25530Y234120D01*
X26316Y234750D01*
X27117Y235360D01*
X27934Y235950D01*
X28764Y236519D01*
X29608Y237069D01*
X30466Y237597D01*
X31336Y238104D01*
X32218Y238590D01*
X33112Y239053D01*
X34017Y239495D01*
X34933Y239915D01*
X35859Y240311D01*
X36794Y240685D01*
X37738Y241036D01*
X38690Y241364D01*
X39650Y241668D01*
X40617Y241949D01*
X41591Y242205D01*
X42571Y242438D01*
X43556Y242647D01*
X44547Y242831D01*
X45541Y242991D01*
X46539Y243126D01*
X47540Y243237D01*
X48543Y243324D01*
X49549Y243386D01*
X50555Y243423D01*
X51562Y243435D01*
X52569Y243423D01*
X53575Y243386D01*
X54581Y243324D01*
X55584Y243237D01*
X56585Y243126D01*
X57583Y242991D01*
X58577Y242831D01*
X59568Y242647D01*
X60553Y242438D01*
X61533Y242205D01*
X62507Y241949D01*
X63474Y241668D01*
X64434Y241364D01*
X65386Y241036D01*
X66330Y240685D01*
X67265Y240311D01*
X68191Y239915D01*
X69107Y239495D01*
X70012Y239053D01*
X70906Y238590D01*
X71788Y238104D01*
X72658Y237597D01*
X73516Y237069D01*
X74360Y236519D01*
X75190Y235950D01*
X76007Y235360D01*
X76808Y234750D01*
X77594Y234120D01*
X78365Y233472D01*
X79119Y232805D01*
X79857Y232119D01*
X80578Y231416D01*
X81281Y230695D01*
X81967Y229957D01*
X82634Y229203D01*
X83282Y228432D01*
X83912Y227646D01*
X84522Y226845D01*
X85112Y226028D01*
X85681Y225198D01*
X86231Y224354D01*
X86759Y223496D01*
X87266Y222626D01*
X87752Y221744D01*
X88215Y220850D01*
X88657Y219945D01*
X89077Y219029D01*
X89473Y218103D01*
X89847Y217168D01*
X90198Y216224D01*
X90526Y215272D01*
X90830Y214312D01*
X91111Y213345D01*
X91367Y212371D01*
X91600Y211391D01*
X91809Y210406D01*
X91993Y209415D01*
X92153Y208421D01*
X92288Y207423D01*
X92399Y206422D01*
X92486Y205419D01*
X92548Y204413D01*
X92585Y203407D01*
X92597Y202400D01*
X92585Y201393D01*
X92548Y200387D01*
X92486Y199381D01*
X92399Y198378D01*
X92288Y197377D01*
X92153Y196379D01*
X91993Y195385D01*
X91809Y194394D01*
X91600Y193409D01*
X91367Y192429D01*
X91111Y191455D01*
X90830Y190488D01*
X90526Y189528D01*
X90198Y188576D01*
X89847Y187632D01*
X89473Y186697D01*
X89077Y185771D01*
X88657Y184855D01*
X88215Y183950D01*
X87752Y183056D01*
X87266Y182174D01*
X86759Y181304D01*
X86231Y180446D01*
X85681Y179602D01*
X85112Y178772D01*
X84522Y177955D01*
X83912Y177154D01*
X83282Y176368D01*
X82634Y175597D01*
X81967Y174843D01*
X81281Y174105D01*
X80578Y173384D01*
X79857Y172681D01*
X79119Y171995D01*
X78365Y171328D01*
X77594Y170680D01*
X76808Y170050D01*
X76007Y169440D01*
X75190Y168850D01*
X74360Y168281D01*
X73516Y167731D01*
X72658Y167203D01*
X71788Y166696D01*
X70906Y166210D01*
X70012Y165747D01*
X69107Y165305D01*
X68191Y164885D01*
X67265Y164489D01*
X66330Y164115D01*
X65386Y163764D01*
X64434Y163436D01*
X63474Y163132D01*
X62507Y162851D01*
X61533Y162595D01*
X60553Y162362D01*
X59568Y162153D01*
X58577Y161969D01*
X57583Y161809D01*
X56585Y161674D01*
X55584Y161563D01*
X54581Y161476D01*
X53575Y161414D01*
X52569Y161377D01*
X51562Y161365D01*
X50555Y161377D01*
X49549Y161414D01*
X48543Y161476D01*
X47540Y161563D01*
X46539Y161674D01*
X45541Y161809D01*
X44547Y161969D01*
X43556Y162153D01*
X42571Y162362D01*
X41591Y162595D01*
X40617Y162851D01*
X39650Y163132D01*
X38690Y163436D01*
X37738Y163764D01*
X36794Y164115D01*
X35859Y164489D01*
X34933Y164885D01*
X34017Y165305D01*
X33112Y165747D01*
X32218Y166210D01*
X31336Y166696D01*
X30466Y167203D01*
X29608Y167731D01*
X28764Y168281D01*
X27934Y168850D01*
X27117Y169440D01*
X26316Y170050D01*
X25530Y170680D01*
X24759Y171328D01*
X24005Y171995D01*
X23267Y172681D01*
X22546Y173384D01*
X21843Y174105D01*
X21157Y174843D01*
X20490Y175597D01*
X19842Y176368D01*
X19212Y177154D01*
X18602Y177955D01*
X18012Y178772D01*
X17443Y179602D01*
X16893Y180446D01*
X16365Y181304D01*
X15858Y182174D01*
X15372Y183056D01*
X14909Y183950D01*
X14467Y184855D01*
X14047Y185771D01*
X13651Y186697D01*
X13277Y187632D01*
X12926Y188576D01*
X12598Y189528D01*
X12294Y190488D01*
X12013Y191455D01*
X11757Y192429D01*
X11524Y193409D01*
X11315Y194394D01*
X11131Y195385D01*
X10971Y196379D01*
X10836Y197377D01*
X10725Y198378D01*
X10638Y199381D01*
X10576Y200387D01*
X10539Y201393D01*
X10527Y202400D01*
X60452Y236690D02*
X68072Y236690D01*
X64262Y240500D02*
X64262Y232880D01*
X42672Y236690D02*
X35052Y236690D01*
X117602Y278638D02*
X145542Y278638D01*
X117602Y278638D02*
X117602Y291338D01*
X145542Y291338D01*
X145542Y278638D01*
X114808Y291338D02*
X86868Y291338D01*
X114808Y291338D02*
X114808Y278638D01*
X86868Y278638D01*
X86868Y291338D01*
X117602Y293370D02*
X145542Y293370D01*
X117602Y293370D02*
X117602Y306070D01*
X145542Y306070D01*
X145542Y293370D01*
X111506Y311150D02*
X111506Y339090D01*
X124206Y339090D01*
X124206Y311150D01*
X111506Y311150D01*
X117602Y276606D02*
X145542Y276606D01*
X145542Y263906D01*
X117602Y263906D01*
X117602Y276606D01*
X255016Y255778D02*
X282956Y255778D01*
X255016Y255778D02*
X255016Y268478D01*
X282956Y268478D01*
X282956Y255778D01*
X324104Y247142D02*
X324104Y275082D01*
X336804Y275082D01*
X336804Y247142D01*
X324104Y247142D01*
X267462Y286258D02*
X267462Y314198D01*
X267462Y286258D02*
X254762Y286258D01*
X254762Y314198D01*
X267462Y314198D01*
X269494Y314198D02*
X269494Y286258D01*
X269494Y314198D02*
X282194Y314198D01*
X282194Y286258D01*
X269494Y286258D01*
X150368Y167894D02*
X122428Y167894D01*
X122428Y180594D01*
X150368Y180594D01*
X150368Y167894D01*
X77978Y110744D02*
X50038Y110744D01*
X50038Y123444D01*
X77978Y123444D01*
X77978Y110744D01*
X77978Y94488D02*
X50038Y94488D01*
X50038Y107188D01*
X77978Y107188D01*
X77978Y94488D01*
X338582Y216662D02*
X338582Y244602D01*
X351282Y244602D01*
X351282Y216662D01*
X338582Y216662D01*
X180340Y167894D02*
X152400Y167894D01*
X152400Y180594D01*
X180340Y180594D01*
X180340Y167894D01*
D17*
X277116Y163580D02*
X277116Y214626D01*
X324356Y214626D02*
X324356Y163580D01*
X328359Y219139D02*
X328361Y219239D01*
X328367Y219340D01*
X328377Y219439D01*
X328391Y219539D01*
X328408Y219638D01*
X328430Y219736D01*
X328456Y219833D01*
X328485Y219929D01*
X328518Y220023D01*
X328555Y220117D01*
X328595Y220209D01*
X328639Y220299D01*
X328687Y220387D01*
X328738Y220474D01*
X328792Y220558D01*
X328850Y220640D01*
X328911Y220720D01*
X328975Y220797D01*
X329042Y220872D01*
X329112Y220944D01*
X329185Y221013D01*
X329260Y221079D01*
X329338Y221143D01*
X329418Y221203D01*
X329501Y221260D01*
X329586Y221313D01*
X329673Y221363D01*
X329762Y221410D01*
X329852Y221453D01*
X329944Y221493D01*
X330038Y221529D01*
X330133Y221561D01*
X330229Y221589D01*
X330327Y221614D01*
X330425Y221634D01*
X330524Y221651D01*
X330624Y221664D01*
X330723Y221673D01*
X330824Y221678D01*
X330924Y221679D01*
X331024Y221676D01*
X331125Y221669D01*
X331224Y221658D01*
X331324Y221643D01*
X331422Y221625D01*
X331520Y221602D01*
X331617Y221575D01*
X331712Y221545D01*
X331807Y221511D01*
X331900Y221473D01*
X331991Y221432D01*
X332081Y221387D01*
X332169Y221339D01*
X332255Y221287D01*
X332339Y221232D01*
X332420Y221173D01*
X332499Y221111D01*
X332576Y221047D01*
X332650Y220979D01*
X332721Y220908D01*
X332790Y220835D01*
X332855Y220759D01*
X332918Y220680D01*
X332977Y220599D01*
X333033Y220516D01*
X333086Y220431D01*
X333135Y220343D01*
X333181Y220254D01*
X333223Y220163D01*
X333262Y220070D01*
X333297Y219976D01*
X333328Y219881D01*
X333356Y219784D01*
X333379Y219687D01*
X333399Y219588D01*
X333415Y219489D01*
X333427Y219390D01*
X333435Y219289D01*
X333439Y219189D01*
X333439Y219089D01*
X333435Y218989D01*
X333427Y218888D01*
X333415Y218789D01*
X333399Y218690D01*
X333379Y218591D01*
X333356Y218494D01*
X333328Y218397D01*
X333297Y218302D01*
X333262Y218208D01*
X333223Y218115D01*
X333181Y218024D01*
X333135Y217935D01*
X333086Y217847D01*
X333033Y217762D01*
X332977Y217679D01*
X332918Y217598D01*
X332855Y217519D01*
X332790Y217443D01*
X332721Y217370D01*
X332650Y217299D01*
X332576Y217231D01*
X332499Y217167D01*
X332420Y217105D01*
X332339Y217046D01*
X332255Y216991D01*
X332169Y216939D01*
X332081Y216891D01*
X331991Y216846D01*
X331900Y216805D01*
X331807Y216767D01*
X331712Y216733D01*
X331617Y216703D01*
X331520Y216676D01*
X331422Y216653D01*
X331324Y216635D01*
X331224Y216620D01*
X331125Y216609D01*
X331024Y216602D01*
X330924Y216599D01*
X330824Y216600D01*
X330723Y216605D01*
X330624Y216614D01*
X330524Y216627D01*
X330425Y216644D01*
X330327Y216664D01*
X330229Y216689D01*
X330133Y216717D01*
X330038Y216749D01*
X329944Y216785D01*
X329852Y216825D01*
X329762Y216868D01*
X329673Y216915D01*
X329586Y216965D01*
X329501Y217018D01*
X329418Y217075D01*
X329338Y217135D01*
X329260Y217199D01*
X329185Y217265D01*
X329112Y217334D01*
X329042Y217406D01*
X328975Y217481D01*
X328911Y217558D01*
X328850Y217638D01*
X328792Y217720D01*
X328738Y217804D01*
X328687Y217891D01*
X328639Y217979D01*
X328595Y218069D01*
X328555Y218161D01*
X328518Y218255D01*
X328485Y218349D01*
X328456Y218445D01*
X328430Y218542D01*
X328408Y218640D01*
X328391Y218739D01*
X328377Y218839D01*
X328367Y218938D01*
X328361Y219039D01*
X328359Y219139D01*
D11*
X139192Y151360D02*
X139192Y135152D01*
X157692Y151360D02*
X158640Y151360D01*
X149140Y151360D02*
X148192Y151360D01*
X166692Y151360D02*
X167640Y150412D01*
X167640Y135152D01*
X140140Y151360D02*
X139192Y151360D01*
X139192Y135152D02*
X140140Y135152D01*
X166692Y135152D02*
X167640Y135152D01*
X158640Y135152D02*
X157692Y135152D01*
X149140Y135152D02*
X148192Y135152D01*
X167386Y154686D02*
X167388Y154786D01*
X167394Y154887D01*
X167404Y154986D01*
X167418Y155086D01*
X167435Y155185D01*
X167457Y155283D01*
X167483Y155380D01*
X167512Y155476D01*
X167545Y155570D01*
X167582Y155664D01*
X167622Y155756D01*
X167666Y155846D01*
X167714Y155934D01*
X167765Y156021D01*
X167819Y156105D01*
X167877Y156187D01*
X167938Y156267D01*
X168002Y156344D01*
X168069Y156419D01*
X168139Y156491D01*
X168212Y156560D01*
X168287Y156626D01*
X168365Y156690D01*
X168445Y156750D01*
X168528Y156807D01*
X168613Y156860D01*
X168700Y156910D01*
X168789Y156957D01*
X168879Y157000D01*
X168971Y157040D01*
X169065Y157076D01*
X169160Y157108D01*
X169256Y157136D01*
X169354Y157161D01*
X169452Y157181D01*
X169551Y157198D01*
X169651Y157211D01*
X169750Y157220D01*
X169851Y157225D01*
X169951Y157226D01*
X170051Y157223D01*
X170152Y157216D01*
X170251Y157205D01*
X170351Y157190D01*
X170449Y157172D01*
X170547Y157149D01*
X170644Y157122D01*
X170739Y157092D01*
X170834Y157058D01*
X170927Y157020D01*
X171018Y156979D01*
X171108Y156934D01*
X171196Y156886D01*
X171282Y156834D01*
X171366Y156779D01*
X171447Y156720D01*
X171526Y156658D01*
X171603Y156594D01*
X171677Y156526D01*
X171748Y156455D01*
X171817Y156382D01*
X171882Y156306D01*
X171945Y156227D01*
X172004Y156146D01*
X172060Y156063D01*
X172113Y155978D01*
X172162Y155890D01*
X172208Y155801D01*
X172250Y155710D01*
X172289Y155617D01*
X172324Y155523D01*
X172355Y155428D01*
X172383Y155331D01*
X172406Y155234D01*
X172426Y155135D01*
X172442Y155036D01*
X172454Y154937D01*
X172462Y154836D01*
X172466Y154736D01*
X172466Y154636D01*
X172462Y154536D01*
X172454Y154435D01*
X172442Y154336D01*
X172426Y154237D01*
X172406Y154138D01*
X172383Y154041D01*
X172355Y153944D01*
X172324Y153849D01*
X172289Y153755D01*
X172250Y153662D01*
X172208Y153571D01*
X172162Y153482D01*
X172113Y153394D01*
X172060Y153309D01*
X172004Y153226D01*
X171945Y153145D01*
X171882Y153066D01*
X171817Y152990D01*
X171748Y152917D01*
X171677Y152846D01*
X171603Y152778D01*
X171526Y152714D01*
X171447Y152652D01*
X171366Y152593D01*
X171282Y152538D01*
X171196Y152486D01*
X171108Y152438D01*
X171018Y152393D01*
X170927Y152352D01*
X170834Y152314D01*
X170739Y152280D01*
X170644Y152250D01*
X170547Y152223D01*
X170449Y152200D01*
X170351Y152182D01*
X170251Y152167D01*
X170152Y152156D01*
X170051Y152149D01*
X169951Y152146D01*
X169851Y152147D01*
X169750Y152152D01*
X169651Y152161D01*
X169551Y152174D01*
X169452Y152191D01*
X169354Y152211D01*
X169256Y152236D01*
X169160Y152264D01*
X169065Y152296D01*
X168971Y152332D01*
X168879Y152372D01*
X168789Y152415D01*
X168700Y152462D01*
X168613Y152512D01*
X168528Y152565D01*
X168445Y152622D01*
X168365Y152682D01*
X168287Y152746D01*
X168212Y152812D01*
X168139Y152881D01*
X168069Y152953D01*
X168002Y153028D01*
X167938Y153105D01*
X167877Y153185D01*
X167819Y153267D01*
X167765Y153351D01*
X167714Y153438D01*
X167666Y153526D01*
X167622Y153616D01*
X167582Y153708D01*
X167545Y153802D01*
X167512Y153896D01*
X167483Y153992D01*
X167457Y154089D01*
X167435Y154187D01*
X167418Y154286D01*
X167404Y154386D01*
X167394Y154485D01*
X167388Y154586D01*
X167386Y154686D01*
D17*
X217424Y269240D02*
X217424Y322580D01*
X217424Y269240D02*
X192024Y269240D01*
X192024Y322580D01*
X217424Y322580D01*
D18*
X198374Y314960D03*
D11*
X114808Y293370D02*
X86868Y293370D01*
X86868Y306070D01*
X114808Y306070D01*
X114808Y293370D01*
X255016Y283210D02*
X282956Y283210D01*
X282956Y270510D01*
X255016Y270510D01*
X255016Y283210D01*
X303086Y282068D02*
X303086Y298068D01*
X311086Y298068D01*
X311086Y282068D01*
X303086Y282068D01*
X303276Y288798D02*
X310896Y288798D01*
X308991Y290068D01*
X307086Y291338D01*
X305181Y290068D01*
X303276Y288798D01*
X304546Y289433D02*
X309626Y289433D01*
X308991Y290068D02*
X305181Y290068D01*
X300736Y275082D02*
X300736Y247142D01*
X300736Y275082D02*
X313436Y275082D01*
X313436Y247142D01*
X300736Y247142D01*
M02*
