M48
;GenerationSoftware,Autodesk,EAGLE,9.2.2*%
;CreationDate,2018-11-29T01:22:21Z*%
FMAT,2
ICI,OFF
METRIC,TZ,000.000
T4C0.305
T3C0.950
T2C1.100
T1C3.000
%
G90
M71
T1
X3000Y3000
X33480Y3000
X3000Y33480
X33480Y33480
T2
X3906Y22240
X6406Y22240
T3
X29540Y7569
X29540Y10109
X32080Y10109
X34620Y7569
X34620Y10109
X32080Y7569
T4
X1575Y29413
X1575Y28143
X1575Y26873
X1575Y25603
X1575Y24333
X19609Y1727
X18085Y1727
X16561Y1727
X34849Y20523
X34849Y19507
X29261Y11633
X9017Y9449
X11303Y13589
X4597Y10897
X34392Y13995
X33833Y24511
X26848Y14503
X29769Y13665
X13411Y24740
X21946Y33274
X17577Y4521
X18593Y4521
X19609Y4521
X20625Y4521
X15799Y31191
X29032Y35230
X30709Y13792
X27762Y35230
X26492Y35230
X25222Y35230
X23952Y35230
X22682Y35230
M30