G04 EAGLE Gerber RS-274X export*
G75*
%MOMM*%
%FSLAX34Y34*%
%LPD*%
%INSolderpaste Top*%
%IPPOS*%
%AMOC8*
5,1,8,0,0,1.08239X$1,22.5*%
G01*
%ADD10C,0.222250*%
%ADD11C,0.158750*%
%ADD12R,0.700000X0.500000*%
%ADD13R,2.500000X1.700000*%
%ADD14R,0.500000X0.700000*%
%ADD15R,0.600000X1.350000*%
%ADD16R,1.200000X2.000000*%
%ADD17C,0.550000*%
%ADD18R,0.609600X2.209800*%
%ADD19R,0.508000X1.016000*%
%ADD20R,2.200000X0.600000*%


D10*
X340328Y164052D02*
X340328Y170720D01*
X346996Y170720D01*
X346996Y164052D01*
X340328Y164052D01*
X340328Y166164D02*
X346996Y166164D01*
X346996Y168276D02*
X340328Y168276D01*
X340328Y170388D02*
X346996Y170388D01*
X340328Y155480D02*
X340328Y148812D01*
X340328Y155480D02*
X346996Y155480D01*
X346996Y148812D01*
X340328Y148812D01*
X340328Y150924D02*
X346996Y150924D01*
X346996Y153036D02*
X340328Y153036D01*
X340328Y155148D02*
X346996Y155148D01*
X249206Y340646D02*
X242538Y340646D01*
X249206Y340646D02*
X249206Y333978D01*
X242538Y333978D01*
X242538Y340646D01*
X242538Y336090D02*
X249206Y336090D01*
X249206Y338202D02*
X242538Y338202D01*
X242538Y340314D02*
X249206Y340314D01*
X233966Y340646D02*
X227298Y340646D01*
X233966Y340646D02*
X233966Y333978D01*
X227298Y333978D01*
X227298Y340646D01*
X227298Y336090D02*
X233966Y336090D01*
X233966Y338202D02*
X227298Y338202D01*
X227298Y340314D02*
X233966Y340314D01*
X129508Y336074D02*
X129508Y329406D01*
X129508Y336074D02*
X136176Y336074D01*
X136176Y329406D01*
X129508Y329406D01*
X129508Y331518D02*
X136176Y331518D01*
X136176Y333630D02*
X129508Y333630D01*
X129508Y335742D02*
X136176Y335742D01*
X129508Y320834D02*
X129508Y314166D01*
X129508Y320834D02*
X136176Y320834D01*
X136176Y314166D01*
X129508Y314166D01*
X129508Y316278D02*
X136176Y316278D01*
X136176Y318390D02*
X129508Y318390D01*
X129508Y320502D02*
X136176Y320502D01*
X158718Y238030D02*
X165386Y238030D01*
X165386Y231362D01*
X158718Y231362D01*
X158718Y238030D01*
X158718Y233474D02*
X165386Y233474D01*
X165386Y235586D02*
X158718Y235586D01*
X158718Y237698D02*
X165386Y237698D01*
X150146Y238030D02*
X143478Y238030D01*
X150146Y238030D02*
X150146Y231362D01*
X143478Y231362D01*
X143478Y238030D01*
X143478Y233474D02*
X150146Y233474D01*
X150146Y235586D02*
X143478Y235586D01*
X143478Y237698D02*
X150146Y237698D01*
X121888Y154210D02*
X121888Y147542D01*
X121888Y154210D02*
X128556Y154210D01*
X128556Y147542D01*
X121888Y147542D01*
X121888Y149654D02*
X128556Y149654D01*
X128556Y151766D02*
X121888Y151766D01*
X121888Y153878D02*
X128556Y153878D01*
X121888Y138970D02*
X121888Y132302D01*
X121888Y138970D02*
X128556Y138970D01*
X128556Y132302D01*
X121888Y132302D01*
X121888Y134414D02*
X128556Y134414D01*
X128556Y136526D02*
X121888Y136526D01*
X121888Y138638D02*
X128556Y138638D01*
X158718Y223298D02*
X165386Y223298D01*
X165386Y216630D01*
X158718Y216630D01*
X158718Y223298D01*
X158718Y218742D02*
X165386Y218742D01*
X165386Y220854D02*
X158718Y220854D01*
X158718Y222966D02*
X165386Y222966D01*
X150146Y223298D02*
X143478Y223298D01*
X150146Y223298D02*
X150146Y216630D01*
X143478Y216630D01*
X143478Y223298D01*
X143478Y218742D02*
X150146Y218742D01*
X150146Y220854D02*
X143478Y220854D01*
X143478Y222966D02*
X150146Y222966D01*
D11*
X333660Y280702D02*
X333660Y285464D01*
X333660Y280702D02*
X327248Y280702D01*
X327248Y285464D01*
X333660Y285464D01*
X333660Y282211D02*
X327248Y282211D01*
X327248Y283720D02*
X333660Y283720D01*
X333660Y285229D02*
X327248Y285229D01*
X333660Y294672D02*
X333660Y299434D01*
X333660Y294672D02*
X327248Y294672D01*
X327248Y299434D01*
X333660Y299434D01*
X333660Y296181D02*
X327248Y296181D01*
X327248Y297690D02*
X333660Y297690D01*
X333660Y299199D02*
X327248Y299199D01*
D12*
X154266Y336804D03*
X165266Y336804D03*
D13*
X149672Y196850D03*
X189672Y196850D03*
D14*
X146812Y315810D03*
X146812Y326810D03*
D15*
X107400Y52324D03*
X117400Y52324D03*
X127400Y52324D03*
X137400Y52324D03*
D16*
X150400Y15574D03*
X94400Y15574D03*
D15*
X227400Y52578D03*
X237400Y52578D03*
X247400Y52578D03*
X257400Y52578D03*
D16*
X270400Y15828D03*
X214400Y15828D03*
D17*
X211584Y124490D02*
X211584Y129990D01*
X211584Y124490D02*
X180084Y124490D01*
X180084Y129990D01*
X211584Y129990D01*
X211584Y129715D02*
X180084Y129715D01*
X211584Y154490D02*
X211584Y159990D01*
X211584Y154490D02*
X180084Y154490D01*
X180084Y159990D01*
X211584Y159990D01*
X211584Y159715D02*
X180084Y159715D01*
D10*
X142526Y288322D02*
X135858Y288322D01*
X142526Y288322D02*
X142526Y281654D01*
X135858Y281654D01*
X135858Y288322D01*
X135858Y283766D02*
X142526Y283766D01*
X142526Y285878D02*
X135858Y285878D01*
X135858Y287990D02*
X142526Y287990D01*
X127286Y288322D02*
X120618Y288322D01*
X127286Y288322D02*
X127286Y281654D01*
X120618Y281654D01*
X120618Y288322D01*
X120618Y283766D02*
X127286Y283766D01*
X127286Y285878D02*
X120618Y285878D01*
X120618Y287990D02*
X127286Y287990D01*
X96552Y281654D02*
X89884Y281654D01*
X89884Y288322D01*
X96552Y288322D01*
X96552Y281654D01*
X96552Y283766D02*
X89884Y283766D01*
X89884Y285878D02*
X96552Y285878D01*
X96552Y287990D02*
X89884Y287990D01*
X105124Y281654D02*
X111792Y281654D01*
X105124Y281654D02*
X105124Y288322D01*
X111792Y288322D01*
X111792Y281654D01*
X111792Y283766D02*
X105124Y283766D01*
X105124Y285878D02*
X111792Y285878D01*
X111792Y287990D02*
X105124Y287990D01*
X135858Y303054D02*
X142526Y303054D01*
X142526Y296386D01*
X135858Y296386D01*
X135858Y303054D01*
X135858Y298498D02*
X142526Y298498D01*
X142526Y300610D02*
X135858Y300610D01*
X135858Y302722D02*
X142526Y302722D01*
X127286Y303054D02*
X120618Y303054D01*
X127286Y303054D02*
X127286Y296386D01*
X120618Y296386D01*
X120618Y303054D01*
X120618Y298498D02*
X127286Y298498D01*
X127286Y300610D02*
X120618Y300610D01*
X120618Y302722D02*
X127286Y302722D01*
X121190Y314166D02*
X121190Y320834D01*
X121190Y314166D02*
X114522Y314166D01*
X114522Y320834D01*
X121190Y320834D01*
X121190Y316278D02*
X114522Y316278D01*
X114522Y318390D02*
X121190Y318390D01*
X121190Y320502D02*
X114522Y320502D01*
X121190Y329406D02*
X121190Y336074D01*
X121190Y329406D02*
X114522Y329406D01*
X114522Y336074D01*
X121190Y336074D01*
X121190Y331518D02*
X114522Y331518D01*
X114522Y333630D02*
X121190Y333630D01*
X121190Y335742D02*
X114522Y335742D01*
X120618Y266922D02*
X127286Y266922D01*
X120618Y266922D02*
X120618Y273590D01*
X127286Y273590D01*
X127286Y266922D01*
X127286Y269034D02*
X120618Y269034D01*
X120618Y271146D02*
X127286Y271146D01*
X127286Y273258D02*
X120618Y273258D01*
X135858Y266922D02*
X142526Y266922D01*
X135858Y266922D02*
X135858Y273590D01*
X142526Y273590D01*
X142526Y266922D01*
X142526Y269034D02*
X135858Y269034D01*
X135858Y271146D02*
X142526Y271146D01*
X142526Y273258D02*
X135858Y273258D01*
X273272Y265462D02*
X279940Y265462D01*
X279940Y258794D01*
X273272Y258794D01*
X273272Y265462D01*
X273272Y260906D02*
X279940Y260906D01*
X279940Y263018D02*
X273272Y263018D01*
X273272Y265130D02*
X279940Y265130D01*
X264700Y265462D02*
X258032Y265462D01*
X264700Y265462D02*
X264700Y258794D01*
X258032Y258794D01*
X258032Y265462D01*
X258032Y260906D02*
X264700Y260906D01*
X264700Y263018D02*
X258032Y263018D01*
X258032Y265130D02*
X264700Y265130D01*
X333788Y256826D02*
X333788Y250158D01*
X327120Y250158D01*
X327120Y256826D01*
X333788Y256826D01*
X333788Y252270D02*
X327120Y252270D01*
X327120Y254382D02*
X333788Y254382D01*
X333788Y256494D02*
X327120Y256494D01*
X333788Y265398D02*
X333788Y272066D01*
X333788Y265398D02*
X327120Y265398D01*
X327120Y272066D01*
X333788Y272066D01*
X333788Y267510D02*
X327120Y267510D01*
X327120Y269622D02*
X333788Y269622D01*
X333788Y271734D02*
X327120Y271734D01*
X257778Y304514D02*
X257778Y311182D01*
X264446Y311182D01*
X264446Y304514D01*
X257778Y304514D01*
X257778Y306626D02*
X264446Y306626D01*
X264446Y308738D02*
X257778Y308738D01*
X257778Y310850D02*
X264446Y310850D01*
X257778Y295942D02*
X257778Y289274D01*
X257778Y295942D02*
X264446Y295942D01*
X264446Y289274D01*
X257778Y289274D01*
X257778Y291386D02*
X264446Y291386D01*
X264446Y293498D02*
X257778Y293498D01*
X257778Y295610D02*
X264446Y295610D01*
X279178Y295942D02*
X279178Y289274D01*
X272510Y289274D01*
X272510Y295942D01*
X279178Y295942D01*
X279178Y291386D02*
X272510Y291386D01*
X272510Y293498D02*
X279178Y293498D01*
X279178Y295610D02*
X272510Y295610D01*
X279178Y304514D02*
X279178Y311182D01*
X279178Y304514D02*
X272510Y304514D01*
X272510Y311182D01*
X279178Y311182D01*
X279178Y306626D02*
X272510Y306626D01*
X272510Y308738D02*
X279178Y308738D01*
X279178Y310850D02*
X272510Y310850D01*
X147352Y177578D02*
X140684Y177578D01*
X147352Y177578D02*
X147352Y170910D01*
X140684Y170910D01*
X140684Y177578D01*
X140684Y173022D02*
X147352Y173022D01*
X147352Y175134D02*
X140684Y175134D01*
X140684Y177246D02*
X147352Y177246D01*
X132112Y177578D02*
X125444Y177578D01*
X132112Y177578D02*
X132112Y170910D01*
X125444Y170910D01*
X125444Y177578D01*
X125444Y173022D02*
X132112Y173022D01*
X132112Y175134D02*
X125444Y175134D01*
X125444Y177246D02*
X132112Y177246D01*
X74962Y120428D02*
X68294Y120428D01*
X74962Y120428D02*
X74962Y113760D01*
X68294Y113760D01*
X68294Y120428D01*
X68294Y115872D02*
X74962Y115872D01*
X74962Y117984D02*
X68294Y117984D01*
X68294Y120096D02*
X74962Y120096D01*
X59722Y120428D02*
X53054Y120428D01*
X59722Y120428D02*
X59722Y113760D01*
X53054Y113760D01*
X53054Y120428D01*
X53054Y115872D02*
X59722Y115872D01*
X59722Y117984D02*
X53054Y117984D01*
X53054Y120096D02*
X59722Y120096D01*
X68294Y104172D02*
X74962Y104172D01*
X74962Y97504D01*
X68294Y97504D01*
X68294Y104172D01*
X68294Y99616D02*
X74962Y99616D01*
X74962Y101728D02*
X68294Y101728D01*
X68294Y103840D02*
X74962Y103840D01*
X59722Y104172D02*
X53054Y104172D01*
X59722Y104172D02*
X59722Y97504D01*
X53054Y97504D01*
X53054Y104172D01*
X53054Y99616D02*
X59722Y99616D01*
X59722Y101728D02*
X53054Y101728D01*
X53054Y103840D02*
X59722Y103840D01*
X348266Y219678D02*
X348266Y226346D01*
X348266Y219678D02*
X341598Y219678D01*
X341598Y226346D01*
X348266Y226346D01*
X348266Y221790D02*
X341598Y221790D01*
X341598Y223902D02*
X348266Y223902D01*
X348266Y226014D02*
X341598Y226014D01*
X348266Y234918D02*
X348266Y241586D01*
X348266Y234918D02*
X341598Y234918D01*
X341598Y241586D01*
X348266Y241586D01*
X348266Y237030D02*
X341598Y237030D01*
X341598Y239142D02*
X348266Y239142D01*
X348266Y241254D02*
X341598Y241254D01*
X177324Y177578D02*
X170656Y177578D01*
X177324Y177578D02*
X177324Y170910D01*
X170656Y170910D01*
X170656Y177578D01*
X170656Y173022D02*
X177324Y173022D01*
X177324Y175134D02*
X170656Y175134D01*
X170656Y177246D02*
X177324Y177246D01*
X162084Y177578D02*
X155416Y177578D01*
X162084Y177578D02*
X162084Y170910D01*
X155416Y170910D01*
X155416Y177578D01*
X155416Y173022D02*
X162084Y173022D01*
X162084Y175134D02*
X155416Y175134D01*
X155416Y177246D02*
X162084Y177246D01*
D18*
X319786Y222758D03*
X307086Y222758D03*
X294386Y222758D03*
X281686Y222758D03*
X281686Y155448D03*
X294386Y155448D03*
X307086Y155448D03*
X319786Y155448D03*
D19*
X162814Y154686D03*
X153416Y154686D03*
X144018Y154686D03*
X144018Y131826D03*
X153416Y131826D03*
X162814Y131826D03*
D20*
X178724Y302260D03*
X230724Y302260D03*
X178724Y314960D03*
X178724Y289560D03*
X178724Y276860D03*
X230724Y314960D03*
X230724Y289560D03*
X230724Y276860D03*
D10*
X111792Y303054D02*
X105124Y303054D01*
X111792Y303054D02*
X111792Y296386D01*
X105124Y296386D01*
X105124Y303054D01*
X105124Y298498D02*
X111792Y298498D01*
X111792Y300610D02*
X105124Y300610D01*
X105124Y302722D02*
X111792Y302722D01*
X96552Y303054D02*
X89884Y303054D01*
X96552Y303054D02*
X96552Y296386D01*
X89884Y296386D01*
X89884Y303054D01*
X89884Y298498D02*
X96552Y298498D01*
X96552Y300610D02*
X89884Y300610D01*
X89884Y302722D02*
X96552Y302722D01*
X258032Y273526D02*
X264700Y273526D01*
X258032Y273526D02*
X258032Y280194D01*
X264700Y280194D01*
X264700Y273526D01*
X264700Y275638D02*
X258032Y275638D01*
X258032Y277750D02*
X264700Y277750D01*
X264700Y279862D02*
X258032Y279862D01*
X273272Y273526D02*
X279940Y273526D01*
X273272Y273526D02*
X273272Y280194D01*
X279940Y280194D01*
X279940Y273526D01*
X279940Y275638D02*
X273272Y275638D01*
X273272Y277750D02*
X279940Y277750D01*
X279940Y279862D02*
X273272Y279862D01*
D11*
X310292Y280702D02*
X310292Y285464D01*
X310292Y280702D02*
X303880Y280702D01*
X303880Y285464D01*
X310292Y285464D01*
X310292Y282211D02*
X303880Y282211D01*
X303880Y283720D02*
X310292Y283720D01*
X310292Y285229D02*
X303880Y285229D01*
X310292Y294672D02*
X310292Y299434D01*
X310292Y294672D02*
X303880Y294672D01*
X303880Y299434D01*
X310292Y299434D01*
X310292Y296181D02*
X303880Y296181D01*
X303880Y297690D02*
X310292Y297690D01*
X310292Y299199D02*
X303880Y299199D01*
D10*
X310420Y256826D02*
X310420Y250158D01*
X303752Y250158D01*
X303752Y256826D01*
X310420Y256826D01*
X310420Y252270D02*
X303752Y252270D01*
X303752Y254382D02*
X310420Y254382D01*
X310420Y256494D02*
X303752Y256494D01*
X310420Y265398D02*
X310420Y272066D01*
X310420Y265398D02*
X303752Y265398D01*
X303752Y272066D01*
X310420Y272066D01*
X310420Y267510D02*
X303752Y267510D01*
X303752Y269622D02*
X310420Y269622D01*
X310420Y271734D02*
X303752Y271734D01*
M02*
