G04 EAGLE Gerber RS-274X export*
G75*
%MOMM*%
%FSLAX34Y34*%
%LPD*%
%INTop Copper*%
%IPPOS*%
%AMOC8*
5,1,8,0,0,1.08239X$1,22.5*%
G01*
%ADD10C,0.222250*%
%ADD11C,0.158750*%
%ADD12R,0.700000X0.500000*%
%ADD13R,2.500000X1.700000*%
%ADD14R,0.500000X0.700000*%
%ADD15P,1.677704X8X22.500000*%
%ADD16R,0.600000X1.350000*%
%ADD17R,1.200000X2.000000*%
%ADD18R,1.270000X0.635000*%
%ADD19C,0.203200*%
%ADD20C,0.550000*%
%ADD21R,1.650000X1.650000*%
%ADD22C,1.650000*%
%ADD23C,0.800000*%
%ADD24C,1.200000*%
%ADD25R,0.609600X2.209800*%
%ADD26R,0.508000X1.016000*%
%ADD27R,2.200000X0.600000*%
%ADD28C,0.609600*%
%ADD29C,0.304800*%
%ADD30C,0.381000*%

G36*
X85118Y5211D02*
X85118Y5211D01*
X85137Y5209D01*
X85239Y5231D01*
X85341Y5247D01*
X85358Y5257D01*
X85378Y5261D01*
X85467Y5314D01*
X85558Y5363D01*
X85572Y5377D01*
X85589Y5387D01*
X85656Y5466D01*
X85728Y5541D01*
X85736Y5559D01*
X85749Y5574D01*
X85788Y5670D01*
X85831Y5764D01*
X85833Y5784D01*
X85841Y5802D01*
X85859Y5969D01*
X85859Y14051D01*
X93638Y14051D01*
X93658Y14054D01*
X93677Y14052D01*
X93779Y14074D01*
X93881Y14091D01*
X93898Y14100D01*
X93918Y14104D01*
X94007Y14157D01*
X94098Y14206D01*
X94112Y14220D01*
X94129Y14230D01*
X94196Y14309D01*
X94267Y14384D01*
X94276Y14402D01*
X94289Y14417D01*
X94328Y14513D01*
X94371Y14607D01*
X94373Y14627D01*
X94381Y14645D01*
X94399Y14812D01*
X94399Y15575D01*
X94401Y15575D01*
X94401Y14812D01*
X94404Y14792D01*
X94402Y14773D01*
X94424Y14671D01*
X94441Y14569D01*
X94450Y14552D01*
X94454Y14532D01*
X94507Y14443D01*
X94556Y14352D01*
X94570Y14338D01*
X94580Y14321D01*
X94659Y14254D01*
X94734Y14183D01*
X94752Y14174D01*
X94767Y14161D01*
X94863Y14122D01*
X94957Y14079D01*
X94977Y14077D01*
X94995Y14069D01*
X95162Y14051D01*
X102941Y14051D01*
X102941Y5969D01*
X102944Y5949D01*
X102942Y5930D01*
X102964Y5828D01*
X102980Y5726D01*
X102990Y5709D01*
X102994Y5689D01*
X103047Y5600D01*
X103096Y5509D01*
X103110Y5495D01*
X103120Y5478D01*
X103199Y5411D01*
X103274Y5339D01*
X103292Y5331D01*
X103307Y5318D01*
X103403Y5279D01*
X103497Y5236D01*
X103517Y5234D01*
X103535Y5226D01*
X103702Y5208D01*
X141098Y5208D01*
X141118Y5211D01*
X141137Y5209D01*
X141239Y5231D01*
X141341Y5247D01*
X141358Y5257D01*
X141378Y5261D01*
X141467Y5314D01*
X141558Y5363D01*
X141572Y5377D01*
X141589Y5387D01*
X141656Y5466D01*
X141728Y5541D01*
X141736Y5559D01*
X141749Y5574D01*
X141788Y5670D01*
X141831Y5764D01*
X141833Y5784D01*
X141841Y5802D01*
X141859Y5969D01*
X141859Y14051D01*
X149638Y14051D01*
X149658Y14054D01*
X149677Y14052D01*
X149779Y14074D01*
X149881Y14091D01*
X149898Y14100D01*
X149918Y14104D01*
X150007Y14157D01*
X150098Y14206D01*
X150112Y14220D01*
X150129Y14230D01*
X150196Y14309D01*
X150267Y14384D01*
X150276Y14402D01*
X150289Y14417D01*
X150328Y14513D01*
X150371Y14607D01*
X150373Y14627D01*
X150381Y14645D01*
X150399Y14812D01*
X150399Y15575D01*
X150401Y15575D01*
X150401Y14812D01*
X150404Y14792D01*
X150402Y14773D01*
X150424Y14671D01*
X150441Y14569D01*
X150450Y14552D01*
X150454Y14532D01*
X150507Y14443D01*
X150556Y14352D01*
X150570Y14338D01*
X150580Y14321D01*
X150659Y14254D01*
X150734Y14183D01*
X150752Y14174D01*
X150767Y14161D01*
X150863Y14122D01*
X150957Y14079D01*
X150977Y14077D01*
X150995Y14069D01*
X151162Y14051D01*
X158941Y14051D01*
X158941Y5969D01*
X158944Y5949D01*
X158942Y5930D01*
X158964Y5828D01*
X158980Y5726D01*
X158990Y5709D01*
X158994Y5689D01*
X159047Y5600D01*
X159096Y5509D01*
X159110Y5495D01*
X159120Y5478D01*
X159199Y5411D01*
X159274Y5339D01*
X159292Y5331D01*
X159307Y5318D01*
X159403Y5279D01*
X159497Y5236D01*
X159517Y5234D01*
X159535Y5226D01*
X159702Y5208D01*
X205098Y5208D01*
X205118Y5211D01*
X205137Y5209D01*
X205239Y5231D01*
X205341Y5247D01*
X205358Y5257D01*
X205378Y5261D01*
X205467Y5314D01*
X205558Y5363D01*
X205572Y5377D01*
X205589Y5387D01*
X205656Y5466D01*
X205728Y5541D01*
X205736Y5559D01*
X205749Y5574D01*
X205788Y5670D01*
X205831Y5764D01*
X205833Y5784D01*
X205841Y5802D01*
X205859Y5969D01*
X205859Y14305D01*
X213638Y14305D01*
X213658Y14308D01*
X213677Y14306D01*
X213779Y14328D01*
X213881Y14345D01*
X213898Y14354D01*
X213918Y14358D01*
X214007Y14411D01*
X214098Y14460D01*
X214112Y14474D01*
X214129Y14484D01*
X214196Y14563D01*
X214267Y14638D01*
X214276Y14656D01*
X214289Y14671D01*
X214328Y14767D01*
X214371Y14861D01*
X214373Y14881D01*
X214381Y14899D01*
X214399Y15066D01*
X214399Y15829D01*
X214401Y15829D01*
X214401Y15066D01*
X214404Y15046D01*
X214402Y15027D01*
X214424Y14925D01*
X214441Y14823D01*
X214450Y14806D01*
X214454Y14786D01*
X214507Y14697D01*
X214556Y14606D01*
X214570Y14592D01*
X214580Y14575D01*
X214659Y14508D01*
X214734Y14437D01*
X214752Y14428D01*
X214767Y14415D01*
X214863Y14376D01*
X214957Y14333D01*
X214977Y14331D01*
X214995Y14323D01*
X215162Y14305D01*
X222941Y14305D01*
X222941Y5969D01*
X222944Y5949D01*
X222942Y5930D01*
X222964Y5828D01*
X222980Y5726D01*
X222990Y5709D01*
X222994Y5689D01*
X223047Y5600D01*
X223096Y5509D01*
X223110Y5495D01*
X223120Y5478D01*
X223199Y5411D01*
X223274Y5339D01*
X223292Y5331D01*
X223307Y5318D01*
X223403Y5279D01*
X223497Y5236D01*
X223517Y5234D01*
X223535Y5226D01*
X223702Y5208D01*
X261098Y5208D01*
X261118Y5211D01*
X261137Y5209D01*
X261239Y5231D01*
X261341Y5247D01*
X261358Y5257D01*
X261378Y5261D01*
X261467Y5314D01*
X261558Y5363D01*
X261572Y5377D01*
X261589Y5387D01*
X261656Y5466D01*
X261728Y5541D01*
X261736Y5559D01*
X261749Y5574D01*
X261788Y5670D01*
X261831Y5764D01*
X261833Y5784D01*
X261841Y5802D01*
X261859Y5969D01*
X261859Y14305D01*
X269638Y14305D01*
X269658Y14308D01*
X269677Y14306D01*
X269779Y14328D01*
X269881Y14345D01*
X269898Y14354D01*
X269918Y14358D01*
X270007Y14411D01*
X270098Y14460D01*
X270112Y14474D01*
X270129Y14484D01*
X270196Y14563D01*
X270267Y14638D01*
X270276Y14656D01*
X270289Y14671D01*
X270328Y14767D01*
X270371Y14861D01*
X270373Y14881D01*
X270381Y14899D01*
X270399Y15066D01*
X270399Y15829D01*
X270401Y15829D01*
X270401Y15066D01*
X270404Y15046D01*
X270402Y15027D01*
X270424Y14925D01*
X270441Y14823D01*
X270450Y14806D01*
X270454Y14786D01*
X270507Y14697D01*
X270556Y14606D01*
X270570Y14592D01*
X270580Y14575D01*
X270659Y14508D01*
X270734Y14437D01*
X270752Y14428D01*
X270767Y14415D01*
X270863Y14376D01*
X270957Y14333D01*
X270977Y14331D01*
X270995Y14323D01*
X271162Y14305D01*
X278941Y14305D01*
X278941Y5969D01*
X278944Y5949D01*
X278942Y5930D01*
X278964Y5828D01*
X278980Y5726D01*
X278990Y5709D01*
X278994Y5689D01*
X279047Y5600D01*
X279096Y5509D01*
X279110Y5495D01*
X279120Y5478D01*
X279199Y5411D01*
X279274Y5339D01*
X279292Y5331D01*
X279307Y5318D01*
X279403Y5279D01*
X279497Y5236D01*
X279517Y5234D01*
X279535Y5226D01*
X279702Y5208D01*
X315705Y5208D01*
X315808Y5225D01*
X315912Y5236D01*
X315929Y5244D01*
X315948Y5247D01*
X316040Y5296D01*
X316135Y5341D01*
X316149Y5354D01*
X316165Y5363D01*
X316237Y5438D01*
X316313Y5511D01*
X316322Y5527D01*
X316335Y5541D01*
X316379Y5636D01*
X316427Y5728D01*
X316430Y5747D01*
X316438Y5764D01*
X316450Y5868D01*
X316466Y5971D01*
X316463Y5990D01*
X316465Y6008D01*
X316443Y6110D01*
X316426Y6214D01*
X316417Y6230D01*
X316413Y6249D01*
X316359Y6339D01*
X316310Y6431D01*
X316294Y6448D01*
X316287Y6460D01*
X316263Y6481D01*
X316195Y6552D01*
X311525Y10470D01*
X306249Y19608D01*
X304417Y30000D01*
X306249Y40392D01*
X311525Y49530D01*
X319608Y56313D01*
X329524Y59921D01*
X340076Y59921D01*
X349992Y56312D01*
X358075Y49530D01*
X358172Y49362D01*
X358202Y49325D01*
X358225Y49282D01*
X358279Y49230D01*
X358328Y49172D01*
X358368Y49146D01*
X358403Y49113D01*
X358472Y49081D01*
X358536Y49041D01*
X358582Y49030D01*
X358626Y49009D01*
X358701Y49001D01*
X358775Y48983D01*
X358823Y48988D01*
X358870Y48982D01*
X358945Y48998D01*
X359020Y49005D01*
X359064Y49024D01*
X359111Y49035D01*
X359176Y49073D01*
X359245Y49104D01*
X359281Y49136D01*
X359322Y49161D01*
X359371Y49218D01*
X359427Y49269D01*
X359451Y49311D01*
X359482Y49348D01*
X359510Y49418D01*
X359547Y49484D01*
X359556Y49531D01*
X359574Y49576D01*
X359588Y49704D01*
X359592Y49726D01*
X359591Y49732D01*
X359592Y49743D01*
X359592Y83292D01*
X359581Y83363D01*
X359579Y83435D01*
X359561Y83484D01*
X359553Y83535D01*
X359519Y83598D01*
X359494Y83666D01*
X359462Y83706D01*
X359437Y83752D01*
X359386Y83802D01*
X359341Y83858D01*
X359297Y83886D01*
X359259Y83922D01*
X359194Y83952D01*
X359134Y83991D01*
X359083Y84003D01*
X359036Y84025D01*
X358965Y84033D01*
X358895Y84051D01*
X358843Y84047D01*
X358792Y84052D01*
X358721Y84037D01*
X358650Y84032D01*
X358602Y84011D01*
X358551Y84000D01*
X358490Y83963D01*
X358424Y83935D01*
X358368Y83890D01*
X358340Y83874D01*
X358325Y83856D01*
X358293Y83830D01*
X355454Y80992D01*
X355443Y80976D01*
X355427Y80963D01*
X355371Y80876D01*
X355311Y80792D01*
X355305Y80773D01*
X355294Y80756D01*
X355269Y80656D01*
X355238Y80557D01*
X355239Y80537D01*
X355234Y80518D01*
X355242Y80415D01*
X355245Y80311D01*
X355252Y80292D01*
X355253Y80273D01*
X355294Y80178D01*
X355329Y80080D01*
X355342Y80065D01*
X355349Y80046D01*
X355454Y79915D01*
X355731Y79639D01*
X355731Y71745D01*
X350149Y66163D01*
X342255Y66163D01*
X337915Y70504D01*
X337898Y70515D01*
X337886Y70531D01*
X337799Y70587D01*
X337715Y70647D01*
X337696Y70653D01*
X337679Y70664D01*
X337579Y70689D01*
X337480Y70720D01*
X337460Y70719D01*
X337441Y70724D01*
X337338Y70716D01*
X337234Y70713D01*
X337215Y70706D01*
X337195Y70705D01*
X337100Y70664D01*
X337003Y70629D01*
X336987Y70616D01*
X336969Y70609D01*
X336838Y70504D01*
X334945Y68610D01*
X328056Y61721D01*
X316487Y61721D01*
X316397Y61707D01*
X316306Y61699D01*
X316276Y61687D01*
X316244Y61682D01*
X316164Y61639D01*
X316080Y61603D01*
X316048Y61577D01*
X316027Y61566D01*
X316005Y61543D01*
X315949Y61498D01*
X292042Y37591D01*
X253858Y37591D01*
X251998Y39451D01*
X247623Y43826D01*
X247549Y43879D01*
X247480Y43939D01*
X247450Y43951D01*
X247424Y43970D01*
X247337Y43997D01*
X247252Y44031D01*
X247211Y44035D01*
X247189Y44042D01*
X247156Y44041D01*
X247085Y44049D01*
X243663Y44049D01*
X242938Y44774D01*
X242922Y44786D01*
X242910Y44801D01*
X242822Y44857D01*
X242739Y44918D01*
X242720Y44924D01*
X242703Y44934D01*
X242602Y44960D01*
X242503Y44990D01*
X242484Y44990D01*
X242464Y44994D01*
X242361Y44986D01*
X242258Y44984D01*
X242239Y44977D01*
X242219Y44975D01*
X242124Y44935D01*
X242027Y44899D01*
X242011Y44887D01*
X241993Y44879D01*
X241862Y44774D01*
X241137Y44049D01*
X240328Y44049D01*
X240238Y44035D01*
X240147Y44027D01*
X240117Y44015D01*
X240085Y44010D01*
X240005Y43967D01*
X239921Y43931D01*
X239889Y43905D01*
X239868Y43894D01*
X239852Y43878D01*
X239850Y43877D01*
X239842Y43868D01*
X239790Y43826D01*
X229110Y33146D01*
X125728Y33146D01*
X115302Y43572D01*
X115228Y43625D01*
X115159Y43685D01*
X115129Y43697D01*
X115102Y43716D01*
X115015Y43743D01*
X114931Y43777D01*
X114890Y43781D01*
X114867Y43788D01*
X114835Y43787D01*
X114764Y43795D01*
X113663Y43795D01*
X113477Y43981D01*
X113461Y43993D01*
X113448Y44009D01*
X113361Y44065D01*
X113277Y44125D01*
X113258Y44131D01*
X113242Y44142D01*
X113141Y44167D01*
X113042Y44197D01*
X113022Y44197D01*
X113003Y44202D01*
X112900Y44194D01*
X112796Y44191D01*
X112778Y44184D01*
X112758Y44183D01*
X112663Y44142D01*
X112565Y44106D01*
X112550Y44094D01*
X112531Y44086D01*
X112400Y43981D01*
X111960Y43541D01*
X111381Y43206D01*
X110734Y43033D01*
X108899Y43033D01*
X108899Y51586D01*
X108896Y51605D01*
X108898Y51625D01*
X108876Y51727D01*
X108860Y51829D01*
X108850Y51846D01*
X108846Y51866D01*
X108793Y51955D01*
X108744Y52046D01*
X108730Y52060D01*
X108720Y52077D01*
X108641Y52144D01*
X108566Y52215D01*
X108548Y52224D01*
X108533Y52237D01*
X108437Y52275D01*
X108343Y52319D01*
X108323Y52321D01*
X108305Y52328D01*
X108381Y52341D01*
X108398Y52350D01*
X108418Y52354D01*
X108507Y52407D01*
X108598Y52456D01*
X108612Y52470D01*
X108629Y52480D01*
X108696Y52559D01*
X108768Y52634D01*
X108776Y52652D01*
X108789Y52667D01*
X108828Y52764D01*
X108871Y52857D01*
X108873Y52877D01*
X108881Y52895D01*
X108899Y53062D01*
X108899Y61615D01*
X110734Y61615D01*
X111381Y61442D01*
X111960Y61107D01*
X112401Y60667D01*
X112417Y60655D01*
X112430Y60639D01*
X112517Y60583D01*
X112600Y60523D01*
X112620Y60517D01*
X112637Y60506D01*
X112737Y60481D01*
X112835Y60451D01*
X112856Y60451D01*
X112875Y60446D01*
X112978Y60454D01*
X113081Y60457D01*
X113100Y60464D01*
X113121Y60466D01*
X113215Y60506D01*
X113234Y60513D01*
X113235Y60513D01*
X113312Y60542D01*
X113328Y60554D01*
X113347Y60562D01*
X113434Y60632D01*
X113446Y60639D01*
X113452Y60647D01*
X113478Y60667D01*
X113494Y60683D01*
X113500Y60692D01*
X113504Y60695D01*
X113521Y60721D01*
X113547Y60757D01*
X113606Y60826D01*
X113618Y60857D01*
X113637Y60883D01*
X113664Y60970D01*
X113698Y61054D01*
X113702Y61096D01*
X113709Y61118D01*
X113708Y61150D01*
X113716Y61221D01*
X113716Y65417D01*
X113702Y65507D01*
X113694Y65598D01*
X113682Y65628D01*
X113677Y65660D01*
X113634Y65740D01*
X113598Y65824D01*
X113572Y65856D01*
X113561Y65877D01*
X113538Y65899D01*
X113493Y65955D01*
X90010Y89438D01*
X89936Y89491D01*
X89867Y89551D01*
X89837Y89563D01*
X89810Y89582D01*
X89723Y89609D01*
X89639Y89643D01*
X89598Y89647D01*
X89575Y89654D01*
X89543Y89653D01*
X89472Y89661D01*
X88171Y89661D01*
X85343Y92489D01*
X85343Y96487D01*
X85600Y96744D01*
X85642Y96802D01*
X85691Y96854D01*
X85713Y96901D01*
X85743Y96943D01*
X85764Y97012D01*
X85795Y97077D01*
X85800Y97129D01*
X85816Y97179D01*
X85814Y97250D01*
X85822Y97321D01*
X85811Y97372D01*
X85809Y97424D01*
X85785Y97492D01*
X85769Y97562D01*
X85743Y97607D01*
X85725Y97655D01*
X85680Y97711D01*
X85643Y97773D01*
X85604Y97807D01*
X85571Y97847D01*
X85511Y97886D01*
X85456Y97933D01*
X85408Y97952D01*
X85364Y97980D01*
X85295Y97998D01*
X85228Y98025D01*
X85157Y98033D01*
X85126Y98041D01*
X85102Y98039D01*
X85061Y98043D01*
X78613Y98043D01*
X78593Y98040D01*
X78574Y98042D01*
X78472Y98020D01*
X78370Y98004D01*
X78353Y97994D01*
X78333Y97990D01*
X78244Y97937D01*
X78153Y97888D01*
X78139Y97874D01*
X78122Y97864D01*
X78055Y97785D01*
X77983Y97710D01*
X77975Y97692D01*
X77962Y97677D01*
X77923Y97581D01*
X77880Y97487D01*
X77878Y97467D01*
X77870Y97449D01*
X77852Y97282D01*
X77852Y96307D01*
X76159Y94614D01*
X67097Y94614D01*
X65404Y96307D01*
X65404Y105369D01*
X67097Y107062D01*
X76159Y107062D01*
X77852Y105369D01*
X77852Y104394D01*
X77855Y104374D01*
X77853Y104355D01*
X77875Y104253D01*
X77891Y104151D01*
X77901Y104134D01*
X77905Y104114D01*
X77958Y104025D01*
X78007Y103934D01*
X78021Y103920D01*
X78031Y103903D01*
X78110Y103836D01*
X78185Y103764D01*
X78203Y103756D01*
X78218Y103743D01*
X78314Y103704D01*
X78408Y103661D01*
X78428Y103659D01*
X78446Y103651D01*
X78613Y103633D01*
X89259Y103633D01*
X89330Y103644D01*
X89402Y103646D01*
X89451Y103664D01*
X89502Y103672D01*
X89565Y103706D01*
X89633Y103731D01*
X89673Y103763D01*
X89719Y103788D01*
X89769Y103840D01*
X89825Y103884D01*
X89853Y103928D01*
X89889Y103966D01*
X89919Y104031D01*
X89958Y104091D01*
X89970Y104142D01*
X89992Y104189D01*
X90000Y104260D01*
X90018Y104330D01*
X90014Y104382D01*
X90020Y104433D01*
X90004Y104503D01*
X89999Y104575D01*
X89978Y104623D01*
X89967Y104674D01*
X89930Y104735D01*
X89902Y104801D01*
X89858Y104857D01*
X89841Y104885D01*
X89823Y104900D01*
X89798Y104932D01*
X80654Y114076D01*
X80580Y114129D01*
X80510Y114189D01*
X80480Y114201D01*
X80454Y114220D01*
X80367Y114247D01*
X80282Y114281D01*
X80241Y114285D01*
X80219Y114292D01*
X80187Y114291D01*
X80115Y114299D01*
X78613Y114299D01*
X78593Y114296D01*
X78574Y114298D01*
X78472Y114276D01*
X78370Y114260D01*
X78353Y114250D01*
X78333Y114246D01*
X78244Y114193D01*
X78153Y114144D01*
X78139Y114130D01*
X78122Y114120D01*
X78055Y114041D01*
X77983Y113966D01*
X77975Y113948D01*
X77962Y113933D01*
X77923Y113837D01*
X77880Y113743D01*
X77878Y113723D01*
X77870Y113705D01*
X77852Y113538D01*
X77852Y112563D01*
X76159Y110870D01*
X67097Y110870D01*
X65404Y112563D01*
X65404Y121625D01*
X67097Y123318D01*
X76159Y123318D01*
X77852Y121625D01*
X77852Y120650D01*
X77855Y120630D01*
X77853Y120611D01*
X77875Y120509D01*
X77891Y120407D01*
X77901Y120390D01*
X77905Y120370D01*
X77958Y120281D01*
X78007Y120190D01*
X78021Y120176D01*
X78031Y120159D01*
X78110Y120092D01*
X78185Y120020D01*
X78203Y120012D01*
X78218Y119999D01*
X78314Y119960D01*
X78408Y119917D01*
X78428Y119915D01*
X78446Y119907D01*
X78613Y119889D01*
X82746Y119889D01*
X140195Y62440D01*
X140195Y61614D01*
X140198Y61594D01*
X140196Y61575D01*
X140218Y61473D01*
X140234Y61371D01*
X140244Y61354D01*
X140248Y61334D01*
X140301Y61245D01*
X140350Y61154D01*
X140364Y61140D01*
X140374Y61123D01*
X140453Y61056D01*
X140528Y60984D01*
X140546Y60976D01*
X140561Y60963D01*
X140657Y60924D01*
X140751Y60881D01*
X140771Y60879D01*
X140789Y60871D01*
X140956Y60853D01*
X141137Y60853D01*
X142179Y59811D01*
X142179Y55880D01*
X142182Y55860D01*
X142180Y55841D01*
X142202Y55739D01*
X142218Y55637D01*
X142228Y55620D01*
X142232Y55600D01*
X142285Y55511D01*
X142334Y55420D01*
X142348Y55406D01*
X142358Y55389D01*
X142437Y55322D01*
X142512Y55250D01*
X142530Y55242D01*
X142545Y55229D01*
X142641Y55190D01*
X142735Y55147D01*
X142755Y55145D01*
X142773Y55137D01*
X142940Y55119D01*
X165659Y55119D01*
X165749Y55133D01*
X165840Y55141D01*
X165870Y55153D01*
X165902Y55158D01*
X165982Y55201D01*
X166066Y55237D01*
X166098Y55263D01*
X166119Y55274D01*
X166141Y55297D01*
X166197Y55342D01*
X183500Y72645D01*
X253380Y72645D01*
X260195Y65830D01*
X260195Y61868D01*
X260198Y61848D01*
X260196Y61829D01*
X260218Y61727D01*
X260234Y61625D01*
X260244Y61608D01*
X260248Y61588D01*
X260301Y61499D01*
X260350Y61408D01*
X260364Y61394D01*
X260374Y61377D01*
X260453Y61310D01*
X260528Y61238D01*
X260546Y61230D01*
X260561Y61217D01*
X260657Y61178D01*
X260751Y61135D01*
X260771Y61133D01*
X260789Y61125D01*
X260956Y61107D01*
X261137Y61107D01*
X262179Y60065D01*
X262179Y56134D01*
X262182Y56114D01*
X262180Y56095D01*
X262202Y55993D01*
X262218Y55891D01*
X262228Y55874D01*
X262232Y55854D01*
X262285Y55765D01*
X262334Y55674D01*
X262348Y55660D01*
X262358Y55643D01*
X262437Y55576D01*
X262512Y55504D01*
X262530Y55496D01*
X262545Y55483D01*
X262641Y55444D01*
X262735Y55401D01*
X262755Y55399D01*
X262773Y55391D01*
X262940Y55373D01*
X296215Y55373D01*
X296305Y55387D01*
X296396Y55395D01*
X296426Y55407D01*
X296458Y55412D01*
X296538Y55455D01*
X296622Y55491D01*
X296654Y55517D01*
X296675Y55528D01*
X296697Y55551D01*
X296753Y55596D01*
X311550Y70392D01*
X311561Y70408D01*
X311577Y70421D01*
X311633Y70508D01*
X311693Y70592D01*
X311699Y70611D01*
X311710Y70628D01*
X311735Y70728D01*
X311766Y70827D01*
X311765Y70847D01*
X311770Y70866D01*
X311762Y70969D01*
X311759Y71073D01*
X311752Y71092D01*
X311751Y71111D01*
X311710Y71206D01*
X311675Y71304D01*
X311662Y71319D01*
X311655Y71338D01*
X311550Y71469D01*
X311273Y71745D01*
X311273Y79639D01*
X316855Y85221D01*
X324749Y85221D01*
X329916Y80054D01*
X329974Y80012D01*
X330026Y79963D01*
X330073Y79941D01*
X330115Y79910D01*
X330184Y79889D01*
X330249Y79859D01*
X330301Y79853D01*
X330351Y79838D01*
X330422Y79840D01*
X330493Y79832D01*
X330544Y79843D01*
X330596Y79844D01*
X330664Y79869D01*
X330734Y79884D01*
X330779Y79911D01*
X330827Y79929D01*
X330883Y79974D01*
X330945Y80010D01*
X330979Y80050D01*
X331019Y80083D01*
X331058Y80143D01*
X331105Y80197D01*
X331124Y80246D01*
X331152Y80289D01*
X331170Y80359D01*
X331197Y80425D01*
X331205Y80497D01*
X331213Y80528D01*
X331211Y80551D01*
X331215Y80592D01*
X331215Y86411D01*
X331201Y86501D01*
X331193Y86592D01*
X331181Y86622D01*
X331176Y86654D01*
X331133Y86734D01*
X331097Y86818D01*
X331071Y86850D01*
X331060Y86871D01*
X331037Y86893D01*
X330992Y86949D01*
X326102Y91840D01*
X326086Y91851D01*
X326073Y91867D01*
X325986Y91923D01*
X325902Y91983D01*
X325883Y91989D01*
X325866Y92000D01*
X325766Y92025D01*
X325667Y92056D01*
X325647Y92055D01*
X325628Y92060D01*
X325525Y92052D01*
X325421Y92049D01*
X325402Y92042D01*
X325383Y92041D01*
X325288Y92000D01*
X325190Y91965D01*
X325175Y91952D01*
X325156Y91945D01*
X325025Y91840D01*
X324749Y91563D01*
X316855Y91563D01*
X311273Y97145D01*
X311273Y105039D01*
X311550Y105315D01*
X311561Y105332D01*
X311577Y105344D01*
X311633Y105431D01*
X311693Y105515D01*
X311699Y105534D01*
X311710Y105551D01*
X311735Y105651D01*
X311766Y105750D01*
X311765Y105770D01*
X311770Y105789D01*
X311762Y105892D01*
X311759Y105996D01*
X311752Y106015D01*
X311751Y106035D01*
X311710Y106130D01*
X311675Y106227D01*
X311662Y106243D01*
X311655Y106261D01*
X311550Y106392D01*
X278891Y139050D01*
X278891Y141859D01*
X278888Y141879D01*
X278890Y141898D01*
X278868Y142000D01*
X278852Y142102D01*
X278842Y142119D01*
X278838Y142139D01*
X278785Y142228D01*
X278736Y142319D01*
X278722Y142333D01*
X278712Y142350D01*
X278633Y142417D01*
X278558Y142489D01*
X278540Y142497D01*
X278525Y142510D01*
X278429Y142549D01*
X278335Y142592D01*
X278315Y142594D01*
X278297Y142602D01*
X278130Y142620D01*
X277901Y142620D01*
X276859Y143662D01*
X276859Y167234D01*
X277901Y168276D01*
X285471Y168276D01*
X286513Y167234D01*
X286513Y143662D01*
X285471Y142620D01*
X285242Y142620D01*
X285222Y142617D01*
X285203Y142619D01*
X285101Y142597D01*
X284999Y142581D01*
X284982Y142571D01*
X284962Y142567D01*
X284873Y142514D01*
X284782Y142465D01*
X284768Y142451D01*
X284751Y142441D01*
X284684Y142362D01*
X284612Y142287D01*
X284604Y142269D01*
X284591Y142254D01*
X284552Y142158D01*
X284509Y142064D01*
X284507Y142044D01*
X284499Y142026D01*
X284481Y141859D01*
X284481Y141681D01*
X284495Y141591D01*
X284503Y141500D01*
X284515Y141470D01*
X284520Y141438D01*
X284563Y141358D01*
X284599Y141274D01*
X284625Y141242D01*
X284636Y141221D01*
X284659Y141199D01*
X284704Y141143D01*
X291562Y134285D01*
X291620Y134243D01*
X291672Y134193D01*
X291719Y134171D01*
X291761Y134141D01*
X291830Y134120D01*
X291895Y134090D01*
X291947Y134084D01*
X291997Y134069D01*
X292068Y134071D01*
X292139Y134063D01*
X292190Y134074D01*
X292242Y134075D01*
X292310Y134100D01*
X292380Y134115D01*
X292425Y134142D01*
X292473Y134160D01*
X292529Y134204D01*
X292591Y134241D01*
X292625Y134281D01*
X292665Y134313D01*
X292704Y134374D01*
X292751Y134428D01*
X292770Y134476D01*
X292798Y134520D01*
X292816Y134590D01*
X292843Y134656D01*
X292851Y134728D01*
X292859Y134759D01*
X292857Y134782D01*
X292861Y134823D01*
X292861Y137211D01*
X292847Y137301D01*
X292839Y137392D01*
X292827Y137422D01*
X292822Y137454D01*
X292779Y137534D01*
X292743Y137618D01*
X292717Y137650D01*
X292706Y137671D01*
X292683Y137693D01*
X292638Y137749D01*
X291591Y138796D01*
X291591Y141859D01*
X291588Y141879D01*
X291590Y141898D01*
X291568Y142000D01*
X291552Y142102D01*
X291542Y142119D01*
X291538Y142139D01*
X291485Y142228D01*
X291436Y142319D01*
X291422Y142333D01*
X291412Y142350D01*
X291333Y142417D01*
X291258Y142489D01*
X291240Y142497D01*
X291225Y142510D01*
X291129Y142549D01*
X291035Y142592D01*
X291015Y142594D01*
X290997Y142602D01*
X290830Y142620D01*
X290601Y142620D01*
X289559Y143662D01*
X289559Y167234D01*
X290601Y168276D01*
X298171Y168276D01*
X299213Y167234D01*
X299213Y143662D01*
X298329Y142778D01*
X298287Y142720D01*
X298238Y142668D01*
X298216Y142621D01*
X298185Y142579D01*
X298164Y142510D01*
X298134Y142445D01*
X298128Y142393D01*
X298113Y142343D01*
X298115Y142272D01*
X298107Y142201D01*
X298118Y142150D01*
X298119Y142098D01*
X298144Y142030D01*
X298159Y141960D01*
X298186Y141915D01*
X298204Y141867D01*
X298249Y141811D01*
X298285Y141749D01*
X298325Y141715D01*
X298357Y141675D01*
X298418Y141636D01*
X298472Y141589D01*
X298521Y141570D01*
X298564Y141542D01*
X298634Y141524D01*
X298700Y141497D01*
X298772Y141489D01*
X298803Y141481D01*
X298826Y141483D01*
X298867Y141479D01*
X299687Y141479D01*
X301214Y139952D01*
X301230Y139941D01*
X301242Y139925D01*
X301330Y139869D01*
X301413Y139809D01*
X301432Y139803D01*
X301449Y139792D01*
X301550Y139767D01*
X301649Y139736D01*
X301668Y139737D01*
X301688Y139732D01*
X301791Y139740D01*
X301894Y139743D01*
X301913Y139750D01*
X301933Y139751D01*
X302028Y139792D01*
X302125Y139827D01*
X302141Y139840D01*
X302159Y139847D01*
X302290Y139952D01*
X303659Y141321D01*
X303701Y141379D01*
X303750Y141431D01*
X303772Y141478D01*
X303802Y141520D01*
X303823Y141589D01*
X303854Y141654D01*
X303859Y141706D01*
X303875Y141756D01*
X303873Y141827D01*
X303881Y141898D01*
X303870Y141949D01*
X303868Y142001D01*
X303844Y142069D01*
X303828Y142139D01*
X303802Y142184D01*
X303784Y142232D01*
X303739Y142288D01*
X303702Y142350D01*
X303663Y142384D01*
X303630Y142424D01*
X303570Y142463D01*
X303515Y142510D01*
X303467Y142529D01*
X303423Y142557D01*
X303354Y142575D01*
X303342Y142580D01*
X302259Y143662D01*
X302259Y167234D01*
X303301Y168276D01*
X310871Y168276D01*
X311913Y167234D01*
X311913Y143662D01*
X310835Y142585D01*
X310809Y142581D01*
X310745Y142547D01*
X310678Y142522D01*
X310637Y142490D01*
X310591Y142465D01*
X310542Y142413D01*
X310486Y142369D01*
X310458Y142325D01*
X310422Y142287D01*
X310392Y142222D01*
X310353Y142162D01*
X310340Y142111D01*
X310318Y142064D01*
X310311Y141993D01*
X310293Y141923D01*
X310297Y141871D01*
X310291Y141820D01*
X310307Y141749D01*
X310312Y141678D01*
X310333Y141630D01*
X310344Y141579D01*
X310380Y141518D01*
X310408Y141452D01*
X310453Y141396D01*
X310470Y141368D01*
X310488Y141353D01*
X310513Y141321D01*
X311913Y139921D01*
X311913Y135923D01*
X309085Y133095D01*
X305087Y133095D01*
X303560Y134622D01*
X303544Y134633D01*
X303532Y134649D01*
X303444Y134705D01*
X303361Y134765D01*
X303342Y134771D01*
X303325Y134782D01*
X303224Y134807D01*
X303125Y134838D01*
X303106Y134837D01*
X303086Y134842D01*
X302983Y134834D01*
X302880Y134831D01*
X302861Y134824D01*
X302841Y134823D01*
X302746Y134782D01*
X302649Y134747D01*
X302633Y134734D01*
X302615Y134726D01*
X302484Y134622D01*
X299687Y131825D01*
X295859Y131825D01*
X295788Y131814D01*
X295716Y131812D01*
X295667Y131794D01*
X295616Y131786D01*
X295553Y131752D01*
X295485Y131727D01*
X295445Y131695D01*
X295399Y131670D01*
X295349Y131619D01*
X295293Y131574D01*
X295265Y131530D01*
X295229Y131492D01*
X295199Y131427D01*
X295160Y131367D01*
X295148Y131316D01*
X295126Y131269D01*
X295118Y131198D01*
X295100Y131128D01*
X295104Y131076D01*
X295099Y131025D01*
X295114Y130954D01*
X295119Y130883D01*
X295140Y130835D01*
X295151Y130784D01*
X295188Y130723D01*
X295216Y130657D01*
X295261Y130601D01*
X295277Y130573D01*
X295295Y130558D01*
X295321Y130526D01*
X315502Y110344D01*
X315518Y110333D01*
X315531Y110317D01*
X315618Y110261D01*
X315702Y110201D01*
X315721Y110195D01*
X315738Y110184D01*
X315838Y110159D01*
X315937Y110128D01*
X315957Y110129D01*
X315976Y110124D01*
X316079Y110132D01*
X316183Y110135D01*
X316202Y110142D01*
X316221Y110143D01*
X316316Y110184D01*
X316414Y110219D01*
X316429Y110232D01*
X316448Y110239D01*
X316579Y110344D01*
X316855Y110621D01*
X324749Y110621D01*
X330331Y105039D01*
X330331Y97145D01*
X330054Y96869D01*
X330043Y96852D01*
X330027Y96840D01*
X329971Y96753D01*
X329911Y96669D01*
X329905Y96650D01*
X329894Y96633D01*
X329869Y96533D01*
X329838Y96434D01*
X329839Y96414D01*
X329834Y96395D01*
X329842Y96291D01*
X329845Y96188D01*
X329852Y96169D01*
X329853Y96149D01*
X329894Y96054D01*
X329929Y95957D01*
X329942Y95941D01*
X329949Y95923D01*
X330054Y95792D01*
X336805Y89042D01*
X336805Y81608D01*
X336816Y81537D01*
X336818Y81466D01*
X336836Y81417D01*
X336844Y81365D01*
X336878Y81302D01*
X336903Y81235D01*
X336935Y81194D01*
X336960Y81148D01*
X337012Y81099D01*
X337056Y81043D01*
X337100Y81015D01*
X337138Y80979D01*
X337203Y80948D01*
X337263Y80910D01*
X337314Y80897D01*
X337361Y80875D01*
X337432Y80867D01*
X337502Y80850D01*
X337554Y80854D01*
X337605Y80848D01*
X337676Y80863D01*
X337747Y80869D01*
X337795Y80889D01*
X337846Y80900D01*
X337907Y80937D01*
X337973Y80965D01*
X338029Y81010D01*
X338057Y81026D01*
X338072Y81044D01*
X338104Y81070D01*
X342255Y85221D01*
X350149Y85221D01*
X350425Y84944D01*
X350442Y84933D01*
X350454Y84917D01*
X350541Y84861D01*
X350625Y84801D01*
X350644Y84795D01*
X350661Y84784D01*
X350761Y84759D01*
X350860Y84728D01*
X350880Y84729D01*
X350899Y84724D01*
X351002Y84732D01*
X351106Y84735D01*
X351125Y84742D01*
X351145Y84743D01*
X351240Y84784D01*
X351337Y84819D01*
X351353Y84832D01*
X351371Y84839D01*
X351502Y84944D01*
X354360Y87803D01*
X354413Y87877D01*
X354473Y87946D01*
X354485Y87976D01*
X354504Y88002D01*
X354531Y88090D01*
X354565Y88174D01*
X354569Y88215D01*
X354576Y88237D01*
X354575Y88270D01*
X354583Y88341D01*
X354583Y93082D01*
X354572Y93153D01*
X354570Y93225D01*
X354552Y93274D01*
X354544Y93325D01*
X354510Y93388D01*
X354485Y93456D01*
X354453Y93496D01*
X354428Y93542D01*
X354376Y93592D01*
X354332Y93648D01*
X354288Y93676D01*
X354250Y93712D01*
X354185Y93742D01*
X354125Y93781D01*
X354074Y93793D01*
X354027Y93815D01*
X353956Y93823D01*
X353886Y93841D01*
X353834Y93837D01*
X353783Y93842D01*
X353712Y93827D01*
X353641Y93822D01*
X353593Y93801D01*
X353542Y93790D01*
X353481Y93753D01*
X353415Y93725D01*
X353359Y93680D01*
X353331Y93664D01*
X353316Y93646D01*
X353284Y93620D01*
X350465Y90801D01*
X347725Y90801D01*
X347725Y100330D01*
X347722Y100350D01*
X347724Y100369D01*
X347702Y100471D01*
X347685Y100573D01*
X347676Y100590D01*
X347672Y100610D01*
X347619Y100699D01*
X347570Y100790D01*
X347556Y100804D01*
X347546Y100821D01*
X347467Y100888D01*
X347392Y100959D01*
X347374Y100968D01*
X347359Y100981D01*
X347263Y101019D01*
X347169Y101063D01*
X347149Y101065D01*
X347131Y101073D01*
X346964Y101091D01*
X346201Y101091D01*
X346201Y101093D01*
X346964Y101093D01*
X346984Y101096D01*
X347003Y101094D01*
X347105Y101116D01*
X347207Y101133D01*
X347224Y101142D01*
X347244Y101146D01*
X347333Y101199D01*
X347424Y101248D01*
X347438Y101262D01*
X347455Y101272D01*
X347522Y101351D01*
X347593Y101426D01*
X347602Y101444D01*
X347615Y101459D01*
X347654Y101555D01*
X347697Y101649D01*
X347699Y101669D01*
X347707Y101687D01*
X347725Y101854D01*
X347725Y111383D01*
X350465Y111383D01*
X353284Y108564D01*
X353342Y108522D01*
X353394Y108472D01*
X353441Y108450D01*
X353483Y108420D01*
X353552Y108399D01*
X353617Y108369D01*
X353669Y108363D01*
X353719Y108348D01*
X353790Y108350D01*
X353861Y108342D01*
X353912Y108353D01*
X353964Y108354D01*
X354032Y108379D01*
X354102Y108394D01*
X354147Y108421D01*
X354195Y108438D01*
X354251Y108483D01*
X354313Y108520D01*
X354347Y108560D01*
X354387Y108592D01*
X354426Y108652D01*
X354473Y108707D01*
X354492Y108755D01*
X354520Y108799D01*
X354538Y108869D01*
X354565Y108935D01*
X354573Y109006D01*
X354581Y109038D01*
X354579Y109061D01*
X354583Y109102D01*
X354583Y209093D01*
X354569Y209183D01*
X354561Y209274D01*
X354549Y209304D01*
X354544Y209336D01*
X354501Y209416D01*
X354465Y209500D01*
X354439Y209532D01*
X354428Y209553D01*
X354405Y209575D01*
X354360Y209631D01*
X347426Y216565D01*
X347352Y216618D01*
X347283Y216678D01*
X347253Y216690D01*
X347227Y216709D01*
X347140Y216736D01*
X347055Y216770D01*
X347014Y216774D01*
X346992Y216781D01*
X346959Y216780D01*
X346888Y216788D01*
X340401Y216788D01*
X338708Y218481D01*
X338708Y219202D01*
X338705Y219222D01*
X338707Y219241D01*
X338685Y219343D01*
X338669Y219445D01*
X338659Y219462D01*
X338655Y219482D01*
X338602Y219571D01*
X338553Y219662D01*
X338539Y219676D01*
X338529Y219693D01*
X338450Y219760D01*
X338375Y219832D01*
X338357Y219840D01*
X338342Y219853D01*
X338246Y219892D01*
X338152Y219935D01*
X338132Y219937D01*
X338114Y219945D01*
X337947Y219963D01*
X325374Y219963D01*
X325354Y219960D01*
X325335Y219962D01*
X325233Y219940D01*
X325131Y219924D01*
X325114Y219914D01*
X325094Y219910D01*
X325005Y219857D01*
X324914Y219808D01*
X324900Y219794D01*
X324883Y219784D01*
X324816Y219705D01*
X324744Y219630D01*
X324736Y219612D01*
X324723Y219597D01*
X324684Y219501D01*
X324641Y219407D01*
X324639Y219387D01*
X324631Y219369D01*
X324613Y219202D01*
X324613Y210972D01*
X323571Y209930D01*
X316001Y209930D01*
X314959Y210972D01*
X314959Y234544D01*
X316001Y235586D01*
X323571Y235586D01*
X324613Y234544D01*
X324613Y226314D01*
X324616Y226294D01*
X324614Y226275D01*
X324636Y226173D01*
X324652Y226071D01*
X324662Y226054D01*
X324666Y226034D01*
X324719Y225945D01*
X324768Y225854D01*
X324782Y225840D01*
X324792Y225823D01*
X324871Y225756D01*
X324946Y225684D01*
X324964Y225676D01*
X324979Y225663D01*
X325075Y225624D01*
X325169Y225581D01*
X325189Y225579D01*
X325207Y225571D01*
X325374Y225553D01*
X337947Y225553D01*
X337967Y225556D01*
X337986Y225554D01*
X338088Y225576D01*
X338190Y225592D01*
X338207Y225602D01*
X338227Y225606D01*
X338316Y225659D01*
X338407Y225708D01*
X338421Y225722D01*
X338438Y225732D01*
X338505Y225811D01*
X338577Y225886D01*
X338585Y225904D01*
X338598Y225919D01*
X338637Y226015D01*
X338680Y226109D01*
X338682Y226129D01*
X338690Y226147D01*
X338708Y226314D01*
X338708Y227543D01*
X340401Y229236D01*
X349463Y229236D01*
X351156Y227543D01*
X351156Y221056D01*
X351170Y220966D01*
X351178Y220875D01*
X351190Y220845D01*
X351195Y220813D01*
X351238Y220733D01*
X351274Y220649D01*
X351300Y220617D01*
X351311Y220596D01*
X351334Y220574D01*
X351379Y220518D01*
X358293Y213604D01*
X358351Y213562D01*
X358403Y213512D01*
X358450Y213490D01*
X358492Y213460D01*
X358561Y213439D01*
X358626Y213409D01*
X358678Y213403D01*
X358728Y213388D01*
X358799Y213390D01*
X358870Y213382D01*
X358921Y213393D01*
X358973Y213394D01*
X359041Y213419D01*
X359111Y213434D01*
X359156Y213461D01*
X359204Y213479D01*
X359260Y213523D01*
X359322Y213560D01*
X359356Y213600D01*
X359396Y213632D01*
X359435Y213693D01*
X359482Y213747D01*
X359501Y213795D01*
X359529Y213839D01*
X359547Y213909D01*
X359574Y213975D01*
X359582Y214047D01*
X359590Y214078D01*
X359588Y214101D01*
X359592Y214142D01*
X359592Y315057D01*
X359590Y315069D01*
X359591Y315076D01*
X359585Y315107D01*
X359586Y315153D01*
X359565Y315225D01*
X359553Y315300D01*
X359530Y315343D01*
X359516Y315389D01*
X359473Y315451D01*
X359437Y315518D01*
X359403Y315551D01*
X359375Y315590D01*
X359314Y315635D01*
X359259Y315687D01*
X359216Y315707D01*
X359177Y315736D01*
X359105Y315759D01*
X359036Y315791D01*
X358988Y315796D01*
X358943Y315811D01*
X358867Y315809D01*
X358792Y315818D01*
X358745Y315808D01*
X358697Y315807D01*
X358625Y315782D01*
X358551Y315765D01*
X358510Y315741D01*
X358465Y315725D01*
X358405Y315678D01*
X358340Y315639D01*
X358309Y315603D01*
X358271Y315573D01*
X358197Y315473D01*
X358189Y315465D01*
X358188Y315461D01*
X358180Y315452D01*
X358178Y315446D01*
X358172Y315438D01*
X358075Y315270D01*
X349992Y308488D01*
X340076Y304879D01*
X329524Y304879D01*
X319608Y308488D01*
X311525Y315270D01*
X306249Y324408D01*
X304417Y334800D01*
X306249Y345192D01*
X311525Y354330D01*
X316195Y358248D01*
X316263Y358327D01*
X316335Y358403D01*
X316343Y358420D01*
X316355Y358434D01*
X316394Y358531D01*
X316438Y358626D01*
X316440Y358645D01*
X316448Y358662D01*
X316454Y358767D01*
X316465Y358870D01*
X316461Y358889D01*
X316463Y358908D01*
X316435Y359008D01*
X316413Y359111D01*
X316403Y359127D01*
X316399Y359145D01*
X316341Y359232D01*
X316287Y359322D01*
X316273Y359334D01*
X316262Y359350D01*
X316180Y359414D01*
X316100Y359482D01*
X316083Y359489D01*
X316068Y359500D01*
X315969Y359535D01*
X315872Y359574D01*
X315849Y359576D01*
X315835Y359581D01*
X315803Y359581D01*
X315705Y359592D01*
X49095Y359592D01*
X48992Y359575D01*
X48888Y359564D01*
X48871Y359556D01*
X48852Y359553D01*
X48760Y359504D01*
X48665Y359459D01*
X48651Y359446D01*
X48635Y359437D01*
X48563Y359362D01*
X48487Y359289D01*
X48478Y359273D01*
X48465Y359259D01*
X48421Y359164D01*
X48373Y359072D01*
X48370Y359053D01*
X48362Y359036D01*
X48350Y358932D01*
X48334Y358829D01*
X48337Y358810D01*
X48335Y358792D01*
X48357Y358690D01*
X48374Y358586D01*
X48383Y358570D01*
X48387Y358551D01*
X48441Y358461D01*
X48490Y358369D01*
X48506Y358352D01*
X48513Y358340D01*
X48537Y358319D01*
X48605Y358248D01*
X53275Y354330D01*
X58551Y345192D01*
X60383Y334800D01*
X58551Y324408D01*
X53275Y315270D01*
X45192Y308488D01*
X35276Y304879D01*
X24724Y304879D01*
X14808Y308488D01*
X6725Y315270D01*
X6628Y315438D01*
X6598Y315475D01*
X6575Y315518D01*
X6521Y315570D01*
X6472Y315628D01*
X6432Y315654D01*
X6397Y315687D01*
X6328Y315719D01*
X6264Y315759D01*
X6218Y315770D01*
X6174Y315791D01*
X6099Y315799D01*
X6025Y315817D01*
X5977Y315812D01*
X5930Y315818D01*
X5855Y315802D01*
X5780Y315795D01*
X5736Y315776D01*
X5689Y315765D01*
X5624Y315727D01*
X5555Y315696D01*
X5519Y315664D01*
X5478Y315639D01*
X5429Y315582D01*
X5373Y315531D01*
X5349Y315489D01*
X5318Y315452D01*
X5290Y315382D01*
X5253Y315316D01*
X5244Y315269D01*
X5226Y315224D01*
X5212Y315096D01*
X5208Y315074D01*
X5209Y315068D01*
X5208Y315057D01*
X5208Y49743D01*
X5215Y49695D01*
X5214Y49647D01*
X5235Y49575D01*
X5247Y49500D01*
X5270Y49457D01*
X5284Y49411D01*
X5327Y49349D01*
X5363Y49282D01*
X5397Y49249D01*
X5425Y49210D01*
X5486Y49165D01*
X5541Y49113D01*
X5584Y49093D01*
X5623Y49064D01*
X5695Y49041D01*
X5764Y49009D01*
X5812Y49004D01*
X5857Y48989D01*
X5933Y48991D01*
X6008Y48982D01*
X6055Y48992D01*
X6103Y48993D01*
X6175Y49018D01*
X6249Y49035D01*
X6290Y49059D01*
X6335Y49075D01*
X6395Y49122D01*
X6460Y49161D01*
X6491Y49197D01*
X6529Y49227D01*
X6605Y49330D01*
X6620Y49348D01*
X6622Y49354D01*
X6628Y49362D01*
X6725Y49530D01*
X14808Y56312D01*
X24724Y59921D01*
X35276Y59921D01*
X45192Y56312D01*
X53275Y49530D01*
X58551Y40392D01*
X60383Y30000D01*
X58551Y19608D01*
X53275Y10470D01*
X48605Y6552D01*
X48537Y6473D01*
X48465Y6397D01*
X48457Y6380D01*
X48445Y6366D01*
X48406Y6269D01*
X48362Y6174D01*
X48360Y6155D01*
X48352Y6138D01*
X48346Y6033D01*
X48335Y5930D01*
X48339Y5911D01*
X48337Y5892D01*
X48365Y5792D01*
X48387Y5689D01*
X48397Y5673D01*
X48401Y5655D01*
X48459Y5568D01*
X48513Y5478D01*
X48527Y5466D01*
X48538Y5450D01*
X48620Y5386D01*
X48700Y5318D01*
X48717Y5311D01*
X48732Y5300D01*
X48831Y5265D01*
X48928Y5226D01*
X48951Y5224D01*
X48965Y5219D01*
X48997Y5219D01*
X49095Y5208D01*
X85098Y5208D01*
X85118Y5211D01*
G37*
%LPC*%
G36*
X256835Y255904D02*
X256835Y255904D01*
X255142Y257597D01*
X255142Y266659D01*
X256835Y268352D01*
X257302Y268352D01*
X257322Y268355D01*
X257341Y268353D01*
X257443Y268375D01*
X257545Y268391D01*
X257562Y268401D01*
X257582Y268405D01*
X257671Y268458D01*
X257762Y268507D01*
X257776Y268521D01*
X257793Y268531D01*
X257860Y268610D01*
X257932Y268685D01*
X257940Y268703D01*
X257953Y268718D01*
X257992Y268814D01*
X258035Y268908D01*
X258037Y268928D01*
X258045Y268946D01*
X258063Y269113D01*
X258063Y269875D01*
X258060Y269895D01*
X258062Y269914D01*
X258040Y270016D01*
X258024Y270118D01*
X258014Y270135D01*
X258010Y270155D01*
X257957Y270244D01*
X257908Y270335D01*
X257894Y270349D01*
X257884Y270366D01*
X257805Y270433D01*
X257730Y270505D01*
X257712Y270513D01*
X257697Y270526D01*
X257601Y270565D01*
X257507Y270608D01*
X257487Y270610D01*
X257469Y270618D01*
X257302Y270636D01*
X256835Y270636D01*
X255142Y272329D01*
X255142Y272796D01*
X255139Y272816D01*
X255141Y272835D01*
X255119Y272937D01*
X255103Y273039D01*
X255093Y273056D01*
X255089Y273076D01*
X255036Y273165D01*
X254987Y273256D01*
X254973Y273270D01*
X254963Y273287D01*
X254884Y273354D01*
X254809Y273426D01*
X254791Y273434D01*
X254776Y273447D01*
X254680Y273486D01*
X254586Y273529D01*
X254566Y273531D01*
X254548Y273539D01*
X254381Y273557D01*
X244252Y273557D01*
X244162Y273543D01*
X244071Y273535D01*
X244041Y273523D01*
X244009Y273518D01*
X243929Y273475D01*
X243845Y273439D01*
X243813Y273413D01*
X243792Y273402D01*
X243770Y273379D01*
X243714Y273334D01*
X242461Y272081D01*
X218987Y272081D01*
X217734Y273334D01*
X217660Y273387D01*
X217591Y273447D01*
X217561Y273459D01*
X217534Y273478D01*
X217447Y273505D01*
X217363Y273539D01*
X217322Y273543D01*
X217299Y273550D01*
X217267Y273549D01*
X217196Y273557D01*
X210468Y273557D01*
X197103Y286922D01*
X197103Y321913D01*
X197102Y321922D01*
X197102Y321927D01*
X197097Y321952D01*
X197089Y322003D01*
X197081Y322094D01*
X197069Y322123D01*
X197064Y322155D01*
X197021Y322236D01*
X196985Y322320D01*
X196959Y322352D01*
X196948Y322373D01*
X196925Y322395D01*
X196880Y322451D01*
X186053Y333278D01*
X185979Y333331D01*
X185910Y333391D01*
X185879Y333403D01*
X185853Y333422D01*
X185766Y333449D01*
X185681Y333483D01*
X185640Y333487D01*
X185618Y333494D01*
X185586Y333493D01*
X185515Y333501D01*
X170794Y333501D01*
X170704Y333487D01*
X170613Y333479D01*
X170583Y333467D01*
X170551Y333462D01*
X170471Y333419D01*
X170387Y333383D01*
X170355Y333357D01*
X170334Y333346D01*
X170312Y333323D01*
X170256Y333278D01*
X169503Y332525D01*
X161029Y332525D01*
X160304Y333250D01*
X160288Y333262D01*
X160276Y333277D01*
X160188Y333333D01*
X160105Y333394D01*
X160086Y333400D01*
X160069Y333410D01*
X159968Y333436D01*
X159869Y333466D01*
X159850Y333466D01*
X159830Y333470D01*
X159727Y333462D01*
X159624Y333460D01*
X159605Y333453D01*
X159585Y333451D01*
X159490Y333411D01*
X159393Y333375D01*
X159377Y333363D01*
X159359Y333355D01*
X159228Y333250D01*
X158503Y332525D01*
X154973Y332525D01*
X154883Y332511D01*
X154792Y332503D01*
X154762Y332491D01*
X154731Y332486D01*
X154650Y332443D01*
X154566Y332407D01*
X154534Y332381D01*
X154513Y332370D01*
X154491Y332347D01*
X154435Y332302D01*
X153545Y331412D01*
X153503Y331354D01*
X153454Y331302D01*
X153432Y331255D01*
X153401Y331213D01*
X153380Y331144D01*
X153350Y331079D01*
X153344Y331027D01*
X153329Y330977D01*
X153331Y330906D01*
X153323Y330835D01*
X153334Y330784D01*
X153335Y330732D01*
X153360Y330664D01*
X153375Y330594D01*
X153402Y330549D01*
X153420Y330501D01*
X153465Y330445D01*
X153502Y330383D01*
X153541Y330349D01*
X153574Y330309D01*
X153634Y330270D01*
X153688Y330223D01*
X153737Y330204D01*
X153781Y330176D01*
X153850Y330158D01*
X153917Y330131D01*
X153988Y330123D01*
X154019Y330115D01*
X154042Y330117D01*
X154083Y330113D01*
X159190Y330113D01*
X169341Y319962D01*
X169415Y319909D01*
X169484Y319849D01*
X169515Y319837D01*
X169541Y319818D01*
X169628Y319791D01*
X169713Y319757D01*
X169754Y319753D01*
X169776Y319746D01*
X169808Y319747D01*
X169879Y319739D01*
X190461Y319739D01*
X191503Y318697D01*
X191503Y311223D01*
X190461Y310181D01*
X166987Y310181D01*
X165945Y311223D01*
X165945Y313701D01*
X165931Y313791D01*
X165923Y313882D01*
X165911Y313911D01*
X165906Y313943D01*
X165863Y314024D01*
X165827Y314108D01*
X165801Y314140D01*
X165790Y314161D01*
X165767Y314183D01*
X165722Y314239D01*
X156677Y323284D01*
X156603Y323337D01*
X156534Y323397D01*
X156503Y323409D01*
X156477Y323428D01*
X156390Y323455D01*
X156305Y323489D01*
X156264Y323493D01*
X156242Y323500D01*
X156210Y323499D01*
X156139Y323507D01*
X151852Y323507D01*
X151832Y323504D01*
X151813Y323506D01*
X151711Y323484D01*
X151609Y323468D01*
X151592Y323458D01*
X151572Y323454D01*
X151483Y323401D01*
X151392Y323352D01*
X151378Y323338D01*
X151361Y323328D01*
X151294Y323249D01*
X151222Y323174D01*
X151214Y323156D01*
X151201Y323141D01*
X151162Y323045D01*
X151119Y322951D01*
X151117Y322931D01*
X151109Y322913D01*
X151091Y322746D01*
X151091Y322573D01*
X150366Y321848D01*
X150354Y321832D01*
X150339Y321820D01*
X150283Y321732D01*
X150222Y321649D01*
X150216Y321630D01*
X150206Y321613D01*
X150180Y321512D01*
X150150Y321413D01*
X150150Y321394D01*
X150146Y321374D01*
X150154Y321271D01*
X150156Y321168D01*
X150163Y321149D01*
X150165Y321129D01*
X150205Y321034D01*
X150241Y320937D01*
X150253Y320921D01*
X150261Y320903D01*
X150366Y320772D01*
X151091Y320047D01*
X151091Y311573D01*
X150338Y310820D01*
X150285Y310746D01*
X150225Y310677D01*
X150213Y310647D01*
X150194Y310620D01*
X150167Y310533D01*
X150133Y310449D01*
X150129Y310408D01*
X150122Y310385D01*
X150123Y310353D01*
X150115Y310282D01*
X150115Y307245D01*
X150129Y307155D01*
X150137Y307064D01*
X150149Y307035D01*
X150154Y307003D01*
X150197Y306922D01*
X150233Y306838D01*
X150259Y306806D01*
X150270Y306785D01*
X150293Y306763D01*
X150338Y306707D01*
X151259Y305786D01*
X151333Y305733D01*
X151402Y305673D01*
X151433Y305661D01*
X151459Y305642D01*
X151546Y305615D01*
X151631Y305581D01*
X151672Y305577D01*
X151694Y305570D01*
X151726Y305571D01*
X151797Y305563D01*
X165196Y305563D01*
X165286Y305577D01*
X165377Y305585D01*
X165407Y305597D01*
X165439Y305602D01*
X165519Y305645D01*
X165603Y305681D01*
X165635Y305707D01*
X165656Y305718D01*
X165678Y305741D01*
X165734Y305786D01*
X166987Y307039D01*
X190461Y307039D01*
X191503Y305997D01*
X191503Y298523D01*
X190461Y297481D01*
X166987Y297481D01*
X165734Y298734D01*
X165660Y298787D01*
X165591Y298847D01*
X165561Y298859D01*
X165534Y298878D01*
X165447Y298905D01*
X165363Y298939D01*
X165322Y298943D01*
X165299Y298950D01*
X165267Y298949D01*
X165196Y298957D01*
X146177Y298957D01*
X146157Y298954D01*
X146138Y298956D01*
X146036Y298934D01*
X145934Y298918D01*
X145917Y298908D01*
X145897Y298904D01*
X145808Y298851D01*
X145717Y298802D01*
X145703Y298788D01*
X145686Y298778D01*
X145619Y298699D01*
X145547Y298624D01*
X145539Y298606D01*
X145526Y298591D01*
X145487Y298495D01*
X145444Y298401D01*
X145442Y298381D01*
X145434Y298363D01*
X145416Y298196D01*
X145416Y295189D01*
X144389Y294162D01*
X144347Y294104D01*
X144298Y294052D01*
X144276Y294005D01*
X144245Y293963D01*
X144224Y293894D01*
X144194Y293829D01*
X144188Y293777D01*
X144173Y293727D01*
X144175Y293656D01*
X144167Y293585D01*
X144178Y293534D01*
X144179Y293482D01*
X144204Y293414D01*
X144219Y293344D01*
X144246Y293299D01*
X144264Y293251D01*
X144309Y293195D01*
X144345Y293133D01*
X144385Y293099D01*
X144417Y293059D01*
X144478Y293020D01*
X144532Y292973D01*
X144581Y292954D01*
X144624Y292926D01*
X144694Y292908D01*
X144760Y292881D01*
X144832Y292873D01*
X144863Y292865D01*
X144886Y292867D01*
X144927Y292863D01*
X165196Y292863D01*
X165286Y292877D01*
X165377Y292885D01*
X165407Y292897D01*
X165439Y292902D01*
X165519Y292945D01*
X165603Y292981D01*
X165635Y293007D01*
X165656Y293018D01*
X165678Y293041D01*
X165734Y293086D01*
X166987Y294339D01*
X190461Y294339D01*
X191503Y293297D01*
X191503Y285823D01*
X190461Y284781D01*
X166987Y284781D01*
X165734Y286034D01*
X165660Y286087D01*
X165591Y286147D01*
X165561Y286159D01*
X165534Y286178D01*
X165447Y286205D01*
X165363Y286239D01*
X165322Y286243D01*
X165299Y286250D01*
X165267Y286249D01*
X165196Y286257D01*
X146177Y286257D01*
X146157Y286254D01*
X146138Y286256D01*
X146036Y286234D01*
X145934Y286218D01*
X145917Y286208D01*
X145897Y286204D01*
X145808Y286151D01*
X145717Y286102D01*
X145703Y286088D01*
X145686Y286078D01*
X145619Y285999D01*
X145547Y285924D01*
X145539Y285906D01*
X145526Y285891D01*
X145487Y285795D01*
X145444Y285701D01*
X145442Y285681D01*
X145434Y285663D01*
X145416Y285496D01*
X145416Y280457D01*
X143723Y278764D01*
X143256Y278764D01*
X143236Y278761D01*
X143217Y278763D01*
X143115Y278741D01*
X143013Y278725D01*
X142996Y278715D01*
X142976Y278711D01*
X142887Y278658D01*
X142796Y278609D01*
X142782Y278595D01*
X142765Y278585D01*
X142698Y278506D01*
X142626Y278431D01*
X142618Y278413D01*
X142605Y278398D01*
X142566Y278302D01*
X142523Y278208D01*
X142521Y278188D01*
X142513Y278170D01*
X142495Y278003D01*
X142495Y277241D01*
X142498Y277221D01*
X142496Y277202D01*
X142518Y277100D01*
X142534Y276998D01*
X142544Y276981D01*
X142548Y276961D01*
X142601Y276872D01*
X142650Y276781D01*
X142664Y276767D01*
X142674Y276750D01*
X142753Y276683D01*
X142828Y276611D01*
X142846Y276603D01*
X142861Y276590D01*
X142957Y276551D01*
X143051Y276508D01*
X143071Y276506D01*
X143089Y276498D01*
X143256Y276480D01*
X143723Y276480D01*
X145416Y274787D01*
X145416Y265725D01*
X143723Y264032D01*
X134661Y264032D01*
X132968Y265725D01*
X132968Y274787D01*
X134661Y276480D01*
X135128Y276480D01*
X135148Y276483D01*
X135167Y276481D01*
X135269Y276503D01*
X135371Y276519D01*
X135388Y276529D01*
X135408Y276533D01*
X135497Y276586D01*
X135588Y276635D01*
X135602Y276649D01*
X135619Y276659D01*
X135686Y276738D01*
X135758Y276813D01*
X135766Y276831D01*
X135779Y276846D01*
X135818Y276942D01*
X135861Y277036D01*
X135863Y277056D01*
X135871Y277074D01*
X135889Y277241D01*
X135889Y278003D01*
X135886Y278023D01*
X135888Y278042D01*
X135866Y278144D01*
X135850Y278246D01*
X135840Y278263D01*
X135836Y278283D01*
X135783Y278372D01*
X135734Y278463D01*
X135720Y278477D01*
X135710Y278494D01*
X135631Y278561D01*
X135556Y278633D01*
X135538Y278641D01*
X135523Y278654D01*
X135427Y278693D01*
X135333Y278736D01*
X135313Y278738D01*
X135295Y278746D01*
X135128Y278764D01*
X134661Y278764D01*
X132968Y280457D01*
X132968Y289519D01*
X134661Y291212D01*
X140430Y291212D01*
X140520Y291226D01*
X140611Y291234D01*
X140640Y291246D01*
X140672Y291251D01*
X140753Y291294D01*
X140837Y291330D01*
X140869Y291356D01*
X140890Y291367D01*
X140912Y291390D01*
X140968Y291435D01*
X141730Y292197D01*
X141772Y292255D01*
X141821Y292307D01*
X141843Y292354D01*
X141874Y292396D01*
X141895Y292465D01*
X141925Y292530D01*
X141931Y292582D01*
X141946Y292632D01*
X141944Y292703D01*
X141952Y292774D01*
X141941Y292825D01*
X141940Y292877D01*
X141915Y292945D01*
X141900Y293015D01*
X141873Y293060D01*
X141855Y293108D01*
X141810Y293164D01*
X141773Y293226D01*
X141734Y293260D01*
X141701Y293300D01*
X141641Y293339D01*
X141587Y293386D01*
X141538Y293405D01*
X141494Y293433D01*
X141425Y293451D01*
X141358Y293478D01*
X141287Y293486D01*
X141256Y293494D01*
X141233Y293492D01*
X141192Y293496D01*
X134661Y293496D01*
X132968Y295189D01*
X132968Y304251D01*
X134661Y305944D01*
X141700Y305944D01*
X141790Y305958D01*
X141881Y305966D01*
X141910Y305978D01*
X141942Y305983D01*
X142023Y306026D01*
X142107Y306062D01*
X142139Y306088D01*
X142160Y306099D01*
X142182Y306122D01*
X142238Y306167D01*
X143286Y307215D01*
X143339Y307289D01*
X143399Y307358D01*
X143411Y307389D01*
X143430Y307415D01*
X143457Y307502D01*
X143491Y307587D01*
X143495Y307628D01*
X143502Y307650D01*
X143501Y307682D01*
X143509Y307753D01*
X143509Y310282D01*
X143495Y310372D01*
X143487Y310463D01*
X143475Y310493D01*
X143470Y310525D01*
X143427Y310605D01*
X143391Y310689D01*
X143365Y310721D01*
X143354Y310742D01*
X143331Y310764D01*
X143286Y310820D01*
X142533Y311573D01*
X142533Y311746D01*
X142530Y311766D01*
X142532Y311785D01*
X142510Y311887D01*
X142494Y311989D01*
X142484Y312006D01*
X142480Y312026D01*
X142427Y312115D01*
X142378Y312206D01*
X142364Y312220D01*
X142354Y312237D01*
X142275Y312304D01*
X142200Y312376D01*
X142182Y312384D01*
X142167Y312397D01*
X142071Y312436D01*
X141977Y312479D01*
X141957Y312481D01*
X141939Y312489D01*
X141772Y312507D01*
X138919Y312507D01*
X138829Y312493D01*
X138738Y312485D01*
X138708Y312473D01*
X138676Y312468D01*
X138596Y312425D01*
X138512Y312389D01*
X138480Y312363D01*
X138459Y312352D01*
X138437Y312329D01*
X138381Y312284D01*
X137373Y311276D01*
X128311Y311276D01*
X126618Y312969D01*
X126618Y313436D01*
X126615Y313456D01*
X126617Y313475D01*
X126595Y313577D01*
X126579Y313679D01*
X126569Y313696D01*
X126565Y313716D01*
X126512Y313805D01*
X126463Y313896D01*
X126449Y313910D01*
X126439Y313927D01*
X126360Y313994D01*
X126285Y314066D01*
X126267Y314074D01*
X126252Y314087D01*
X126156Y314126D01*
X126062Y314169D01*
X126042Y314171D01*
X126024Y314179D01*
X125857Y314197D01*
X124841Y314197D01*
X124821Y314194D01*
X124802Y314196D01*
X124700Y314174D01*
X124598Y314158D01*
X124581Y314148D01*
X124561Y314144D01*
X124472Y314091D01*
X124381Y314042D01*
X124367Y314028D01*
X124350Y314018D01*
X124283Y313939D01*
X124211Y313864D01*
X124203Y313846D01*
X124190Y313831D01*
X124151Y313735D01*
X124108Y313641D01*
X124106Y313621D01*
X124098Y313603D01*
X124080Y313436D01*
X124080Y312969D01*
X122387Y311276D01*
X113325Y311276D01*
X111632Y312969D01*
X111632Y322031D01*
X113325Y323724D01*
X122387Y323724D01*
X124080Y322031D01*
X124080Y321564D01*
X124083Y321544D01*
X124081Y321525D01*
X124103Y321423D01*
X124119Y321321D01*
X124129Y321304D01*
X124133Y321284D01*
X124186Y321195D01*
X124235Y321104D01*
X124249Y321090D01*
X124259Y321073D01*
X124338Y321006D01*
X124413Y320934D01*
X124431Y320926D01*
X124446Y320913D01*
X124542Y320874D01*
X124636Y320831D01*
X124656Y320829D01*
X124674Y320821D01*
X124841Y320803D01*
X125857Y320803D01*
X125877Y320806D01*
X125896Y320804D01*
X125998Y320826D01*
X126100Y320842D01*
X126117Y320852D01*
X126137Y320856D01*
X126226Y320909D01*
X126317Y320958D01*
X126331Y320972D01*
X126348Y320982D01*
X126415Y321061D01*
X126487Y321136D01*
X126495Y321154D01*
X126508Y321169D01*
X126547Y321265D01*
X126590Y321359D01*
X126592Y321379D01*
X126600Y321397D01*
X126618Y321564D01*
X126618Y322031D01*
X128311Y323724D01*
X137373Y323724D01*
X139066Y322031D01*
X139066Y319874D01*
X139069Y319854D01*
X139067Y319835D01*
X139089Y319733D01*
X139105Y319631D01*
X139115Y319614D01*
X139119Y319594D01*
X139172Y319505D01*
X139221Y319414D01*
X139235Y319400D01*
X139245Y319383D01*
X139324Y319316D01*
X139399Y319244D01*
X139417Y319236D01*
X139432Y319223D01*
X139528Y319184D01*
X139622Y319141D01*
X139642Y319139D01*
X139660Y319131D01*
X139827Y319113D01*
X141772Y319113D01*
X141792Y319116D01*
X141811Y319114D01*
X141913Y319136D01*
X142015Y319152D01*
X142032Y319162D01*
X142052Y319166D01*
X142141Y319219D01*
X142232Y319268D01*
X142246Y319282D01*
X142263Y319292D01*
X142330Y319371D01*
X142402Y319446D01*
X142410Y319464D01*
X142423Y319479D01*
X142462Y319575D01*
X142505Y319669D01*
X142507Y319689D01*
X142515Y319707D01*
X142533Y319874D01*
X142533Y320047D01*
X143258Y320772D01*
X143270Y320788D01*
X143285Y320800D01*
X143341Y320888D01*
X143402Y320971D01*
X143408Y320990D01*
X143418Y321007D01*
X143444Y321108D01*
X143474Y321207D01*
X143474Y321226D01*
X143478Y321246D01*
X143470Y321349D01*
X143468Y321452D01*
X143461Y321471D01*
X143459Y321491D01*
X143419Y321586D01*
X143383Y321683D01*
X143371Y321699D01*
X143363Y321717D01*
X143258Y321848D01*
X142533Y322573D01*
X142533Y331047D01*
X143575Y332089D01*
X144565Y332089D01*
X144655Y332103D01*
X144746Y332111D01*
X144775Y332123D01*
X144807Y332128D01*
X144888Y332171D01*
X144972Y332207D01*
X145004Y332233D01*
X145025Y332244D01*
X145047Y332267D01*
X145103Y332312D01*
X148764Y335973D01*
X148817Y336047D01*
X148877Y336116D01*
X148889Y336147D01*
X148908Y336173D01*
X148935Y336260D01*
X148969Y336345D01*
X148973Y336386D01*
X148980Y336408D01*
X148979Y336440D01*
X148987Y336511D01*
X148987Y340041D01*
X149276Y340330D01*
X149318Y340388D01*
X149367Y340440D01*
X149389Y340487D01*
X149420Y340529D01*
X149441Y340598D01*
X149471Y340663D01*
X149477Y340715D01*
X149492Y340765D01*
X149490Y340836D01*
X149498Y340907D01*
X149487Y340958D01*
X149486Y341010D01*
X149461Y341078D01*
X149446Y341148D01*
X149419Y341193D01*
X149401Y341241D01*
X149357Y341297D01*
X149320Y341359D01*
X149280Y341393D01*
X149248Y341433D01*
X149187Y341472D01*
X149133Y341519D01*
X149084Y341538D01*
X149041Y341566D01*
X148971Y341584D01*
X148905Y341611D01*
X148833Y341619D01*
X148802Y341627D01*
X148779Y341625D01*
X148738Y341629D01*
X146717Y341629D01*
X146627Y341615D01*
X146536Y341607D01*
X146507Y341595D01*
X146475Y341590D01*
X146394Y341547D01*
X146310Y341511D01*
X146278Y341485D01*
X146257Y341474D01*
X146235Y341451D01*
X146179Y341406D01*
X139289Y334516D01*
X139236Y334442D01*
X139176Y334373D01*
X139164Y334342D01*
X139145Y334316D01*
X139118Y334229D01*
X139084Y334144D01*
X139080Y334103D01*
X139073Y334081D01*
X139074Y334049D01*
X139066Y333978D01*
X139066Y328209D01*
X137373Y326516D01*
X128311Y326516D01*
X126618Y328209D01*
X126618Y328676D01*
X126615Y328696D01*
X126617Y328715D01*
X126595Y328817D01*
X126579Y328919D01*
X126569Y328936D01*
X126565Y328956D01*
X126512Y329045D01*
X126463Y329136D01*
X126449Y329150D01*
X126439Y329167D01*
X126360Y329234D01*
X126285Y329306D01*
X126267Y329314D01*
X126252Y329327D01*
X126156Y329366D01*
X126062Y329409D01*
X126042Y329411D01*
X126024Y329419D01*
X125857Y329437D01*
X124841Y329437D01*
X124821Y329434D01*
X124802Y329436D01*
X124700Y329414D01*
X124598Y329398D01*
X124581Y329388D01*
X124561Y329384D01*
X124472Y329331D01*
X124381Y329282D01*
X124367Y329268D01*
X124350Y329258D01*
X124283Y329179D01*
X124211Y329104D01*
X124203Y329086D01*
X124190Y329071D01*
X124151Y328975D01*
X124108Y328881D01*
X124106Y328861D01*
X124098Y328843D01*
X124080Y328676D01*
X124080Y328209D01*
X122387Y326516D01*
X113325Y326516D01*
X111632Y328209D01*
X111632Y337271D01*
X113325Y338964D01*
X122387Y338964D01*
X124080Y337271D01*
X124080Y336804D01*
X124083Y336784D01*
X124081Y336765D01*
X124103Y336663D01*
X124119Y336561D01*
X124129Y336544D01*
X124133Y336524D01*
X124186Y336435D01*
X124235Y336344D01*
X124249Y336330D01*
X124259Y336313D01*
X124338Y336246D01*
X124413Y336174D01*
X124431Y336166D01*
X124446Y336153D01*
X124542Y336114D01*
X124636Y336071D01*
X124656Y336069D01*
X124674Y336061D01*
X124841Y336043D01*
X125857Y336043D01*
X125877Y336046D01*
X125896Y336044D01*
X125998Y336066D01*
X126100Y336082D01*
X126117Y336092D01*
X126137Y336096D01*
X126226Y336149D01*
X126317Y336198D01*
X126331Y336212D01*
X126348Y336222D01*
X126415Y336301D01*
X126487Y336376D01*
X126495Y336394D01*
X126508Y336409D01*
X126547Y336505D01*
X126590Y336599D01*
X126592Y336619D01*
X126600Y336637D01*
X126618Y336804D01*
X126618Y337271D01*
X128311Y338964D01*
X134080Y338964D01*
X134170Y338978D01*
X134261Y338986D01*
X134290Y338998D01*
X134322Y339003D01*
X134403Y339046D01*
X134487Y339082D01*
X134519Y339108D01*
X134540Y339119D01*
X134562Y339142D01*
X134618Y339187D01*
X141508Y346077D01*
X143666Y348235D01*
X158506Y348235D01*
X160664Y346077D01*
X165435Y341306D01*
X165509Y341253D01*
X165578Y341193D01*
X165609Y341181D01*
X165635Y341162D01*
X165722Y341135D01*
X165807Y341101D01*
X165848Y341097D01*
X165870Y341090D01*
X165902Y341091D01*
X165973Y341083D01*
X169503Y341083D01*
X170256Y340330D01*
X170330Y340277D01*
X170399Y340217D01*
X170429Y340205D01*
X170456Y340186D01*
X170543Y340159D01*
X170627Y340125D01*
X170668Y340121D01*
X170691Y340114D01*
X170723Y340115D01*
X170794Y340107D01*
X188566Y340107D01*
X203709Y324964D01*
X203709Y289973D01*
X203723Y289883D01*
X203731Y289792D01*
X203743Y289763D01*
X203748Y289731D01*
X203791Y289650D01*
X203827Y289566D01*
X203853Y289534D01*
X203864Y289513D01*
X203887Y289491D01*
X203932Y289435D01*
X212981Y280386D01*
X213055Y280333D01*
X213124Y280273D01*
X213155Y280261D01*
X213181Y280242D01*
X213268Y280215D01*
X213353Y280181D01*
X213394Y280177D01*
X213416Y280170D01*
X213448Y280171D01*
X213519Y280163D01*
X217196Y280163D01*
X217286Y280177D01*
X217377Y280185D01*
X217407Y280197D01*
X217439Y280202D01*
X217519Y280245D01*
X217603Y280281D01*
X217635Y280307D01*
X217656Y280318D01*
X217678Y280341D01*
X217734Y280386D01*
X218987Y281639D01*
X242461Y281639D01*
X243714Y280386D01*
X243788Y280333D01*
X243857Y280273D01*
X243887Y280261D01*
X243914Y280242D01*
X244001Y280215D01*
X244085Y280181D01*
X244126Y280177D01*
X244149Y280170D01*
X244181Y280171D01*
X244252Y280163D01*
X254381Y280163D01*
X254401Y280166D01*
X254420Y280164D01*
X254522Y280186D01*
X254624Y280202D01*
X254641Y280212D01*
X254661Y280216D01*
X254750Y280269D01*
X254841Y280318D01*
X254855Y280332D01*
X254872Y280342D01*
X254939Y280421D01*
X255011Y280496D01*
X255019Y280514D01*
X255032Y280529D01*
X255071Y280625D01*
X255114Y280719D01*
X255116Y280739D01*
X255124Y280757D01*
X255142Y280924D01*
X255142Y281391D01*
X256835Y283084D01*
X265897Y283084D01*
X267590Y281391D01*
X267590Y272329D01*
X265897Y270636D01*
X265430Y270636D01*
X265410Y270633D01*
X265391Y270635D01*
X265289Y270613D01*
X265187Y270597D01*
X265170Y270587D01*
X265150Y270583D01*
X265061Y270530D01*
X264970Y270481D01*
X264956Y270467D01*
X264939Y270457D01*
X264872Y270378D01*
X264800Y270303D01*
X264792Y270285D01*
X264779Y270270D01*
X264740Y270174D01*
X264697Y270080D01*
X264695Y270060D01*
X264687Y270042D01*
X264669Y269875D01*
X264669Y269113D01*
X264672Y269093D01*
X264670Y269074D01*
X264692Y268972D01*
X264708Y268870D01*
X264718Y268853D01*
X264722Y268833D01*
X264775Y268744D01*
X264824Y268653D01*
X264838Y268639D01*
X264848Y268622D01*
X264927Y268555D01*
X265002Y268483D01*
X265020Y268475D01*
X265035Y268462D01*
X265131Y268423D01*
X265225Y268380D01*
X265245Y268378D01*
X265263Y268370D01*
X265430Y268352D01*
X265897Y268352D01*
X267590Y266659D01*
X267590Y257597D01*
X265897Y255904D01*
X256835Y255904D01*
G37*
%LPD*%
%LPC*%
G36*
X150542Y147065D02*
X150542Y147065D01*
X149895Y147238D01*
X149316Y147573D01*
X148821Y148068D01*
X148778Y148121D01*
X148703Y148214D01*
X148699Y148217D01*
X148697Y148220D01*
X148596Y148283D01*
X148496Y148347D01*
X148492Y148348D01*
X148488Y148351D01*
X148372Y148379D01*
X148257Y148408D01*
X148253Y148407D01*
X148249Y148408D01*
X148130Y148398D01*
X148012Y148388D01*
X148008Y148387D01*
X148004Y148386D01*
X147895Y148338D01*
X147786Y148292D01*
X147782Y148289D01*
X147779Y148288D01*
X147769Y148278D01*
X147655Y148187D01*
X147295Y147827D01*
X140741Y147827D01*
X139699Y148869D01*
X139699Y160503D01*
X140492Y161296D01*
X140545Y161370D01*
X140605Y161439D01*
X140617Y161469D01*
X140636Y161496D01*
X140663Y161583D01*
X140697Y161667D01*
X140701Y161708D01*
X140708Y161731D01*
X140707Y161763D01*
X140715Y161834D01*
X140715Y167259D01*
X140712Y167279D01*
X140714Y167298D01*
X140692Y167400D01*
X140676Y167502D01*
X140666Y167519D01*
X140662Y167539D01*
X140609Y167628D01*
X140560Y167719D01*
X140546Y167733D01*
X140536Y167750D01*
X140457Y167817D01*
X140382Y167889D01*
X140364Y167897D01*
X140349Y167910D01*
X140253Y167949D01*
X140159Y167992D01*
X140139Y167994D01*
X140121Y168002D01*
X139954Y168020D01*
X139487Y168020D01*
X138944Y168564D01*
X138927Y168576D01*
X138915Y168591D01*
X138828Y168647D01*
X138744Y168707D01*
X138725Y168713D01*
X138708Y168724D01*
X138608Y168749D01*
X138509Y168780D01*
X138489Y168779D01*
X138470Y168784D01*
X138367Y168776D01*
X138263Y168773D01*
X138244Y168767D01*
X138224Y168765D01*
X138129Y168725D01*
X138032Y168689D01*
X138016Y168676D01*
X137998Y168669D01*
X137867Y168564D01*
X136114Y166811D01*
X134402Y165099D01*
X122392Y165099D01*
X119125Y168366D01*
X119125Y178852D01*
X133634Y193361D01*
X133687Y193435D01*
X133747Y193505D01*
X133759Y193535D01*
X133778Y193561D01*
X133805Y193648D01*
X133839Y193733D01*
X133843Y193774D01*
X133850Y193796D01*
X133849Y193828D01*
X133857Y193900D01*
X133857Y236630D01*
X133854Y236649D01*
X133856Y236667D01*
X133841Y236736D01*
X133835Y236811D01*
X133823Y236841D01*
X133818Y236873D01*
X133807Y236892D01*
X133804Y236908D01*
X133771Y236963D01*
X133739Y237038D01*
X133713Y237070D01*
X133702Y237090D01*
X133685Y237107D01*
X133678Y237119D01*
X133666Y237128D01*
X133634Y237169D01*
X128203Y242600D01*
X128202Y242600D01*
X126933Y243870D01*
X126859Y243923D01*
X126789Y243983D01*
X126759Y243995D01*
X126733Y244014D01*
X126646Y244041D01*
X126561Y244075D01*
X126520Y244079D01*
X126498Y244086D01*
X126466Y244085D01*
X126394Y244093D01*
X121352Y244093D01*
X121237Y244074D01*
X121121Y244057D01*
X121116Y244055D01*
X121110Y244054D01*
X121007Y243999D01*
X120902Y243946D01*
X120898Y243941D01*
X120892Y243938D01*
X120812Y243854D01*
X120730Y243770D01*
X120726Y243764D01*
X120723Y243760D01*
X120715Y243743D01*
X120649Y243623D01*
X120386Y242990D01*
X118198Y240802D01*
X115339Y239617D01*
X112245Y239617D01*
X109386Y240802D01*
X107198Y242990D01*
X106013Y245849D01*
X106013Y248943D01*
X106276Y249577D01*
X106302Y249691D01*
X106331Y249804D01*
X106330Y249810D01*
X106332Y249816D01*
X106321Y249933D01*
X106312Y250049D01*
X106309Y250055D01*
X106309Y250061D01*
X106261Y250169D01*
X106216Y250276D01*
X106211Y250281D01*
X106209Y250286D01*
X106196Y250300D01*
X106111Y250407D01*
X105155Y251362D01*
X105155Y278003D01*
X105152Y278023D01*
X105154Y278042D01*
X105132Y278144D01*
X105116Y278246D01*
X105106Y278263D01*
X105102Y278283D01*
X105049Y278372D01*
X105000Y278463D01*
X104986Y278477D01*
X104976Y278494D01*
X104897Y278561D01*
X104822Y278633D01*
X104804Y278641D01*
X104789Y278654D01*
X104693Y278693D01*
X104599Y278736D01*
X104579Y278738D01*
X104561Y278746D01*
X104394Y278764D01*
X103927Y278764D01*
X102234Y280457D01*
X102234Y289519D01*
X103927Y291212D01*
X112989Y291212D01*
X114682Y289519D01*
X114682Y289052D01*
X114685Y289032D01*
X114683Y289013D01*
X114705Y288911D01*
X114721Y288809D01*
X114731Y288792D01*
X114735Y288772D01*
X114788Y288683D01*
X114837Y288592D01*
X114851Y288578D01*
X114861Y288561D01*
X114940Y288494D01*
X115015Y288422D01*
X115033Y288414D01*
X115048Y288401D01*
X115144Y288362D01*
X115238Y288319D01*
X115258Y288317D01*
X115276Y288309D01*
X115443Y288291D01*
X116967Y288291D01*
X116987Y288294D01*
X117006Y288292D01*
X117108Y288314D01*
X117210Y288330D01*
X117227Y288340D01*
X117247Y288344D01*
X117336Y288397D01*
X117427Y288446D01*
X117441Y288460D01*
X117458Y288470D01*
X117525Y288549D01*
X117597Y288624D01*
X117605Y288642D01*
X117618Y288657D01*
X117657Y288753D01*
X117700Y288847D01*
X117702Y288867D01*
X117710Y288885D01*
X117728Y289052D01*
X117728Y289519D01*
X119421Y291212D01*
X128483Y291212D01*
X130176Y289519D01*
X130176Y280457D01*
X128483Y278764D01*
X119421Y278764D01*
X117728Y280457D01*
X117728Y280924D01*
X117725Y280944D01*
X117727Y280963D01*
X117705Y281065D01*
X117689Y281167D01*
X117679Y281184D01*
X117675Y281204D01*
X117622Y281293D01*
X117573Y281384D01*
X117559Y281398D01*
X117549Y281415D01*
X117470Y281482D01*
X117395Y281554D01*
X117377Y281562D01*
X117362Y281575D01*
X117266Y281614D01*
X117172Y281657D01*
X117152Y281659D01*
X117134Y281667D01*
X116967Y281685D01*
X115443Y281685D01*
X115423Y281682D01*
X115404Y281684D01*
X115302Y281662D01*
X115200Y281646D01*
X115183Y281636D01*
X115163Y281632D01*
X115074Y281579D01*
X114983Y281530D01*
X114969Y281516D01*
X114952Y281506D01*
X114885Y281427D01*
X114813Y281352D01*
X114805Y281334D01*
X114792Y281319D01*
X114753Y281223D01*
X114710Y281129D01*
X114708Y281109D01*
X114700Y281091D01*
X114682Y280924D01*
X114682Y280457D01*
X112989Y278764D01*
X112522Y278764D01*
X112502Y278761D01*
X112483Y278763D01*
X112381Y278741D01*
X112279Y278725D01*
X112262Y278715D01*
X112242Y278711D01*
X112153Y278658D01*
X112062Y278609D01*
X112048Y278595D01*
X112031Y278585D01*
X111964Y278506D01*
X111892Y278431D01*
X111884Y278413D01*
X111871Y278398D01*
X111832Y278302D01*
X111789Y278208D01*
X111787Y278188D01*
X111779Y278170D01*
X111761Y278003D01*
X111761Y255936D01*
X111764Y255916D01*
X111762Y255897D01*
X111784Y255795D01*
X111800Y255693D01*
X111810Y255676D01*
X111814Y255656D01*
X111867Y255567D01*
X111916Y255476D01*
X111930Y255462D01*
X111940Y255445D01*
X112019Y255378D01*
X112094Y255306D01*
X112112Y255298D01*
X112127Y255285D01*
X112223Y255246D01*
X112317Y255203D01*
X112337Y255201D01*
X112355Y255193D01*
X112522Y255175D01*
X115339Y255175D01*
X118198Y253990D01*
X120386Y251802D01*
X120649Y251169D01*
X120710Y251069D01*
X120770Y250969D01*
X120775Y250965D01*
X120779Y250960D01*
X120868Y250885D01*
X120957Y250809D01*
X120963Y250807D01*
X120968Y250803D01*
X121076Y250761D01*
X121186Y250717D01*
X121193Y250716D01*
X121198Y250715D01*
X121216Y250714D01*
X121352Y250699D01*
X127410Y250699D01*
X127500Y250713D01*
X127591Y250721D01*
X127621Y250733D01*
X127653Y250738D01*
X127734Y250781D01*
X127818Y250817D01*
X127850Y250843D01*
X127870Y250854D01*
X127893Y250877D01*
X127949Y250922D01*
X128808Y251781D01*
X132044Y255017D01*
X141260Y255017D01*
X153991Y242286D01*
X155362Y240915D01*
X155378Y240903D01*
X155391Y240888D01*
X155478Y240832D01*
X155562Y240771D01*
X155581Y240766D01*
X155598Y240755D01*
X155698Y240729D01*
X155797Y240699D01*
X155817Y240700D01*
X155836Y240695D01*
X155939Y240703D01*
X156043Y240705D01*
X156062Y240712D01*
X156081Y240714D01*
X156176Y240754D01*
X156274Y240790D01*
X156290Y240802D01*
X156308Y240810D01*
X156439Y240915D01*
X156476Y240952D01*
X157309Y241433D01*
X158237Y241682D01*
X160529Y241682D01*
X160529Y235458D01*
X160532Y235438D01*
X160530Y235419D01*
X160552Y235317D01*
X160569Y235215D01*
X160578Y235198D01*
X160582Y235178D01*
X160635Y235089D01*
X160684Y234998D01*
X160698Y234984D01*
X160708Y234967D01*
X160787Y234900D01*
X160862Y234829D01*
X160880Y234820D01*
X160895Y234807D01*
X160991Y234768D01*
X161085Y234725D01*
X161105Y234723D01*
X161123Y234715D01*
X161290Y234697D01*
X162053Y234697D01*
X162053Y234695D01*
X161290Y234695D01*
X161270Y234692D01*
X161251Y234694D01*
X161149Y234672D01*
X161047Y234655D01*
X161030Y234646D01*
X161010Y234642D01*
X160921Y234589D01*
X160830Y234540D01*
X160816Y234526D01*
X160799Y234516D01*
X160732Y234437D01*
X160661Y234362D01*
X160652Y234344D01*
X160639Y234329D01*
X160600Y234233D01*
X160557Y234139D01*
X160555Y234119D01*
X160547Y234101D01*
X160529Y233934D01*
X160529Y220726D01*
X160532Y220706D01*
X160530Y220687D01*
X160552Y220585D01*
X160569Y220483D01*
X160578Y220466D01*
X160582Y220446D01*
X160635Y220357D01*
X160684Y220266D01*
X160698Y220252D01*
X160708Y220235D01*
X160787Y220168D01*
X160862Y220097D01*
X160880Y220088D01*
X160895Y220075D01*
X160991Y220036D01*
X161085Y219993D01*
X161105Y219991D01*
X161123Y219983D01*
X161290Y219965D01*
X162053Y219965D01*
X162053Y219963D01*
X161290Y219963D01*
X161270Y219960D01*
X161251Y219962D01*
X161149Y219940D01*
X161047Y219923D01*
X161030Y219914D01*
X161010Y219910D01*
X160921Y219857D01*
X160830Y219808D01*
X160816Y219794D01*
X160799Y219784D01*
X160732Y219705D01*
X160661Y219630D01*
X160652Y219612D01*
X160639Y219597D01*
X160600Y219501D01*
X160557Y219407D01*
X160555Y219387D01*
X160547Y219369D01*
X160529Y219202D01*
X160529Y212978D01*
X158721Y212978D01*
X158650Y212967D01*
X158578Y212965D01*
X158529Y212947D01*
X158478Y212939D01*
X158415Y212905D01*
X158347Y212880D01*
X158307Y212848D01*
X158261Y212823D01*
X158211Y212771D01*
X158155Y212727D01*
X158127Y212683D01*
X158091Y212645D01*
X158061Y212580D01*
X158022Y212520D01*
X158009Y212469D01*
X157988Y212422D01*
X157980Y212351D01*
X157962Y212281D01*
X157966Y212229D01*
X157960Y212178D01*
X157976Y212107D01*
X157981Y212036D01*
X158002Y211988D01*
X158013Y211937D01*
X158050Y211876D01*
X158078Y211810D01*
X158122Y211754D01*
X158139Y211726D01*
X158157Y211711D01*
X158182Y211679D01*
X162509Y207352D01*
X162583Y207299D01*
X162653Y207239D01*
X162683Y207227D01*
X162709Y207208D01*
X162796Y207181D01*
X162881Y207147D01*
X162891Y207146D01*
X163971Y206067D01*
X163973Y206045D01*
X163985Y206015D01*
X163990Y205983D01*
X164033Y205902D01*
X164069Y205818D01*
X164095Y205786D01*
X164106Y205766D01*
X164129Y205743D01*
X164174Y205687D01*
X165863Y203998D01*
X165863Y187670D01*
X162088Y183895D01*
X141576Y183895D01*
X141486Y183881D01*
X141395Y183873D01*
X141365Y183861D01*
X141333Y183856D01*
X141252Y183813D01*
X141168Y183777D01*
X141136Y183751D01*
X141116Y183740D01*
X141093Y183717D01*
X141037Y183672D01*
X139132Y181767D01*
X139091Y181709D01*
X139041Y181657D01*
X139019Y181610D01*
X138989Y181568D01*
X138968Y181499D01*
X138938Y181434D01*
X138932Y181382D01*
X138916Y181332D01*
X138918Y181261D01*
X138910Y181190D01*
X138922Y181139D01*
X138923Y181087D01*
X138947Y181019D01*
X138963Y180949D01*
X138989Y180904D01*
X139007Y180856D01*
X139052Y180800D01*
X139089Y180738D01*
X139128Y180704D01*
X139161Y180664D01*
X139221Y180625D01*
X139276Y180578D01*
X139324Y180559D01*
X139368Y180531D01*
X139437Y180513D01*
X139504Y180486D01*
X139575Y180478D01*
X139606Y180470D01*
X139630Y180472D01*
X139671Y180468D01*
X148549Y180468D01*
X150242Y178775D01*
X150242Y178308D01*
X150245Y178288D01*
X150243Y178269D01*
X150265Y178167D01*
X150281Y178065D01*
X150291Y178048D01*
X150295Y178028D01*
X150348Y177939D01*
X150397Y177848D01*
X150411Y177834D01*
X150421Y177817D01*
X150500Y177750D01*
X150575Y177678D01*
X150593Y177670D01*
X150608Y177657D01*
X150704Y177618D01*
X150798Y177575D01*
X150818Y177573D01*
X150836Y177565D01*
X151003Y177547D01*
X151765Y177547D01*
X151785Y177550D01*
X151804Y177548D01*
X151906Y177570D01*
X152008Y177586D01*
X152025Y177596D01*
X152045Y177600D01*
X152134Y177653D01*
X152225Y177702D01*
X152239Y177716D01*
X152256Y177726D01*
X152323Y177805D01*
X152395Y177880D01*
X152403Y177898D01*
X152416Y177913D01*
X152455Y178009D01*
X152498Y178103D01*
X152500Y178123D01*
X152508Y178141D01*
X152526Y178308D01*
X152526Y178775D01*
X154219Y180468D01*
X163281Y180468D01*
X164974Y178775D01*
X164974Y169713D01*
X163281Y168020D01*
X154219Y168020D01*
X152526Y169713D01*
X152526Y170180D01*
X152523Y170200D01*
X152525Y170219D01*
X152503Y170321D01*
X152487Y170423D01*
X152477Y170440D01*
X152473Y170460D01*
X152420Y170549D01*
X152371Y170640D01*
X152357Y170654D01*
X152347Y170671D01*
X152268Y170738D01*
X152193Y170810D01*
X152175Y170818D01*
X152160Y170831D01*
X152064Y170870D01*
X151970Y170913D01*
X151950Y170915D01*
X151932Y170923D01*
X151765Y170941D01*
X151003Y170941D01*
X150983Y170938D01*
X150964Y170940D01*
X150862Y170918D01*
X150760Y170902D01*
X150743Y170892D01*
X150723Y170888D01*
X150634Y170835D01*
X150543Y170786D01*
X150529Y170772D01*
X150512Y170762D01*
X150445Y170683D01*
X150373Y170608D01*
X150365Y170590D01*
X150352Y170575D01*
X150313Y170479D01*
X150270Y170385D01*
X150268Y170365D01*
X150260Y170347D01*
X150242Y170180D01*
X150242Y169713D01*
X148549Y168020D01*
X148082Y168020D01*
X148062Y168017D01*
X148043Y168019D01*
X147941Y167997D01*
X147839Y167981D01*
X147822Y167971D01*
X147802Y167967D01*
X147713Y167914D01*
X147622Y167865D01*
X147608Y167851D01*
X147591Y167841D01*
X147524Y167762D01*
X147452Y167687D01*
X147444Y167669D01*
X147431Y167654D01*
X147392Y167558D01*
X147349Y167464D01*
X147347Y167444D01*
X147339Y167426D01*
X147321Y167259D01*
X147321Y161834D01*
X147335Y161744D01*
X147343Y161653D01*
X147355Y161623D01*
X147360Y161591D01*
X147403Y161511D01*
X147439Y161427D01*
X147465Y161395D01*
X147476Y161374D01*
X147499Y161352D01*
X147544Y161296D01*
X147655Y161185D01*
X147753Y161114D01*
X147847Y161045D01*
X147851Y161044D01*
X147854Y161041D01*
X147968Y161006D01*
X148082Y160970D01*
X148086Y160970D01*
X148090Y160969D01*
X148209Y160972D01*
X148327Y160974D01*
X148331Y160975D01*
X148335Y160975D01*
X148448Y161016D01*
X148559Y161056D01*
X148563Y161058D01*
X148566Y161060D01*
X148660Y161135D01*
X148753Y161207D01*
X148756Y161211D01*
X148758Y161213D01*
X148766Y161225D01*
X148833Y161316D01*
X149316Y161799D01*
X149895Y162134D01*
X150542Y162307D01*
X152147Y162307D01*
X152147Y155194D01*
X152150Y155175D01*
X152148Y155155D01*
X152170Y155053D01*
X152186Y154951D01*
X152196Y154934D01*
X152200Y154914D01*
X152253Y154825D01*
X152302Y154734D01*
X152316Y154720D01*
X152326Y154703D01*
X152351Y154682D01*
X152350Y154681D01*
X152278Y154606D01*
X152270Y154588D01*
X152257Y154573D01*
X152218Y154476D01*
X152175Y154383D01*
X152173Y154363D01*
X152165Y154345D01*
X152147Y154178D01*
X152147Y147065D01*
X150542Y147065D01*
G37*
%LPD*%
%LPC*%
G36*
X146776Y114045D02*
X146776Y114045D01*
X137093Y123728D01*
X137019Y123781D01*
X136949Y123841D01*
X136919Y123853D01*
X136893Y123872D01*
X136806Y123899D01*
X136721Y123933D01*
X136680Y123937D01*
X136658Y123944D01*
X136626Y123943D01*
X136554Y123951D01*
X108168Y123951D01*
X103631Y128488D01*
X103631Y138466D01*
X108422Y143257D01*
X119171Y143257D01*
X119242Y143268D01*
X119314Y143270D01*
X119363Y143288D01*
X119414Y143296D01*
X119477Y143330D01*
X119545Y143355D01*
X119585Y143387D01*
X119631Y143412D01*
X119681Y143464D01*
X119737Y143508D01*
X119765Y143552D01*
X119801Y143590D01*
X119831Y143655D01*
X119870Y143715D01*
X119882Y143766D01*
X119904Y143813D01*
X119912Y143884D01*
X119930Y143954D01*
X119926Y144006D01*
X119931Y144057D01*
X119916Y144128D01*
X119911Y144199D01*
X119890Y144247D01*
X119879Y144298D01*
X119842Y144359D01*
X119814Y144425D01*
X119770Y144481D01*
X119753Y144509D01*
X119735Y144524D01*
X119710Y144556D01*
X118966Y145300D01*
X118485Y146133D01*
X118236Y147061D01*
X118236Y149353D01*
X124460Y149353D01*
X124480Y149356D01*
X124499Y149354D01*
X124601Y149376D01*
X124703Y149393D01*
X124720Y149402D01*
X124740Y149406D01*
X124829Y149459D01*
X124920Y149508D01*
X124934Y149522D01*
X124951Y149532D01*
X125018Y149611D01*
X125089Y149686D01*
X125098Y149704D01*
X125111Y149719D01*
X125150Y149815D01*
X125193Y149909D01*
X125195Y149929D01*
X125203Y149947D01*
X125221Y150114D01*
X125221Y150877D01*
X125223Y150877D01*
X125223Y150114D01*
X125226Y150094D01*
X125224Y150075D01*
X125246Y149973D01*
X125263Y149871D01*
X125272Y149854D01*
X125276Y149834D01*
X125329Y149745D01*
X125378Y149654D01*
X125392Y149640D01*
X125402Y149623D01*
X125481Y149556D01*
X125556Y149485D01*
X125574Y149476D01*
X125589Y149463D01*
X125685Y149424D01*
X125779Y149381D01*
X125799Y149379D01*
X125817Y149371D01*
X125984Y149353D01*
X132208Y149353D01*
X132208Y147061D01*
X131959Y146133D01*
X131478Y145300D01*
X130734Y144556D01*
X130693Y144498D01*
X130643Y144446D01*
X130621Y144399D01*
X130591Y144357D01*
X130570Y144288D01*
X130540Y144223D01*
X130534Y144171D01*
X130519Y144121D01*
X130520Y144050D01*
X130513Y143979D01*
X130524Y143928D01*
X130525Y143876D01*
X130550Y143808D01*
X130565Y143738D01*
X130591Y143693D01*
X130609Y143645D01*
X130654Y143589D01*
X130691Y143527D01*
X130731Y143493D01*
X130763Y143453D01*
X130823Y143414D01*
X130878Y143367D01*
X130926Y143348D01*
X130970Y143320D01*
X131039Y143302D01*
X131106Y143275D01*
X131177Y143267D01*
X131208Y143259D01*
X131232Y143261D01*
X131273Y143257D01*
X153452Y143257D01*
X156531Y140178D01*
X158243Y138467D01*
X158259Y138455D01*
X158271Y138439D01*
X158358Y138383D01*
X158442Y138323D01*
X158461Y138317D01*
X158478Y138306D01*
X158579Y138281D01*
X158677Y138251D01*
X158697Y138251D01*
X158717Y138246D01*
X158820Y138254D01*
X158923Y138257D01*
X158942Y138264D01*
X158962Y138265D01*
X159057Y138306D01*
X159154Y138342D01*
X159170Y138354D01*
X159188Y138362D01*
X159319Y138467D01*
X159537Y138685D01*
X166091Y138685D01*
X167133Y137643D01*
X167133Y127508D01*
X167136Y127488D01*
X167134Y127469D01*
X167156Y127367D01*
X167172Y127265D01*
X167182Y127248D01*
X167186Y127228D01*
X167239Y127139D01*
X167288Y127048D01*
X167302Y127034D01*
X167312Y127017D01*
X167391Y126950D01*
X167466Y126878D01*
X167484Y126870D01*
X167499Y126857D01*
X167595Y126818D01*
X167689Y126775D01*
X167709Y126773D01*
X167727Y126765D01*
X167894Y126747D01*
X172876Y126747D01*
X172966Y126761D01*
X173057Y126769D01*
X173087Y126781D01*
X173119Y126786D01*
X173200Y126829D01*
X173284Y126865D01*
X173316Y126891D01*
X173336Y126902D01*
X173359Y126925D01*
X173415Y126970D01*
X173512Y127067D01*
X173565Y127141D01*
X173625Y127211D01*
X173637Y127241D01*
X173656Y127267D01*
X173683Y127354D01*
X173717Y127439D01*
X173721Y127480D01*
X173728Y127502D01*
X173727Y127534D01*
X173735Y127606D01*
X173735Y135418D01*
X177002Y138685D01*
X216444Y138685D01*
X221489Y133640D01*
X221489Y118582D01*
X218664Y115757D01*
X218664Y115756D01*
X216952Y114045D01*
X146776Y114045D01*
G37*
%LPD*%
%LPC*%
G36*
X159476Y145795D02*
X159476Y145795D01*
X158683Y146588D01*
X158044Y147226D01*
X158009Y147252D01*
X157979Y147284D01*
X157910Y147323D01*
X157845Y147370D01*
X157803Y147383D01*
X157765Y147404D01*
X157686Y147419D01*
X157610Y147442D01*
X157566Y147441D01*
X157523Y147449D01*
X157444Y147438D01*
X157364Y147436D01*
X157323Y147421D01*
X157279Y147415D01*
X157146Y147356D01*
X157133Y147352D01*
X157130Y147349D01*
X157126Y147347D01*
X156937Y147238D01*
X156290Y147065D01*
X154685Y147065D01*
X154685Y154178D01*
X154682Y154197D01*
X154684Y154217D01*
X154662Y154319D01*
X154646Y154421D01*
X154636Y154438D01*
X154632Y154458D01*
X154579Y154547D01*
X154530Y154638D01*
X154516Y154652D01*
X154506Y154669D01*
X154481Y154690D01*
X154482Y154691D01*
X154554Y154766D01*
X154562Y154784D01*
X154575Y154799D01*
X154614Y154896D01*
X154657Y154989D01*
X154659Y155009D01*
X154667Y155027D01*
X154685Y155194D01*
X154685Y162307D01*
X156290Y162307D01*
X156976Y162123D01*
X157043Y162116D01*
X157109Y162100D01*
X157164Y162104D01*
X157220Y162099D01*
X157286Y162114D01*
X157354Y162119D01*
X157405Y162141D01*
X157460Y162154D01*
X157518Y162189D01*
X157580Y162215D01*
X157642Y162265D01*
X157670Y162282D01*
X157683Y162298D01*
X157711Y162320D01*
X159542Y164151D01*
X161254Y165863D01*
X169601Y165863D01*
X169625Y165867D01*
X169649Y165864D01*
X169746Y165886D01*
X169844Y165902D01*
X169865Y165914D01*
X169889Y165919D01*
X169974Y165971D01*
X170062Y166018D01*
X170078Y166035D01*
X170099Y166048D01*
X170163Y166124D01*
X170231Y166196D01*
X170241Y166218D01*
X170257Y166236D01*
X170293Y166329D01*
X170335Y166419D01*
X170337Y166443D01*
X170346Y166465D01*
X170351Y166565D01*
X170362Y166663D01*
X170357Y166687D01*
X170358Y166711D01*
X170331Y166807D01*
X170309Y166904D01*
X170297Y166925D01*
X170290Y166948D01*
X170234Y167030D01*
X170183Y167115D01*
X170165Y167131D01*
X170151Y167150D01*
X170072Y167210D01*
X169996Y167275D01*
X169974Y167284D01*
X169955Y167298D01*
X169798Y167359D01*
X169247Y167507D01*
X168414Y167988D01*
X167734Y168668D01*
X167253Y169501D01*
X167004Y170429D01*
X167004Y172721D01*
X173228Y172721D01*
X173248Y172724D01*
X173267Y172722D01*
X173369Y172744D01*
X173471Y172761D01*
X173488Y172770D01*
X173508Y172774D01*
X173597Y172827D01*
X173688Y172876D01*
X173702Y172890D01*
X173719Y172900D01*
X173786Y172979D01*
X173857Y173054D01*
X173866Y173072D01*
X173879Y173087D01*
X173918Y173183D01*
X173961Y173277D01*
X173963Y173297D01*
X173971Y173315D01*
X173989Y173482D01*
X173989Y174245D01*
X173991Y174245D01*
X173991Y173482D01*
X173994Y173462D01*
X173992Y173443D01*
X174014Y173341D01*
X174031Y173239D01*
X174040Y173222D01*
X174044Y173202D01*
X174097Y173113D01*
X174146Y173022D01*
X174160Y173008D01*
X174170Y172991D01*
X174249Y172924D01*
X174324Y172853D01*
X174342Y172844D01*
X174357Y172831D01*
X174453Y172792D01*
X174547Y172749D01*
X174567Y172747D01*
X174585Y172739D01*
X174752Y172721D01*
X180976Y172721D01*
X180976Y170429D01*
X180727Y169501D01*
X180246Y168668D01*
X179566Y167988D01*
X178733Y167507D01*
X178182Y167359D01*
X178160Y167349D01*
X178136Y167345D01*
X178048Y167299D01*
X177957Y167258D01*
X177940Y167242D01*
X177918Y167230D01*
X177850Y167159D01*
X177777Y167091D01*
X177766Y167070D01*
X177749Y167052D01*
X177707Y166962D01*
X177660Y166875D01*
X177656Y166851D01*
X177645Y166829D01*
X177634Y166730D01*
X177617Y166632D01*
X177621Y166608D01*
X177618Y166585D01*
X177639Y166488D01*
X177654Y166389D01*
X177665Y166368D01*
X177671Y166344D01*
X177722Y166259D01*
X177767Y166170D01*
X177784Y166154D01*
X177797Y166133D01*
X177872Y166068D01*
X177944Y165999D01*
X177965Y165989D01*
X177984Y165973D01*
X178076Y165936D01*
X178166Y165893D01*
X178189Y165890D01*
X178212Y165881D01*
X178379Y165863D01*
X180750Y165863D01*
X180840Y165877D01*
X180931Y165885D01*
X180961Y165897D01*
X180993Y165902D01*
X181074Y165945D01*
X181158Y165981D01*
X181190Y166007D01*
X181210Y166018D01*
X181233Y166041D01*
X181289Y166086D01*
X182402Y167199D01*
X182455Y167273D01*
X182515Y167343D01*
X182527Y167373D01*
X182546Y167399D01*
X182573Y167486D01*
X182607Y167571D01*
X182611Y167612D01*
X182618Y167634D01*
X182617Y167666D01*
X182625Y167738D01*
X182625Y177448D01*
X182611Y177538D01*
X182603Y177629D01*
X182591Y177659D01*
X182586Y177691D01*
X182543Y177772D01*
X182507Y177856D01*
X182481Y177888D01*
X182470Y177908D01*
X182447Y177931D01*
X182402Y177986D01*
X182275Y178114D01*
X182217Y178155D01*
X182165Y178205D01*
X182118Y178227D01*
X182076Y178257D01*
X182007Y178278D01*
X181942Y178308D01*
X181890Y178314D01*
X181841Y178330D01*
X181769Y178328D01*
X181698Y178336D01*
X181647Y178324D01*
X181595Y178323D01*
X181527Y178299D01*
X181457Y178283D01*
X181412Y178257D01*
X181364Y178239D01*
X181308Y178194D01*
X181246Y178157D01*
X181212Y178118D01*
X181172Y178085D01*
X181133Y178025D01*
X181086Y177970D01*
X181067Y177922D01*
X181039Y177878D01*
X181021Y177809D01*
X180994Y177742D01*
X180986Y177671D01*
X180978Y177640D01*
X180980Y177616D01*
X180976Y177575D01*
X180976Y175767D01*
X175513Y175767D01*
X175513Y181230D01*
X177321Y181230D01*
X177392Y181241D01*
X177464Y181243D01*
X177513Y181261D01*
X177564Y181269D01*
X177627Y181303D01*
X177695Y181328D01*
X177735Y181360D01*
X177781Y181385D01*
X177831Y181437D01*
X177887Y181481D01*
X177915Y181525D01*
X177951Y181563D01*
X177981Y181628D01*
X178020Y181688D01*
X178033Y181739D01*
X178054Y181786D01*
X178062Y181857D01*
X178080Y181927D01*
X178076Y181979D01*
X178082Y182030D01*
X178066Y182101D01*
X178061Y182172D01*
X178040Y182220D01*
X178029Y182271D01*
X177992Y182332D01*
X177964Y182398D01*
X177920Y182454D01*
X177903Y182482D01*
X177885Y182497D01*
X177860Y182529D01*
X175701Y184688D01*
X173989Y186400D01*
X173989Y206538D01*
X177002Y209551D01*
X202728Y209551D01*
X205741Y206538D01*
X205741Y175866D01*
X205755Y175776D01*
X205763Y175685D01*
X205775Y175655D01*
X205780Y175623D01*
X205823Y175542D01*
X205859Y175458D01*
X205885Y175426D01*
X205896Y175406D01*
X205919Y175383D01*
X205964Y175327D01*
X217679Y163612D01*
X217679Y149570D01*
X215616Y147507D01*
X215616Y147506D01*
X213904Y145795D01*
X159476Y145795D01*
G37*
%LPD*%
G36*
X212942Y147590D02*
X212942Y147590D01*
X213033Y147597D01*
X213063Y147609D01*
X213095Y147615D01*
X213175Y147657D01*
X213259Y147693D01*
X213291Y147719D01*
X213312Y147730D01*
X213334Y147753D01*
X213390Y147798D01*
X215676Y150084D01*
X215718Y150142D01*
X215765Y150192D01*
X215773Y150209D01*
X215789Y150227D01*
X215801Y150257D01*
X215820Y150283D01*
X215843Y150360D01*
X215869Y150415D01*
X215871Y150430D01*
X215881Y150455D01*
X215885Y150496D01*
X215892Y150519D01*
X215891Y150551D01*
X215899Y150622D01*
X215899Y162560D01*
X215885Y162650D01*
X215877Y162741D01*
X215865Y162771D01*
X215860Y162803D01*
X215817Y162883D01*
X215781Y162967D01*
X215755Y162999D01*
X215744Y163020D01*
X215721Y163042D01*
X215676Y163098D01*
X203961Y174813D01*
X203961Y205486D01*
X203947Y205576D01*
X203939Y205667D01*
X203927Y205697D01*
X203922Y205729D01*
X203879Y205809D01*
X203843Y205893D01*
X203817Y205925D01*
X203806Y205946D01*
X203783Y205968D01*
X203738Y206024D01*
X202214Y207548D01*
X202140Y207601D01*
X202071Y207661D01*
X202041Y207673D01*
X202015Y207692D01*
X201928Y207719D01*
X201843Y207753D01*
X201802Y207757D01*
X201779Y207764D01*
X201747Y207763D01*
X201676Y207771D01*
X178054Y207771D01*
X177964Y207757D01*
X177873Y207749D01*
X177843Y207737D01*
X177811Y207732D01*
X177731Y207689D01*
X177647Y207653D01*
X177615Y207627D01*
X177594Y207616D01*
X177572Y207593D01*
X177516Y207548D01*
X175992Y206024D01*
X175939Y205950D01*
X175879Y205881D01*
X175867Y205851D01*
X175848Y205825D01*
X175821Y205738D01*
X175787Y205653D01*
X175783Y205612D01*
X175776Y205589D01*
X175777Y205557D01*
X175769Y205486D01*
X175769Y187452D01*
X175784Y187362D01*
X175791Y187271D01*
X175803Y187241D01*
X175809Y187209D01*
X175851Y187129D01*
X175887Y187045D01*
X175913Y187013D01*
X175924Y186992D01*
X175947Y186970D01*
X175992Y186914D01*
X184405Y178501D01*
X184405Y166685D01*
X181803Y164083D01*
X162306Y164083D01*
X162216Y164069D01*
X162125Y164061D01*
X162095Y164049D01*
X162063Y164044D01*
X161983Y164001D01*
X161899Y163965D01*
X161867Y163939D01*
X161846Y163928D01*
X161824Y163905D01*
X161768Y163860D01*
X158974Y161066D01*
X158921Y160992D01*
X158861Y160923D01*
X158849Y160893D01*
X158830Y160867D01*
X158803Y160780D01*
X158786Y160736D01*
X158779Y160721D01*
X158779Y160718D01*
X158769Y160695D01*
X158765Y160654D01*
X158758Y160631D01*
X158759Y160599D01*
X158751Y160528D01*
X158751Y149352D01*
X158766Y149262D01*
X158773Y149171D01*
X158785Y149141D01*
X158791Y149109D01*
X158833Y149029D01*
X158869Y148945D01*
X158895Y148913D01*
X158906Y148892D01*
X158929Y148870D01*
X158974Y148814D01*
X159990Y147798D01*
X160064Y147745D01*
X160133Y147685D01*
X160163Y147673D01*
X160189Y147654D01*
X160276Y147627D01*
X160361Y147593D01*
X160402Y147589D01*
X160425Y147582D01*
X160457Y147583D01*
X160528Y147575D01*
X212852Y147575D01*
X212942Y147590D01*
G37*
G36*
X215990Y115840D02*
X215990Y115840D01*
X216081Y115847D01*
X216111Y115859D01*
X216143Y115865D01*
X216223Y115907D01*
X216307Y115943D01*
X216339Y115969D01*
X216360Y115980D01*
X216382Y116003D01*
X216438Y116048D01*
X219486Y119096D01*
X219529Y119155D01*
X219575Y119203D01*
X219582Y119220D01*
X219599Y119239D01*
X219611Y119269D01*
X219630Y119295D01*
X219654Y119374D01*
X219678Y119426D01*
X219680Y119440D01*
X219691Y119467D01*
X219695Y119508D01*
X219702Y119531D01*
X219701Y119563D01*
X219709Y119634D01*
X219709Y132588D01*
X219707Y132601D01*
X219708Y132612D01*
X219697Y132665D01*
X219695Y132678D01*
X219687Y132769D01*
X219675Y132799D01*
X219670Y132831D01*
X219627Y132911D01*
X219591Y132995D01*
X219565Y133027D01*
X219554Y133048D01*
X219531Y133070D01*
X219486Y133126D01*
X215930Y136682D01*
X215856Y136735D01*
X215787Y136795D01*
X215757Y136807D01*
X215731Y136826D01*
X215644Y136853D01*
X215559Y136887D01*
X215518Y136891D01*
X215495Y136898D01*
X215463Y136897D01*
X215392Y136905D01*
X178054Y136905D01*
X177964Y136891D01*
X177873Y136883D01*
X177843Y136871D01*
X177811Y136866D01*
X177731Y136823D01*
X177647Y136787D01*
X177615Y136761D01*
X177594Y136750D01*
X177572Y136727D01*
X177516Y136682D01*
X175738Y134904D01*
X175685Y134830D01*
X175625Y134761D01*
X175613Y134731D01*
X175594Y134705D01*
X175567Y134618D01*
X175533Y134533D01*
X175529Y134492D01*
X175522Y134469D01*
X175523Y134437D01*
X175515Y134366D01*
X175515Y126553D01*
X173929Y124967D01*
X159537Y124967D01*
X158490Y126014D01*
X158481Y126074D01*
X158473Y126165D01*
X158461Y126195D01*
X158456Y126227D01*
X158413Y126307D01*
X158377Y126391D01*
X158351Y126423D01*
X158340Y126444D01*
X158317Y126466D01*
X158272Y126522D01*
X156463Y128331D01*
X156463Y137414D01*
X156449Y137504D01*
X156441Y137595D01*
X156429Y137625D01*
X156424Y137657D01*
X156381Y137737D01*
X156345Y137821D01*
X156319Y137853D01*
X156308Y137874D01*
X156285Y137896D01*
X156240Y137952D01*
X152938Y141254D01*
X152864Y141307D01*
X152795Y141367D01*
X152765Y141379D01*
X152739Y141398D01*
X152652Y141425D01*
X152567Y141459D01*
X152526Y141463D01*
X152503Y141470D01*
X152471Y141469D01*
X152400Y141477D01*
X109474Y141477D01*
X109384Y141463D01*
X109293Y141455D01*
X109263Y141443D01*
X109231Y141438D01*
X109151Y141395D01*
X109067Y141359D01*
X109035Y141333D01*
X109014Y141322D01*
X108992Y141299D01*
X108936Y141254D01*
X105634Y137952D01*
X105581Y137878D01*
X105521Y137809D01*
X105509Y137779D01*
X105490Y137753D01*
X105463Y137666D01*
X105429Y137581D01*
X105425Y137540D01*
X105418Y137517D01*
X105419Y137485D01*
X105411Y137414D01*
X105411Y129540D01*
X105426Y129450D01*
X105433Y129359D01*
X105445Y129329D01*
X105451Y129297D01*
X105477Y129248D01*
X105477Y129247D01*
X105478Y129246D01*
X105493Y129217D01*
X105529Y129133D01*
X105555Y129101D01*
X105566Y129080D01*
X105589Y129058D01*
X105594Y129051D01*
X105603Y129036D01*
X105613Y129028D01*
X105634Y129002D01*
X108682Y125954D01*
X108756Y125901D01*
X108825Y125841D01*
X108855Y125829D01*
X108881Y125810D01*
X108968Y125783D01*
X109053Y125749D01*
X109094Y125745D01*
X109117Y125738D01*
X109149Y125739D01*
X109220Y125731D01*
X137607Y125731D01*
X147290Y116048D01*
X147364Y115995D01*
X147433Y115935D01*
X147463Y115923D01*
X147489Y115904D01*
X147576Y115877D01*
X147661Y115843D01*
X147702Y115839D01*
X147725Y115832D01*
X147757Y115833D01*
X147828Y115825D01*
X215900Y115825D01*
X215990Y115840D01*
G37*
G36*
X133440Y166894D02*
X133440Y166894D01*
X133531Y166901D01*
X133561Y166913D01*
X133593Y166919D01*
X133673Y166961D01*
X133757Y166997D01*
X133789Y167023D01*
X133810Y167034D01*
X133832Y167057D01*
X133888Y167102D01*
X136174Y169388D01*
X136216Y169446D01*
X136263Y169496D01*
X136271Y169513D01*
X136287Y169531D01*
X136299Y169561D01*
X136318Y169587D01*
X136341Y169664D01*
X136367Y169719D01*
X136369Y169734D01*
X136379Y169759D01*
X136383Y169800D01*
X136390Y169823D01*
X136389Y169855D01*
X136397Y169926D01*
X136397Y181549D01*
X140523Y185675D01*
X161036Y185675D01*
X161126Y185690D01*
X161217Y185697D01*
X161247Y185709D01*
X161279Y185715D01*
X161359Y185757D01*
X161443Y185793D01*
X161475Y185819D01*
X161496Y185830D01*
X161518Y185853D01*
X161574Y185898D01*
X163860Y188184D01*
X163913Y188258D01*
X163973Y188327D01*
X163985Y188357D01*
X164004Y188383D01*
X164031Y188470D01*
X164065Y188555D01*
X164069Y188596D01*
X164076Y188619D01*
X164075Y188651D01*
X164083Y188722D01*
X164083Y202946D01*
X164069Y203036D01*
X164061Y203127D01*
X164049Y203157D01*
X164044Y203189D01*
X164001Y203269D01*
X163965Y203353D01*
X163939Y203385D01*
X163928Y203406D01*
X163905Y203428D01*
X163860Y203484D01*
X153923Y213421D01*
X153923Y239522D01*
X153909Y239612D01*
X153901Y239703D01*
X153889Y239733D01*
X153884Y239765D01*
X153841Y239845D01*
X153805Y239929D01*
X153779Y239961D01*
X153768Y239982D01*
X153745Y240004D01*
X153700Y240060D01*
X140746Y253014D01*
X140672Y253067D01*
X140603Y253127D01*
X140573Y253139D01*
X140547Y253158D01*
X140460Y253185D01*
X140375Y253219D01*
X140334Y253223D01*
X140311Y253230D01*
X140279Y253229D01*
X140208Y253237D01*
X133096Y253237D01*
X133006Y253223D01*
X132915Y253215D01*
X132885Y253203D01*
X132853Y253198D01*
X132773Y253155D01*
X132689Y253119D01*
X132657Y253093D01*
X132636Y253082D01*
X132614Y253059D01*
X132558Y253014D01*
X128494Y248950D01*
X128441Y248876D01*
X128381Y248807D01*
X128369Y248777D01*
X128350Y248751D01*
X128323Y248664D01*
X128289Y248579D01*
X128285Y248538D01*
X128278Y248515D01*
X128279Y248483D01*
X128271Y248412D01*
X128271Y245364D01*
X128286Y245274D01*
X128293Y245183D01*
X128305Y245153D01*
X128311Y245121D01*
X128353Y245041D01*
X128389Y244957D01*
X128415Y244925D01*
X128426Y244904D01*
X128449Y244882D01*
X128494Y244826D01*
X135637Y237683D01*
X135637Y192847D01*
X121128Y178338D01*
X121075Y178264D01*
X121015Y178195D01*
X121003Y178165D01*
X120984Y178139D01*
X120957Y178052D01*
X120923Y177967D01*
X120919Y177926D01*
X120912Y177903D01*
X120913Y177871D01*
X120905Y177800D01*
X120905Y169418D01*
X120920Y169328D01*
X120927Y169237D01*
X120939Y169207D01*
X120945Y169175D01*
X120987Y169095D01*
X121023Y169011D01*
X121049Y168979D01*
X121060Y168958D01*
X121083Y168936D01*
X121128Y168880D01*
X122906Y167102D01*
X122980Y167049D01*
X123049Y166989D01*
X123079Y166977D01*
X123105Y166958D01*
X123192Y166931D01*
X123277Y166897D01*
X123318Y166893D01*
X123341Y166886D01*
X123373Y166887D01*
X123444Y166879D01*
X133350Y166879D01*
X133440Y166894D01*
G37*
%LPC*%
G36*
X51857Y94614D02*
X51857Y94614D01*
X50164Y96307D01*
X50164Y97282D01*
X50161Y97302D01*
X50163Y97321D01*
X50141Y97423D01*
X50125Y97525D01*
X50115Y97542D01*
X50111Y97562D01*
X50058Y97651D01*
X50009Y97742D01*
X49995Y97756D01*
X49985Y97773D01*
X49906Y97840D01*
X49831Y97912D01*
X49813Y97920D01*
X49798Y97933D01*
X49702Y97972D01*
X49608Y98015D01*
X49588Y98017D01*
X49570Y98025D01*
X49403Y98043D01*
X25400Y98043D01*
X25380Y98040D01*
X25361Y98042D01*
X25259Y98020D01*
X25157Y98004D01*
X25140Y97994D01*
X25120Y97990D01*
X25031Y97937D01*
X24940Y97888D01*
X24926Y97874D01*
X24909Y97864D01*
X24842Y97785D01*
X24770Y97710D01*
X24762Y97692D01*
X24749Y97677D01*
X24710Y97581D01*
X24667Y97487D01*
X24665Y97467D01*
X24657Y97449D01*
X24639Y97282D01*
X24639Y96926D01*
X23597Y95884D01*
X9423Y95884D01*
X8381Y96926D01*
X8381Y121006D01*
X9423Y122048D01*
X23597Y122048D01*
X24639Y121006D01*
X24639Y120650D01*
X24642Y120630D01*
X24640Y120611D01*
X24662Y120509D01*
X24678Y120407D01*
X24688Y120390D01*
X24692Y120370D01*
X24745Y120281D01*
X24794Y120190D01*
X24808Y120176D01*
X24818Y120159D01*
X24897Y120092D01*
X24972Y120020D01*
X24990Y120012D01*
X25005Y119999D01*
X25101Y119960D01*
X25195Y119917D01*
X25215Y119915D01*
X25233Y119907D01*
X25400Y119889D01*
X49403Y119889D01*
X49423Y119892D01*
X49442Y119890D01*
X49544Y119912D01*
X49646Y119928D01*
X49663Y119938D01*
X49683Y119942D01*
X49772Y119995D01*
X49863Y120044D01*
X49877Y120058D01*
X49894Y120068D01*
X49961Y120147D01*
X50033Y120222D01*
X50041Y120240D01*
X50054Y120255D01*
X50093Y120351D01*
X50136Y120445D01*
X50138Y120465D01*
X50146Y120483D01*
X50164Y120650D01*
X50164Y121625D01*
X51857Y123318D01*
X60919Y123318D01*
X62612Y121625D01*
X62612Y112563D01*
X60919Y110870D01*
X51562Y110870D01*
X51542Y110867D01*
X51523Y110869D01*
X51421Y110847D01*
X51319Y110831D01*
X51302Y110821D01*
X51282Y110817D01*
X51193Y110764D01*
X51102Y110715D01*
X51088Y110701D01*
X51071Y110691D01*
X51004Y110612D01*
X50932Y110537D01*
X50924Y110519D01*
X50911Y110504D01*
X50872Y110408D01*
X50829Y110314D01*
X50827Y110294D01*
X50819Y110276D01*
X50801Y110109D01*
X50801Y107823D01*
X50804Y107803D01*
X50802Y107784D01*
X50824Y107682D01*
X50840Y107580D01*
X50850Y107563D01*
X50854Y107543D01*
X50907Y107454D01*
X50956Y107363D01*
X50970Y107349D01*
X50980Y107332D01*
X51059Y107265D01*
X51134Y107193D01*
X51152Y107185D01*
X51167Y107172D01*
X51263Y107133D01*
X51357Y107090D01*
X51377Y107088D01*
X51395Y107080D01*
X51562Y107062D01*
X60919Y107062D01*
X62612Y105369D01*
X62612Y96307D01*
X60919Y94614D01*
X51857Y94614D01*
G37*
%LPD*%
%LPC*%
G36*
X290601Y209930D02*
X290601Y209930D01*
X289559Y210972D01*
X289559Y234544D01*
X290727Y235711D01*
X290782Y235741D01*
X290796Y235755D01*
X290813Y235765D01*
X290880Y235844D01*
X290952Y235919D01*
X290960Y235937D01*
X290973Y235952D01*
X291012Y236048D01*
X291055Y236142D01*
X291057Y236162D01*
X291065Y236180D01*
X291083Y236347D01*
X291083Y288385D01*
X291069Y288475D01*
X291061Y288566D01*
X291049Y288595D01*
X291044Y288627D01*
X291023Y288665D01*
X291022Y288673D01*
X291002Y288706D01*
X291001Y288708D01*
X290965Y288792D01*
X290939Y288824D01*
X290928Y288845D01*
X290906Y288866D01*
X290896Y288884D01*
X290883Y288895D01*
X290860Y288923D01*
X284129Y295654D01*
X284071Y295696D01*
X284019Y295745D01*
X283972Y295767D01*
X283930Y295798D01*
X283861Y295819D01*
X283796Y295849D01*
X283744Y295855D01*
X283694Y295870D01*
X283623Y295868D01*
X283552Y295876D01*
X283501Y295865D01*
X283449Y295864D01*
X283381Y295839D01*
X283311Y295824D01*
X283266Y295797D01*
X283218Y295779D01*
X283162Y295734D01*
X283100Y295697D01*
X283066Y295658D01*
X283026Y295625D01*
X282987Y295565D01*
X282940Y295511D01*
X282921Y295462D01*
X282893Y295418D01*
X282875Y295349D01*
X282848Y295282D01*
X282840Y295211D01*
X282832Y295180D01*
X282834Y295157D01*
X282830Y295116D01*
X282830Y294131D01*
X277367Y294131D01*
X277367Y299594D01*
X278352Y299594D01*
X278422Y299605D01*
X278494Y299607D01*
X278543Y299625D01*
X278594Y299633D01*
X278658Y299667D01*
X278725Y299692D01*
X278766Y299724D01*
X278812Y299749D01*
X278861Y299800D01*
X278917Y299845D01*
X278945Y299889D01*
X278981Y299927D01*
X279011Y299992D01*
X279050Y300052D01*
X279063Y300103D01*
X279085Y300150D01*
X279093Y300221D01*
X279110Y300291D01*
X279106Y300343D01*
X279112Y300394D01*
X279097Y300464D01*
X279091Y300536D01*
X279071Y300584D01*
X279060Y300635D01*
X279023Y300696D01*
X278995Y300762D01*
X278950Y300818D01*
X278933Y300846D01*
X278916Y300861D01*
X278890Y300893D01*
X278382Y301401D01*
X278308Y301455D01*
X278239Y301514D01*
X278208Y301526D01*
X278182Y301545D01*
X278095Y301572D01*
X278010Y301606D01*
X277970Y301610D01*
X277947Y301617D01*
X277915Y301616D01*
X277844Y301624D01*
X271313Y301624D01*
X269620Y303317D01*
X269620Y303784D01*
X269617Y303804D01*
X269619Y303823D01*
X269597Y303925D01*
X269581Y304027D01*
X269571Y304044D01*
X269567Y304064D01*
X269514Y304153D01*
X269465Y304244D01*
X269451Y304258D01*
X269441Y304275D01*
X269362Y304342D01*
X269287Y304414D01*
X269269Y304422D01*
X269254Y304435D01*
X269158Y304474D01*
X269064Y304517D01*
X269044Y304519D01*
X269026Y304527D01*
X268859Y304545D01*
X268097Y304545D01*
X268077Y304542D01*
X268058Y304544D01*
X267956Y304522D01*
X267854Y304506D01*
X267837Y304496D01*
X267817Y304492D01*
X267728Y304439D01*
X267637Y304390D01*
X267623Y304376D01*
X267606Y304366D01*
X267539Y304287D01*
X267467Y304212D01*
X267459Y304194D01*
X267446Y304179D01*
X267407Y304083D01*
X267364Y303989D01*
X267362Y303969D01*
X267354Y303951D01*
X267336Y303784D01*
X267336Y303317D01*
X265643Y301624D01*
X256581Y301624D01*
X254888Y303317D01*
X254888Y312379D01*
X256581Y314072D01*
X257048Y314072D01*
X257068Y314075D01*
X257087Y314073D01*
X257189Y314095D01*
X257291Y314111D01*
X257308Y314121D01*
X257328Y314125D01*
X257417Y314178D01*
X257508Y314227D01*
X257522Y314241D01*
X257539Y314251D01*
X257606Y314330D01*
X257678Y314405D01*
X257686Y314423D01*
X257699Y314438D01*
X257738Y314534D01*
X257781Y314628D01*
X257783Y314648D01*
X257791Y314666D01*
X257809Y314833D01*
X257809Y328063D01*
X257795Y328153D01*
X257787Y328244D01*
X257775Y328274D01*
X257770Y328306D01*
X257727Y328386D01*
X257691Y328470D01*
X257665Y328503D01*
X257654Y328523D01*
X257631Y328545D01*
X257586Y328601D01*
X256213Y329975D01*
X255333Y332099D01*
X255333Y334397D01*
X256213Y336521D01*
X257839Y338147D01*
X259963Y339027D01*
X262261Y339027D01*
X264385Y338147D01*
X266011Y336521D01*
X266891Y334397D01*
X266891Y332099D01*
X266011Y329975D01*
X264638Y328601D01*
X264585Y328527D01*
X264525Y328458D01*
X264513Y328428D01*
X264494Y328402D01*
X264467Y328315D01*
X264433Y328230D01*
X264429Y328189D01*
X264422Y328167D01*
X264423Y328134D01*
X264415Y328063D01*
X264415Y314833D01*
X264418Y314813D01*
X264416Y314794D01*
X264438Y314692D01*
X264454Y314590D01*
X264464Y314573D01*
X264468Y314553D01*
X264521Y314464D01*
X264570Y314373D01*
X264584Y314359D01*
X264594Y314342D01*
X264673Y314275D01*
X264748Y314203D01*
X264766Y314195D01*
X264781Y314182D01*
X264877Y314143D01*
X264971Y314100D01*
X264991Y314098D01*
X265009Y314090D01*
X265176Y314072D01*
X265643Y314072D01*
X267336Y312379D01*
X267336Y311912D01*
X267339Y311892D01*
X267337Y311873D01*
X267359Y311771D01*
X267375Y311669D01*
X267385Y311652D01*
X267389Y311632D01*
X267442Y311543D01*
X267491Y311452D01*
X267505Y311438D01*
X267515Y311421D01*
X267594Y311354D01*
X267669Y311282D01*
X267687Y311274D01*
X267702Y311261D01*
X267798Y311222D01*
X267892Y311179D01*
X267912Y311177D01*
X267930Y311169D01*
X268097Y311151D01*
X268859Y311151D01*
X268879Y311154D01*
X268898Y311152D01*
X269000Y311174D01*
X269102Y311190D01*
X269119Y311200D01*
X269139Y311204D01*
X269228Y311257D01*
X269319Y311306D01*
X269333Y311320D01*
X269350Y311330D01*
X269417Y311409D01*
X269489Y311484D01*
X269497Y311502D01*
X269510Y311517D01*
X269549Y311613D01*
X269592Y311707D01*
X269594Y311727D01*
X269602Y311745D01*
X269620Y311912D01*
X269620Y312379D01*
X271313Y314072D01*
X280375Y314072D01*
X282068Y312379D01*
X282068Y307372D01*
X282082Y307282D01*
X282090Y307191D01*
X282102Y307162D01*
X282107Y307130D01*
X282150Y307049D01*
X282186Y306965D01*
X282212Y306933D01*
X282223Y306912D01*
X282246Y306890D01*
X282291Y306834D01*
X297689Y291436D01*
X297689Y236347D01*
X297692Y236327D01*
X297690Y236308D01*
X297712Y236206D01*
X297728Y236104D01*
X297738Y236087D01*
X297742Y236067D01*
X297795Y235978D01*
X297844Y235887D01*
X297858Y235873D01*
X297868Y235856D01*
X297947Y235789D01*
X298022Y235717D01*
X298040Y235709D01*
X298055Y235696D01*
X298064Y235693D01*
X299213Y234544D01*
X299213Y210972D01*
X298171Y209930D01*
X290601Y209930D01*
G37*
%LPD*%
G36*
X225833Y40528D02*
X225833Y40528D01*
X225924Y40536D01*
X225954Y40548D01*
X225986Y40553D01*
X226066Y40596D01*
X226150Y40632D01*
X226182Y40658D01*
X226203Y40669D01*
X226225Y40692D01*
X226281Y40737D01*
X228676Y43132D01*
X228729Y43206D01*
X228789Y43275D01*
X228801Y43305D01*
X228820Y43332D01*
X228847Y43419D01*
X228881Y43503D01*
X228885Y43544D01*
X228892Y43567D01*
X228891Y43599D01*
X228899Y43670D01*
X228899Y51840D01*
X228896Y51859D01*
X228898Y51879D01*
X228876Y51981D01*
X228860Y52083D01*
X228850Y52100D01*
X228846Y52120D01*
X228793Y52209D01*
X228744Y52300D01*
X228730Y52314D01*
X228720Y52331D01*
X228641Y52398D01*
X228566Y52469D01*
X228548Y52478D01*
X228533Y52491D01*
X228437Y52529D01*
X228343Y52573D01*
X228323Y52575D01*
X228305Y52583D01*
X228138Y52601D01*
X227423Y52601D01*
X227423Y53316D01*
X227420Y53336D01*
X227422Y53355D01*
X227400Y53457D01*
X227383Y53559D01*
X227374Y53576D01*
X227370Y53596D01*
X227317Y53685D01*
X227268Y53776D01*
X227254Y53790D01*
X227244Y53807D01*
X227165Y53874D01*
X227090Y53946D01*
X227072Y53954D01*
X227057Y53967D01*
X226960Y54006D01*
X226867Y54049D01*
X226847Y54051D01*
X226829Y54059D01*
X226662Y54077D01*
X221859Y54077D01*
X221859Y59662D01*
X222032Y60309D01*
X222367Y60888D01*
X222840Y61361D01*
X223419Y61696D01*
X223618Y61749D01*
X223640Y61759D01*
X223663Y61763D01*
X223751Y61809D01*
X223842Y61850D01*
X223859Y61866D01*
X223881Y61878D01*
X223949Y61950D01*
X224022Y62017D01*
X224034Y62038D01*
X224050Y62056D01*
X224092Y62146D01*
X224139Y62233D01*
X224144Y62257D01*
X224154Y62279D01*
X224165Y62378D01*
X224182Y62476D01*
X224178Y62500D01*
X224181Y62523D01*
X224160Y62621D01*
X224145Y62719D01*
X224134Y62740D01*
X224129Y62764D01*
X224078Y62849D01*
X224032Y62937D01*
X224015Y62954D01*
X224002Y62975D01*
X223927Y63040D01*
X223856Y63109D01*
X223834Y63119D01*
X223816Y63135D01*
X223723Y63172D01*
X223634Y63215D01*
X223610Y63218D01*
X223587Y63227D01*
X223421Y63245D01*
X187709Y63245D01*
X187619Y63231D01*
X187528Y63223D01*
X187498Y63211D01*
X187466Y63206D01*
X187386Y63163D01*
X187302Y63127D01*
X187270Y63101D01*
X187249Y63090D01*
X187227Y63067D01*
X187171Y63022D01*
X165962Y41813D01*
X165920Y41755D01*
X165871Y41703D01*
X165849Y41656D01*
X165818Y41614D01*
X165797Y41545D01*
X165767Y41480D01*
X165761Y41428D01*
X165746Y41378D01*
X165748Y41307D01*
X165740Y41236D01*
X165751Y41185D01*
X165752Y41133D01*
X165777Y41065D01*
X165792Y40995D01*
X165819Y40951D01*
X165837Y40902D01*
X165882Y40846D01*
X165918Y40784D01*
X165958Y40750D01*
X165990Y40710D01*
X166051Y40671D01*
X166105Y40624D01*
X166154Y40605D01*
X166197Y40577D01*
X166267Y40559D01*
X166333Y40532D01*
X166405Y40524D01*
X166436Y40516D01*
X166459Y40518D01*
X166500Y40514D01*
X225743Y40514D01*
X225833Y40528D01*
G37*
%LPC*%
G36*
X55075Y212371D02*
X55075Y212371D01*
X54033Y213413D01*
X54033Y231387D01*
X55075Y232429D01*
X59998Y232429D01*
X60018Y232432D01*
X60037Y232430D01*
X60139Y232452D01*
X60241Y232468D01*
X60258Y232478D01*
X60278Y232482D01*
X60367Y232535D01*
X60458Y232584D01*
X60472Y232598D01*
X60489Y232608D01*
X60556Y232687D01*
X60628Y232762D01*
X60636Y232780D01*
X60649Y232795D01*
X60688Y232891D01*
X60731Y232985D01*
X60733Y233005D01*
X60741Y233023D01*
X60759Y233190D01*
X60759Y257200D01*
X86771Y283212D01*
X86824Y283286D01*
X86884Y283355D01*
X86896Y283386D01*
X86915Y283412D01*
X86942Y283499D01*
X86976Y283584D01*
X86980Y283625D01*
X86987Y283647D01*
X86986Y283679D01*
X86994Y283750D01*
X86994Y289519D01*
X88687Y291212D01*
X89154Y291212D01*
X89174Y291215D01*
X89193Y291213D01*
X89295Y291235D01*
X89397Y291251D01*
X89414Y291261D01*
X89434Y291265D01*
X89523Y291318D01*
X89614Y291367D01*
X89628Y291381D01*
X89645Y291391D01*
X89712Y291470D01*
X89784Y291545D01*
X89792Y291563D01*
X89805Y291578D01*
X89844Y291674D01*
X89887Y291768D01*
X89889Y291788D01*
X89897Y291806D01*
X89915Y291973D01*
X89915Y292735D01*
X89912Y292755D01*
X89914Y292774D01*
X89892Y292876D01*
X89876Y292978D01*
X89866Y292995D01*
X89862Y293015D01*
X89809Y293104D01*
X89760Y293195D01*
X89746Y293209D01*
X89736Y293226D01*
X89657Y293293D01*
X89582Y293365D01*
X89564Y293373D01*
X89549Y293386D01*
X89453Y293425D01*
X89359Y293468D01*
X89339Y293470D01*
X89321Y293478D01*
X89154Y293496D01*
X88687Y293496D01*
X86994Y295189D01*
X86994Y304251D01*
X88687Y305944D01*
X97749Y305944D01*
X99442Y304251D01*
X99442Y295189D01*
X97749Y293496D01*
X97282Y293496D01*
X97262Y293493D01*
X97243Y293495D01*
X97141Y293473D01*
X97039Y293457D01*
X97022Y293447D01*
X97002Y293443D01*
X96913Y293390D01*
X96822Y293341D01*
X96808Y293327D01*
X96791Y293317D01*
X96724Y293238D01*
X96652Y293163D01*
X96644Y293145D01*
X96631Y293130D01*
X96592Y293034D01*
X96549Y292940D01*
X96547Y292920D01*
X96539Y292902D01*
X96521Y292735D01*
X96521Y291973D01*
X96524Y291953D01*
X96522Y291934D01*
X96544Y291832D01*
X96560Y291730D01*
X96570Y291713D01*
X96574Y291693D01*
X96627Y291604D01*
X96676Y291513D01*
X96690Y291499D01*
X96700Y291482D01*
X96779Y291415D01*
X96854Y291343D01*
X96872Y291335D01*
X96887Y291322D01*
X96983Y291283D01*
X97077Y291240D01*
X97097Y291238D01*
X97115Y291230D01*
X97282Y291212D01*
X97749Y291212D01*
X99442Y289519D01*
X99442Y280457D01*
X97749Y278764D01*
X91980Y278764D01*
X91890Y278750D01*
X91799Y278742D01*
X91770Y278730D01*
X91738Y278725D01*
X91657Y278682D01*
X91573Y278646D01*
X91541Y278620D01*
X91520Y278609D01*
X91498Y278586D01*
X91442Y278541D01*
X67588Y254687D01*
X67535Y254613D01*
X67475Y254544D01*
X67463Y254513D01*
X67444Y254487D01*
X67417Y254400D01*
X67399Y254356D01*
X67393Y254341D01*
X67393Y254339D01*
X67383Y254315D01*
X67379Y254274D01*
X67372Y254252D01*
X67373Y254220D01*
X67365Y254149D01*
X67365Y233190D01*
X67368Y233170D01*
X67366Y233151D01*
X67388Y233049D01*
X67404Y232947D01*
X67414Y232930D01*
X67418Y232910D01*
X67471Y232821D01*
X67520Y232730D01*
X67534Y232716D01*
X67544Y232699D01*
X67623Y232632D01*
X67698Y232560D01*
X67716Y232552D01*
X67731Y232539D01*
X67827Y232500D01*
X67921Y232457D01*
X67941Y232455D01*
X67959Y232447D01*
X68126Y232429D01*
X73049Y232429D01*
X74091Y231387D01*
X74091Y213413D01*
X73049Y212371D01*
X55075Y212371D01*
G37*
%LPD*%
%LPC*%
G36*
X218987Y284781D02*
X218987Y284781D01*
X217945Y285823D01*
X217945Y293297D01*
X218987Y294339D01*
X226660Y294339D01*
X226680Y294342D01*
X226699Y294340D01*
X226801Y294362D01*
X226903Y294378D01*
X226920Y294388D01*
X226940Y294392D01*
X227029Y294445D01*
X227120Y294494D01*
X227134Y294508D01*
X227151Y294518D01*
X227218Y294597D01*
X227290Y294672D01*
X227298Y294690D01*
X227311Y294705D01*
X227350Y294801D01*
X227393Y294895D01*
X227395Y294915D01*
X227403Y294933D01*
X227421Y295100D01*
X227421Y296720D01*
X227418Y296740D01*
X227420Y296759D01*
X227398Y296861D01*
X227382Y296963D01*
X227372Y296980D01*
X227368Y297000D01*
X227315Y297089D01*
X227266Y297180D01*
X227252Y297194D01*
X227242Y297211D01*
X227163Y297278D01*
X227088Y297350D01*
X227070Y297358D01*
X227055Y297371D01*
X226959Y297410D01*
X226865Y297453D01*
X226845Y297455D01*
X226827Y297463D01*
X226660Y297481D01*
X218987Y297481D01*
X217945Y298523D01*
X217945Y305997D01*
X218987Y307039D01*
X242461Y307039D01*
X243503Y305997D01*
X243503Y298523D01*
X242461Y297481D01*
X234788Y297481D01*
X234768Y297478D01*
X234749Y297480D01*
X234647Y297458D01*
X234545Y297442D01*
X234528Y297432D01*
X234508Y297428D01*
X234419Y297375D01*
X234328Y297326D01*
X234314Y297312D01*
X234297Y297302D01*
X234230Y297223D01*
X234158Y297148D01*
X234150Y297130D01*
X234137Y297115D01*
X234098Y297019D01*
X234055Y296925D01*
X234053Y296905D01*
X234045Y296887D01*
X234027Y296720D01*
X234027Y295100D01*
X234030Y295080D01*
X234028Y295061D01*
X234050Y294959D01*
X234066Y294857D01*
X234076Y294840D01*
X234080Y294820D01*
X234133Y294731D01*
X234182Y294640D01*
X234196Y294626D01*
X234206Y294609D01*
X234285Y294542D01*
X234360Y294470D01*
X234378Y294462D01*
X234393Y294449D01*
X234489Y294410D01*
X234583Y294367D01*
X234603Y294365D01*
X234621Y294357D01*
X234788Y294339D01*
X239569Y294339D01*
X239659Y294353D01*
X239750Y294361D01*
X239779Y294373D01*
X239811Y294378D01*
X239892Y294421D01*
X239976Y294457D01*
X240008Y294483D01*
X240029Y294494D01*
X240051Y294517D01*
X240107Y294562D01*
X241456Y295911D01*
X254127Y295911D01*
X254147Y295914D01*
X254166Y295912D01*
X254268Y295934D01*
X254370Y295950D01*
X254387Y295960D01*
X254407Y295964D01*
X254496Y296017D01*
X254587Y296066D01*
X254601Y296080D01*
X254618Y296090D01*
X254685Y296169D01*
X254757Y296244D01*
X254765Y296262D01*
X254778Y296277D01*
X254817Y296373D01*
X254860Y296467D01*
X254862Y296487D01*
X254870Y296505D01*
X254888Y296672D01*
X254888Y297139D01*
X256581Y298832D01*
X265643Y298832D01*
X267336Y297139D01*
X267336Y288077D01*
X265643Y286384D01*
X256581Y286384D01*
X254888Y288077D01*
X254888Y288544D01*
X254885Y288564D01*
X254887Y288583D01*
X254865Y288685D01*
X254849Y288787D01*
X254839Y288804D01*
X254835Y288824D01*
X254782Y288913D01*
X254733Y289004D01*
X254719Y289018D01*
X254709Y289035D01*
X254630Y289102D01*
X254555Y289174D01*
X254537Y289182D01*
X254522Y289195D01*
X254426Y289234D01*
X254332Y289277D01*
X254312Y289279D01*
X254294Y289287D01*
X254127Y289305D01*
X244507Y289305D01*
X244417Y289291D01*
X244326Y289283D01*
X244297Y289271D01*
X244265Y289266D01*
X244184Y289223D01*
X244100Y289187D01*
X244068Y289161D01*
X244047Y289150D01*
X244025Y289127D01*
X243969Y289082D01*
X243726Y288839D01*
X243673Y288765D01*
X243613Y288696D01*
X243601Y288665D01*
X243582Y288639D01*
X243555Y288552D01*
X243521Y288467D01*
X243517Y288426D01*
X243510Y288404D01*
X243511Y288372D01*
X243503Y288301D01*
X243503Y285823D01*
X242461Y284781D01*
X218987Y284781D01*
G37*
%LPD*%
%LPC*%
G36*
X291455Y91563D02*
X291455Y91563D01*
X285873Y97145D01*
X285873Y105071D01*
X285874Y105072D01*
X285934Y105156D01*
X285940Y105175D01*
X285951Y105192D01*
X285976Y105292D01*
X286006Y105391D01*
X286006Y105411D01*
X286011Y105430D01*
X286003Y105533D01*
X286000Y105637D01*
X285993Y105656D01*
X285992Y105675D01*
X285951Y105770D01*
X285916Y105868D01*
X285903Y105883D01*
X285895Y105902D01*
X285791Y106033D01*
X265175Y126648D01*
X265175Y141195D01*
X265161Y141285D01*
X265153Y141376D01*
X265141Y141406D01*
X265136Y141438D01*
X265093Y141519D01*
X265057Y141603D01*
X265031Y141635D01*
X265020Y141655D01*
X264997Y141678D01*
X264952Y141734D01*
X263651Y143035D01*
X263651Y147033D01*
X266479Y149861D01*
X270477Y149861D01*
X273305Y147033D01*
X273305Y143035D01*
X272004Y141734D01*
X271951Y141660D01*
X271891Y141590D01*
X271879Y141560D01*
X271860Y141534D01*
X271833Y141447D01*
X271799Y141362D01*
X271795Y141321D01*
X271788Y141299D01*
X271789Y141267D01*
X271781Y141195D01*
X271781Y129699D01*
X271795Y129609D01*
X271803Y129518D01*
X271815Y129489D01*
X271820Y129457D01*
X271863Y129376D01*
X271899Y129292D01*
X271925Y129260D01*
X271936Y129239D01*
X271959Y129217D01*
X272004Y129161D01*
X290461Y110703D01*
X290477Y110692D01*
X290490Y110676D01*
X290577Y110620D01*
X290661Y110560D01*
X290680Y110554D01*
X290697Y110543D01*
X290797Y110518D01*
X290896Y110488D01*
X290916Y110488D01*
X290935Y110483D01*
X291038Y110491D01*
X291142Y110494D01*
X291161Y110501D01*
X291181Y110502D01*
X291276Y110543D01*
X291373Y110578D01*
X291389Y110591D01*
X291407Y110599D01*
X291434Y110621D01*
X299349Y110621D01*
X304931Y105039D01*
X304931Y97145D01*
X299349Y91563D01*
X291455Y91563D01*
G37*
%LPD*%
%LPC*%
G36*
X341917Y135127D02*
X341917Y135127D01*
X339089Y137955D01*
X339089Y141953D01*
X340136Y143000D01*
X340189Y143074D01*
X340249Y143144D01*
X340261Y143174D01*
X340280Y143200D01*
X340307Y143287D01*
X340341Y143372D01*
X340345Y143413D01*
X340352Y143435D01*
X340351Y143467D01*
X340359Y143539D01*
X340359Y145161D01*
X340356Y145181D01*
X340358Y145200D01*
X340336Y145302D01*
X340320Y145404D01*
X340310Y145421D01*
X340306Y145441D01*
X340253Y145530D01*
X340204Y145621D01*
X340190Y145635D01*
X340180Y145652D01*
X340101Y145719D01*
X340026Y145791D01*
X340008Y145799D01*
X339993Y145812D01*
X339897Y145851D01*
X339803Y145894D01*
X339783Y145896D01*
X339765Y145904D01*
X339598Y145922D01*
X339131Y145922D01*
X337438Y147615D01*
X337438Y151384D01*
X337436Y151397D01*
X337437Y151407D01*
X337436Y151413D01*
X337437Y151423D01*
X337415Y151525D01*
X337399Y151627D01*
X337389Y151644D01*
X337385Y151664D01*
X337332Y151753D01*
X337283Y151844D01*
X337269Y151858D01*
X337259Y151875D01*
X337180Y151942D01*
X337105Y152014D01*
X337087Y152022D01*
X337072Y152035D01*
X336976Y152074D01*
X336882Y152117D01*
X336862Y152119D01*
X336844Y152127D01*
X336677Y152145D01*
X325374Y152145D01*
X325354Y152142D01*
X325335Y152144D01*
X325233Y152122D01*
X325131Y152106D01*
X325114Y152096D01*
X325094Y152092D01*
X325005Y152039D01*
X324914Y151990D01*
X324900Y151976D01*
X324883Y151966D01*
X324816Y151887D01*
X324744Y151812D01*
X324736Y151794D01*
X324723Y151779D01*
X324684Y151683D01*
X324641Y151589D01*
X324639Y151569D01*
X324631Y151551D01*
X324613Y151384D01*
X324613Y143662D01*
X323571Y142620D01*
X316001Y142620D01*
X314959Y143662D01*
X314959Y167234D01*
X316001Y168276D01*
X323571Y168276D01*
X324613Y167234D01*
X324613Y159512D01*
X324616Y159492D01*
X324614Y159473D01*
X324636Y159371D01*
X324652Y159269D01*
X324662Y159252D01*
X324666Y159232D01*
X324719Y159143D01*
X324768Y159052D01*
X324782Y159038D01*
X324792Y159021D01*
X324871Y158954D01*
X324946Y158882D01*
X324964Y158874D01*
X324979Y158861D01*
X325075Y158822D01*
X325169Y158779D01*
X325189Y158777D01*
X325207Y158769D01*
X325374Y158751D01*
X341728Y158751D01*
X341886Y158593D01*
X341960Y158540D01*
X342029Y158480D01*
X342060Y158468D01*
X342086Y158449D01*
X342173Y158422D01*
X342258Y158388D01*
X342299Y158384D01*
X342321Y158377D01*
X342353Y158378D01*
X342424Y158370D01*
X348193Y158370D01*
X349886Y156677D01*
X349886Y147615D01*
X348193Y145922D01*
X347726Y145922D01*
X347706Y145919D01*
X347687Y145921D01*
X347585Y145899D01*
X347483Y145883D01*
X347466Y145873D01*
X347446Y145869D01*
X347357Y145816D01*
X347266Y145767D01*
X347252Y145753D01*
X347235Y145743D01*
X347168Y145664D01*
X347096Y145589D01*
X347088Y145571D01*
X347075Y145556D01*
X347036Y145460D01*
X346993Y145366D01*
X346991Y145346D01*
X346983Y145328D01*
X346965Y145161D01*
X346965Y144047D01*
X346979Y143957D01*
X346987Y143866D01*
X346999Y143836D01*
X347004Y143804D01*
X347047Y143723D01*
X347083Y143639D01*
X347109Y143607D01*
X347120Y143587D01*
X347143Y143564D01*
X347188Y143508D01*
X348743Y141953D01*
X348743Y137955D01*
X345915Y135127D01*
X341917Y135127D01*
G37*
%LPD*%
%LPC*%
G36*
X218987Y310181D02*
X218987Y310181D01*
X217945Y311223D01*
X217945Y318697D01*
X218987Y319739D01*
X226568Y319739D01*
X226588Y319742D01*
X226607Y319740D01*
X226709Y319762D01*
X226811Y319778D01*
X226828Y319788D01*
X226848Y319792D01*
X226937Y319845D01*
X227028Y319894D01*
X227042Y319908D01*
X227059Y319918D01*
X227126Y319997D01*
X227198Y320072D01*
X227206Y320090D01*
X227219Y320105D01*
X227258Y320201D01*
X227301Y320295D01*
X227303Y320315D01*
X227311Y320333D01*
X227329Y320500D01*
X227329Y330327D01*
X227326Y330347D01*
X227328Y330366D01*
X227306Y330468D01*
X227290Y330570D01*
X227280Y330587D01*
X227276Y330607D01*
X227223Y330696D01*
X227174Y330787D01*
X227160Y330801D01*
X227150Y330818D01*
X227071Y330885D01*
X226996Y330957D01*
X226978Y330965D01*
X226963Y330978D01*
X226867Y331017D01*
X226773Y331060D01*
X226753Y331062D01*
X226735Y331070D01*
X226568Y331088D01*
X226101Y331088D01*
X225582Y331607D01*
X225524Y331649D01*
X225472Y331698D01*
X225425Y331720D01*
X225383Y331751D01*
X225314Y331772D01*
X225249Y331802D01*
X225197Y331808D01*
X225147Y331823D01*
X225076Y331821D01*
X225005Y331829D01*
X224954Y331818D01*
X224902Y331817D01*
X224834Y331792D01*
X224764Y331777D01*
X224719Y331750D01*
X224671Y331732D01*
X224615Y331687D01*
X224553Y331651D01*
X224519Y331611D01*
X224479Y331579D01*
X224440Y331518D01*
X224393Y331464D01*
X224374Y331415D01*
X224346Y331372D01*
X224328Y331302D01*
X224301Y331236D01*
X224293Y331164D01*
X224285Y331133D01*
X224287Y331110D01*
X224283Y331069D01*
X224283Y330741D01*
X221455Y327913D01*
X217457Y327913D01*
X214629Y330741D01*
X214629Y334739D01*
X217457Y337567D01*
X219297Y337567D01*
X219387Y337581D01*
X219478Y337589D01*
X219507Y337601D01*
X219539Y337606D01*
X219620Y337649D01*
X219704Y337685D01*
X219736Y337711D01*
X219757Y337722D01*
X219779Y337745D01*
X219835Y337790D01*
X222660Y340615D01*
X223647Y340615D01*
X223667Y340618D01*
X223686Y340616D01*
X223788Y340638D01*
X223890Y340654D01*
X223907Y340664D01*
X223927Y340668D01*
X224016Y340721D01*
X224107Y340770D01*
X224121Y340784D01*
X224138Y340794D01*
X224205Y340873D01*
X224277Y340948D01*
X224285Y340966D01*
X224298Y340981D01*
X224337Y341077D01*
X224380Y341171D01*
X224382Y341191D01*
X224390Y341209D01*
X224408Y341376D01*
X224408Y341843D01*
X226101Y343536D01*
X235163Y343536D01*
X236856Y341843D01*
X236856Y332781D01*
X235163Y331088D01*
X234696Y331088D01*
X234676Y331085D01*
X234657Y331087D01*
X234555Y331065D01*
X234453Y331049D01*
X234436Y331039D01*
X234416Y331035D01*
X234327Y330982D01*
X234236Y330933D01*
X234222Y330919D01*
X234205Y330909D01*
X234138Y330830D01*
X234066Y330755D01*
X234058Y330737D01*
X234045Y330722D01*
X234006Y330626D01*
X233963Y330532D01*
X233961Y330512D01*
X233953Y330494D01*
X233935Y330327D01*
X233935Y320500D01*
X233938Y320480D01*
X233936Y320461D01*
X233958Y320359D01*
X233974Y320257D01*
X233984Y320240D01*
X233988Y320220D01*
X234041Y320131D01*
X234090Y320040D01*
X234104Y320026D01*
X234114Y320009D01*
X234193Y319942D01*
X234268Y319870D01*
X234286Y319862D01*
X234301Y319849D01*
X234397Y319810D01*
X234491Y319767D01*
X234511Y319765D01*
X234529Y319757D01*
X234696Y319739D01*
X242461Y319739D01*
X243503Y318697D01*
X243503Y311223D01*
X242461Y310181D01*
X218987Y310181D01*
G37*
%LPD*%
%LPC*%
G36*
X303301Y209930D02*
X303301Y209930D01*
X302259Y210972D01*
X302259Y234544D01*
X303427Y235711D01*
X303482Y235741D01*
X303496Y235755D01*
X303513Y235765D01*
X303580Y235844D01*
X303652Y235919D01*
X303660Y235937D01*
X303673Y235952D01*
X303712Y236048D01*
X303755Y236142D01*
X303757Y236162D01*
X303765Y236180D01*
X303783Y236347D01*
X303783Y246507D01*
X303780Y246527D01*
X303782Y246546D01*
X303760Y246648D01*
X303744Y246750D01*
X303734Y246767D01*
X303730Y246787D01*
X303677Y246876D01*
X303628Y246967D01*
X303614Y246981D01*
X303604Y246998D01*
X303525Y247065D01*
X303450Y247137D01*
X303432Y247145D01*
X303417Y247158D01*
X303321Y247197D01*
X303227Y247240D01*
X303207Y247242D01*
X303189Y247250D01*
X303022Y247268D01*
X302555Y247268D01*
X300862Y248961D01*
X300862Y258023D01*
X302555Y259716D01*
X311617Y259716D01*
X313310Y258023D01*
X313310Y248961D01*
X311617Y247268D01*
X311150Y247268D01*
X311130Y247265D01*
X311111Y247267D01*
X311009Y247245D01*
X310907Y247229D01*
X310890Y247219D01*
X310870Y247215D01*
X310781Y247162D01*
X310690Y247113D01*
X310676Y247099D01*
X310659Y247089D01*
X310592Y247010D01*
X310520Y246935D01*
X310512Y246917D01*
X310499Y246902D01*
X310460Y246806D01*
X310417Y246712D01*
X310415Y246692D01*
X310407Y246674D01*
X310389Y246507D01*
X310389Y236347D01*
X310392Y236327D01*
X310390Y236308D01*
X310412Y236206D01*
X310428Y236104D01*
X310438Y236087D01*
X310442Y236067D01*
X310495Y235978D01*
X310544Y235887D01*
X310558Y235873D01*
X310568Y235856D01*
X310647Y235789D01*
X310722Y235717D01*
X310740Y235709D01*
X310755Y235696D01*
X310764Y235693D01*
X311913Y234544D01*
X311913Y210972D01*
X310871Y209930D01*
X303301Y209930D01*
G37*
%LPD*%
%LPC*%
G36*
X340401Y232028D02*
X340401Y232028D01*
X338708Y233721D01*
X338708Y239490D01*
X338694Y239580D01*
X338686Y239671D01*
X338674Y239700D01*
X338669Y239732D01*
X338626Y239813D01*
X338590Y239897D01*
X338564Y239929D01*
X338553Y239950D01*
X338530Y239972D01*
X338485Y240028D01*
X338453Y240060D01*
X338388Y240107D01*
X338375Y240119D01*
X338369Y240122D01*
X338310Y240173D01*
X338279Y240185D01*
X338253Y240204D01*
X338166Y240231D01*
X338081Y240265D01*
X338040Y240269D01*
X338018Y240276D01*
X337986Y240275D01*
X337915Y240283D01*
X336329Y240283D01*
X333501Y243111D01*
X333501Y244697D01*
X333487Y244787D01*
X333479Y244878D01*
X333467Y244907D01*
X333462Y244939D01*
X333419Y245020D01*
X333383Y245104D01*
X333357Y245136D01*
X333346Y245157D01*
X333323Y245179D01*
X333278Y245235D01*
X331468Y247045D01*
X331394Y247098D01*
X331325Y247158D01*
X331294Y247170D01*
X331268Y247189D01*
X331181Y247216D01*
X331096Y247250D01*
X331055Y247254D01*
X331033Y247261D01*
X331001Y247260D01*
X330930Y247268D01*
X325923Y247268D01*
X324230Y248961D01*
X324230Y258023D01*
X325923Y259716D01*
X334985Y259716D01*
X336678Y258023D01*
X336678Y251492D01*
X336692Y251402D01*
X336700Y251311D01*
X336712Y251282D01*
X336717Y251250D01*
X336760Y251169D01*
X336796Y251085D01*
X336822Y251053D01*
X336833Y251032D01*
X336856Y251010D01*
X336901Y250954D01*
X337695Y250160D01*
X337769Y250107D01*
X337838Y250047D01*
X337869Y250035D01*
X337895Y250016D01*
X337982Y249989D01*
X338067Y249955D01*
X338108Y249951D01*
X338130Y249944D01*
X338162Y249945D01*
X338233Y249937D01*
X340327Y249937D01*
X343155Y247109D01*
X343155Y245237D01*
X343158Y245217D01*
X343156Y245198D01*
X343178Y245096D01*
X343194Y244994D01*
X343204Y244977D01*
X343208Y244957D01*
X343261Y244868D01*
X343310Y244777D01*
X343324Y244763D01*
X343334Y244746D01*
X343413Y244679D01*
X343488Y244607D01*
X343506Y244599D01*
X343521Y244586D01*
X343617Y244547D01*
X343711Y244504D01*
X343731Y244502D01*
X343749Y244494D01*
X343916Y244476D01*
X349463Y244476D01*
X351156Y242783D01*
X351156Y233721D01*
X349463Y232028D01*
X340401Y232028D01*
G37*
%LPD*%
%LPC*%
G36*
X103927Y293496D02*
X103927Y293496D01*
X102234Y295189D01*
X102234Y304251D01*
X103927Y305944D01*
X112989Y305944D01*
X114682Y304251D01*
X114682Y304165D01*
X114685Y304145D01*
X114683Y304126D01*
X114705Y304024D01*
X114721Y303922D01*
X114731Y303905D01*
X114735Y303885D01*
X114788Y303796D01*
X114837Y303705D01*
X114851Y303691D01*
X114861Y303674D01*
X114940Y303607D01*
X115015Y303535D01*
X115033Y303527D01*
X115048Y303514D01*
X115144Y303475D01*
X115238Y303432D01*
X115258Y303430D01*
X115276Y303422D01*
X115443Y303404D01*
X116967Y303404D01*
X116987Y303407D01*
X117006Y303405D01*
X117108Y303427D01*
X117210Y303443D01*
X117227Y303453D01*
X117247Y303457D01*
X117336Y303510D01*
X117427Y303559D01*
X117441Y303573D01*
X117458Y303583D01*
X117525Y303662D01*
X117597Y303737D01*
X117605Y303755D01*
X117618Y303770D01*
X117657Y303866D01*
X117700Y303960D01*
X117702Y303980D01*
X117710Y303998D01*
X117728Y304165D01*
X117728Y304251D01*
X119421Y305944D01*
X128483Y305944D01*
X130176Y304251D01*
X130176Y295189D01*
X128483Y293496D01*
X119421Y293496D01*
X117728Y295189D01*
X117728Y295275D01*
X117727Y295282D01*
X117727Y295283D01*
X117726Y295290D01*
X117725Y295295D01*
X117727Y295314D01*
X117705Y295416D01*
X117689Y295518D01*
X117679Y295535D01*
X117675Y295555D01*
X117622Y295644D01*
X117573Y295735D01*
X117559Y295749D01*
X117549Y295766D01*
X117470Y295833D01*
X117395Y295905D01*
X117377Y295913D01*
X117362Y295926D01*
X117266Y295965D01*
X117172Y296008D01*
X117152Y296010D01*
X117134Y296018D01*
X116967Y296036D01*
X115443Y296036D01*
X115423Y296033D01*
X115404Y296035D01*
X115302Y296013D01*
X115200Y295997D01*
X115183Y295987D01*
X115163Y295983D01*
X115074Y295930D01*
X114983Y295881D01*
X114969Y295867D01*
X114952Y295857D01*
X114885Y295778D01*
X114813Y295703D01*
X114805Y295685D01*
X114792Y295670D01*
X114753Y295574D01*
X114710Y295480D01*
X114708Y295460D01*
X114700Y295442D01*
X114682Y295275D01*
X114682Y295189D01*
X112989Y293496D01*
X103927Y293496D01*
G37*
%LPD*%
%LPC*%
G36*
X291455Y66163D02*
X291455Y66163D01*
X285873Y71745D01*
X285873Y79639D01*
X291455Y85221D01*
X299349Y85221D01*
X304931Y79639D01*
X304931Y71745D01*
X299349Y66163D01*
X291455Y66163D01*
G37*
%LPD*%
%LPC*%
G36*
X302555Y262508D02*
X302555Y262508D01*
X300862Y264201D01*
X300862Y273263D01*
X302555Y274956D01*
X303022Y274956D01*
X303042Y274959D01*
X303061Y274957D01*
X303163Y274979D01*
X303265Y274995D01*
X303282Y275005D01*
X303302Y275009D01*
X303391Y275062D01*
X303482Y275111D01*
X303496Y275125D01*
X303513Y275135D01*
X303580Y275214D01*
X303652Y275289D01*
X303660Y275307D01*
X303673Y275322D01*
X303712Y275418D01*
X303755Y275512D01*
X303757Y275532D01*
X303765Y275550D01*
X303783Y275717D01*
X303783Y277368D01*
X303780Y277388D01*
X303782Y277407D01*
X303760Y277509D01*
X303744Y277611D01*
X303734Y277628D01*
X303730Y277648D01*
X303677Y277737D01*
X303628Y277828D01*
X303614Y277842D01*
X303604Y277859D01*
X303525Y277926D01*
X303450Y277998D01*
X303432Y278006D01*
X303417Y278019D01*
X303321Y278058D01*
X303227Y278101D01*
X303207Y278103D01*
X303189Y278111D01*
X303022Y278129D01*
X302814Y278129D01*
X301307Y279636D01*
X301307Y286530D01*
X302814Y288037D01*
X311358Y288037D01*
X312865Y286530D01*
X312865Y279636D01*
X311358Y278129D01*
X311150Y278129D01*
X311130Y278126D01*
X311111Y278128D01*
X311009Y278106D01*
X310907Y278090D01*
X310890Y278080D01*
X310870Y278076D01*
X310781Y278023D01*
X310690Y277974D01*
X310676Y277960D01*
X310659Y277950D01*
X310592Y277871D01*
X310520Y277796D01*
X310512Y277778D01*
X310499Y277763D01*
X310460Y277667D01*
X310417Y277573D01*
X310415Y277553D01*
X310407Y277535D01*
X310389Y277368D01*
X310389Y275717D01*
X310392Y275697D01*
X310390Y275678D01*
X310412Y275576D01*
X310428Y275474D01*
X310438Y275457D01*
X310442Y275437D01*
X310495Y275348D01*
X310544Y275257D01*
X310558Y275243D01*
X310568Y275226D01*
X310647Y275159D01*
X310722Y275087D01*
X310740Y275079D01*
X310755Y275066D01*
X310851Y275027D01*
X310945Y274984D01*
X310965Y274982D01*
X310983Y274974D01*
X311150Y274956D01*
X311617Y274956D01*
X313310Y273263D01*
X313310Y264201D01*
X311617Y262508D01*
X302555Y262508D01*
G37*
%LPD*%
%LPC*%
G36*
X325923Y262508D02*
X325923Y262508D01*
X324230Y264201D01*
X324230Y273263D01*
X325923Y274956D01*
X326390Y274956D01*
X326410Y274959D01*
X326429Y274957D01*
X326531Y274979D01*
X326633Y274995D01*
X326650Y275005D01*
X326670Y275009D01*
X326759Y275062D01*
X326850Y275111D01*
X326864Y275125D01*
X326881Y275135D01*
X326948Y275214D01*
X327020Y275289D01*
X327028Y275307D01*
X327041Y275322D01*
X327080Y275418D01*
X327123Y275512D01*
X327125Y275532D01*
X327133Y275550D01*
X327151Y275717D01*
X327151Y277368D01*
X327148Y277388D01*
X327150Y277407D01*
X327128Y277509D01*
X327112Y277611D01*
X327102Y277628D01*
X327098Y277648D01*
X327045Y277737D01*
X326996Y277828D01*
X326982Y277842D01*
X326972Y277859D01*
X326893Y277926D01*
X326818Y277998D01*
X326800Y278006D01*
X326785Y278019D01*
X326689Y278058D01*
X326595Y278101D01*
X326575Y278103D01*
X326557Y278111D01*
X326390Y278129D01*
X326182Y278129D01*
X324675Y279636D01*
X324675Y286530D01*
X326182Y288037D01*
X334726Y288037D01*
X336233Y286530D01*
X336233Y279636D01*
X334726Y278129D01*
X334518Y278129D01*
X334498Y278126D01*
X334479Y278128D01*
X334377Y278106D01*
X334275Y278090D01*
X334258Y278080D01*
X334238Y278076D01*
X334149Y278023D01*
X334058Y277974D01*
X334044Y277960D01*
X334027Y277950D01*
X333960Y277871D01*
X333888Y277796D01*
X333880Y277778D01*
X333867Y277763D01*
X333828Y277667D01*
X333785Y277573D01*
X333783Y277553D01*
X333775Y277535D01*
X333757Y277368D01*
X333757Y275717D01*
X333760Y275697D01*
X333758Y275678D01*
X333780Y275576D01*
X333796Y275474D01*
X333806Y275457D01*
X333810Y275437D01*
X333863Y275348D01*
X333912Y275257D01*
X333926Y275243D01*
X333936Y275226D01*
X334015Y275159D01*
X334090Y275087D01*
X334108Y275079D01*
X334123Y275066D01*
X334219Y275027D01*
X334313Y274984D01*
X334333Y274982D01*
X334351Y274974D01*
X334518Y274956D01*
X334985Y274956D01*
X336678Y273263D01*
X336678Y264201D01*
X334985Y262508D01*
X325923Y262508D01*
G37*
%LPD*%
%LPC*%
G36*
X151923Y17097D02*
X151923Y17097D01*
X151923Y28115D01*
X156734Y28115D01*
X157381Y27942D01*
X157960Y27607D01*
X158433Y27134D01*
X158768Y26555D01*
X158941Y25908D01*
X158941Y17097D01*
X151923Y17097D01*
G37*
%LPD*%
%LPC*%
G36*
X95923Y17097D02*
X95923Y17097D01*
X95923Y28115D01*
X100734Y28115D01*
X101381Y27942D01*
X101960Y27607D01*
X102433Y27134D01*
X102768Y26555D01*
X102941Y25908D01*
X102941Y17097D01*
X95923Y17097D01*
G37*
%LPD*%
%LPC*%
G36*
X215923Y17351D02*
X215923Y17351D01*
X215923Y28369D01*
X220734Y28369D01*
X221381Y28196D01*
X221960Y27861D01*
X222433Y27388D01*
X222768Y26809D01*
X222941Y26162D01*
X222941Y17351D01*
X215923Y17351D01*
G37*
%LPD*%
%LPC*%
G36*
X271923Y17351D02*
X271923Y17351D01*
X271923Y28369D01*
X276734Y28369D01*
X277381Y28196D01*
X277960Y27861D01*
X278433Y27388D01*
X278768Y26809D01*
X278941Y26162D01*
X278941Y17351D01*
X271923Y17351D01*
G37*
%LPD*%
%LPC*%
G36*
X141859Y17097D02*
X141859Y17097D01*
X141859Y25908D01*
X142032Y26555D01*
X142367Y27134D01*
X142840Y27607D01*
X143419Y27942D01*
X144066Y28115D01*
X148877Y28115D01*
X148877Y17097D01*
X141859Y17097D01*
G37*
%LPD*%
%LPC*%
G36*
X205859Y17351D02*
X205859Y17351D01*
X205859Y26162D01*
X206032Y26809D01*
X206367Y27388D01*
X206840Y27861D01*
X207419Y28196D01*
X208066Y28369D01*
X212877Y28369D01*
X212877Y17351D01*
X205859Y17351D01*
G37*
%LPD*%
%LPC*%
G36*
X261859Y17351D02*
X261859Y17351D01*
X261859Y26162D01*
X262032Y26809D01*
X262367Y27388D01*
X262840Y27861D01*
X263419Y28196D01*
X264066Y28369D01*
X268877Y28369D01*
X268877Y17351D01*
X261859Y17351D01*
G37*
%LPD*%
%LPC*%
G36*
X85859Y17097D02*
X85859Y17097D01*
X85859Y25908D01*
X86032Y26555D01*
X86367Y27134D01*
X86840Y27607D01*
X87419Y27942D01*
X88066Y28115D01*
X92877Y28115D01*
X92877Y17097D01*
X85859Y17097D01*
G37*
%LPD*%
%LPC*%
G36*
X40585Y223923D02*
X40585Y223923D01*
X40585Y233084D01*
X41589Y232925D01*
X43204Y232400D01*
X44717Y231629D01*
X46092Y230631D01*
X47293Y229430D01*
X48291Y228055D01*
X49062Y226542D01*
X49587Y224927D01*
X49746Y223923D01*
X40585Y223923D01*
G37*
%LPD*%
%LPC*%
G36*
X28378Y223923D02*
X28378Y223923D01*
X28537Y224927D01*
X29062Y226542D01*
X29833Y228055D01*
X30831Y229430D01*
X32032Y230631D01*
X33407Y231629D01*
X34920Y232400D01*
X36535Y232925D01*
X37539Y233084D01*
X37539Y223923D01*
X28378Y223923D01*
G37*
%LPD*%
%LPC*%
G36*
X40585Y220877D02*
X40585Y220877D01*
X49746Y220877D01*
X49587Y219873D01*
X49062Y218258D01*
X48291Y216745D01*
X47293Y215370D01*
X46092Y214169D01*
X44717Y213171D01*
X43204Y212400D01*
X41589Y211875D01*
X40585Y211716D01*
X40585Y220877D01*
G37*
%LPD*%
%LPC*%
G36*
X36535Y211875D02*
X36535Y211875D01*
X34920Y212400D01*
X33407Y213171D01*
X32032Y214169D01*
X30831Y215370D01*
X29833Y216745D01*
X29062Y218258D01*
X28537Y219873D01*
X28378Y220877D01*
X37539Y220877D01*
X37539Y211716D01*
X36535Y211875D01*
G37*
%LPD*%
%LPC*%
G36*
X335911Y102615D02*
X335911Y102615D01*
X335911Y105355D01*
X341939Y111383D01*
X344679Y111383D01*
X344679Y102615D01*
X335911Y102615D01*
G37*
%LPD*%
%LPC*%
G36*
X341939Y90801D02*
X341939Y90801D01*
X335911Y96829D01*
X335911Y99569D01*
X344679Y99569D01*
X344679Y90801D01*
X341939Y90801D01*
G37*
%LPD*%
%LPC*%
G36*
X163575Y221487D02*
X163575Y221487D01*
X163575Y233173D01*
X169038Y233173D01*
X169038Y230881D01*
X168789Y229953D01*
X168308Y229120D01*
X167628Y228440D01*
X166848Y227989D01*
X166774Y227929D01*
X166696Y227874D01*
X166679Y227851D01*
X166657Y227834D01*
X166607Y227753D01*
X166550Y227676D01*
X166541Y227649D01*
X166526Y227625D01*
X166504Y227533D01*
X166475Y227442D01*
X166476Y227413D01*
X166469Y227386D01*
X166477Y227291D01*
X166479Y227196D01*
X166488Y227169D01*
X166491Y227141D01*
X166529Y227054D01*
X166561Y226964D01*
X166578Y226942D01*
X166589Y226916D01*
X166654Y226845D01*
X166712Y226770D01*
X166741Y226749D01*
X166755Y226734D01*
X166784Y226718D01*
X166848Y226671D01*
X167628Y226220D01*
X168308Y225540D01*
X168789Y224707D01*
X169038Y223779D01*
X169038Y221487D01*
X163575Y221487D01*
G37*
%LPD*%
%LPC*%
G36*
X278129Y263651D02*
X278129Y263651D01*
X278129Y275337D01*
X283592Y275337D01*
X283592Y273045D01*
X283343Y272117D01*
X282862Y271284D01*
X282182Y270604D01*
X281402Y270153D01*
X281328Y270093D01*
X281250Y270038D01*
X281233Y270015D01*
X281211Y269998D01*
X281161Y269917D01*
X281104Y269840D01*
X281095Y269813D01*
X281080Y269789D01*
X281058Y269697D01*
X281029Y269606D01*
X281030Y269577D01*
X281023Y269550D01*
X281031Y269455D01*
X281033Y269360D01*
X281042Y269333D01*
X281045Y269305D01*
X281083Y269218D01*
X281115Y269128D01*
X281132Y269106D01*
X281143Y269080D01*
X281208Y269009D01*
X281266Y268934D01*
X281295Y268913D01*
X281309Y268898D01*
X281338Y268882D01*
X281402Y268835D01*
X282182Y268384D01*
X282862Y267704D01*
X283343Y266871D01*
X283592Y265943D01*
X283592Y263651D01*
X278129Y263651D01*
G37*
%LPD*%
%LPC*%
G36*
X269620Y263651D02*
X269620Y263651D01*
X269620Y265943D01*
X269869Y266871D01*
X270350Y267704D01*
X271030Y268384D01*
X271810Y268835D01*
X271884Y268895D01*
X271962Y268950D01*
X271979Y268973D01*
X272001Y268991D01*
X272052Y269071D01*
X272108Y269148D01*
X272117Y269175D01*
X272132Y269199D01*
X272154Y269292D01*
X272183Y269382D01*
X272182Y269411D01*
X272189Y269438D01*
X272181Y269533D01*
X272179Y269628D01*
X272170Y269655D01*
X272167Y269683D01*
X272129Y269770D01*
X272097Y269860D01*
X272080Y269882D01*
X272069Y269908D01*
X272004Y269979D01*
X271946Y270054D01*
X271917Y270075D01*
X271903Y270090D01*
X271874Y270106D01*
X271810Y270153D01*
X271030Y270604D01*
X270350Y271284D01*
X269869Y272117D01*
X269620Y273045D01*
X269620Y275337D01*
X275083Y275337D01*
X275083Y263651D01*
X269620Y263651D01*
G37*
%LPD*%
%LPC*%
G36*
X283209Y224281D02*
X283209Y224281D01*
X283209Y236348D01*
X285069Y236348D01*
X285715Y236175D01*
X286294Y235840D01*
X286767Y235367D01*
X287102Y234788D01*
X287275Y234141D01*
X287275Y224281D01*
X283209Y224281D01*
G37*
%LPD*%
%LPC*%
G36*
X283209Y209168D02*
X283209Y209168D01*
X283209Y221235D01*
X287275Y221235D01*
X287275Y211375D01*
X287102Y210728D01*
X286767Y210149D01*
X286294Y209676D01*
X285715Y209341D01*
X285068Y209168D01*
X283209Y209168D01*
G37*
%LPD*%
%LPC*%
G36*
X276097Y224281D02*
X276097Y224281D01*
X276097Y234141D01*
X276270Y234788D01*
X276605Y235367D01*
X277078Y235840D01*
X277657Y236175D01*
X278304Y236348D01*
X280163Y236348D01*
X280163Y224281D01*
X276097Y224281D01*
G37*
%LPD*%
%LPC*%
G36*
X278304Y209168D02*
X278304Y209168D01*
X277657Y209341D01*
X277078Y209676D01*
X276605Y210149D01*
X276270Y210728D01*
X276097Y211375D01*
X276097Y221235D01*
X280163Y221235D01*
X280163Y209168D01*
X278304Y209168D01*
G37*
%LPD*%
%LPC*%
G36*
X180223Y278359D02*
X180223Y278359D01*
X180223Y282401D01*
X190058Y282401D01*
X190705Y282228D01*
X191284Y281893D01*
X191757Y281420D01*
X192092Y280841D01*
X192265Y280194D01*
X192265Y278359D01*
X180223Y278359D01*
G37*
%LPD*%
%LPC*%
G36*
X165183Y278359D02*
X165183Y278359D01*
X165183Y280194D01*
X165356Y280841D01*
X165691Y281420D01*
X166164Y281893D01*
X166743Y282228D01*
X167390Y282401D01*
X177225Y282401D01*
X177225Y278359D01*
X165183Y278359D01*
G37*
%LPD*%
%LPC*%
G36*
X180223Y275361D02*
X180223Y275361D01*
X192265Y275361D01*
X192265Y273526D01*
X192092Y272879D01*
X191757Y272300D01*
X191284Y271827D01*
X190705Y271492D01*
X190058Y271319D01*
X180223Y271319D01*
X180223Y275361D01*
G37*
%LPD*%
%LPC*%
G36*
X167390Y271319D02*
X167390Y271319D01*
X166743Y271492D01*
X166164Y271827D01*
X165691Y272300D01*
X165356Y272879D01*
X165183Y273526D01*
X165183Y275361D01*
X177225Y275361D01*
X177225Y271319D01*
X167390Y271319D01*
G37*
%LPD*%
%LPC*%
G36*
X101859Y53823D02*
X101859Y53823D01*
X101859Y59408D01*
X102032Y60055D01*
X102367Y60634D01*
X102840Y61107D01*
X103419Y61442D01*
X104066Y61615D01*
X105901Y61615D01*
X105901Y53823D01*
X101859Y53823D01*
G37*
%LPD*%
%LPC*%
G36*
X104066Y43033D02*
X104066Y43033D01*
X103419Y43206D01*
X102840Y43541D01*
X102367Y44014D01*
X102032Y44593D01*
X101859Y45240D01*
X101859Y50825D01*
X105901Y50825D01*
X105901Y43033D01*
X104066Y43033D01*
G37*
%LPD*%
%LPC*%
G36*
X224066Y43287D02*
X224066Y43287D01*
X223419Y43460D01*
X222840Y43795D01*
X222367Y44268D01*
X222032Y44847D01*
X221859Y45494D01*
X221859Y51079D01*
X225901Y51079D01*
X225901Y43287D01*
X224066Y43287D01*
G37*
%LPD*%
%LPC*%
G36*
X247395Y338835D02*
X247395Y338835D01*
X247395Y344298D01*
X249687Y344298D01*
X250615Y344049D01*
X251448Y343568D01*
X252128Y342888D01*
X252609Y342055D01*
X252858Y341127D01*
X252858Y338835D01*
X247395Y338835D01*
G37*
%LPD*%
%LPC*%
G36*
X278129Y278383D02*
X278129Y278383D01*
X278129Y283846D01*
X280421Y283846D01*
X281349Y283597D01*
X282182Y283116D01*
X282862Y282436D01*
X283343Y281603D01*
X283592Y280675D01*
X283592Y278383D01*
X278129Y278383D01*
G37*
%LPD*%
%LPC*%
G36*
X125475Y271779D02*
X125475Y271779D01*
X125475Y277242D01*
X127767Y277242D01*
X128695Y276993D01*
X129528Y276512D01*
X130208Y275832D01*
X130689Y274999D01*
X130938Y274071D01*
X130938Y271779D01*
X125475Y271779D01*
G37*
%LPD*%
%LPC*%
G36*
X163575Y236219D02*
X163575Y236219D01*
X163575Y241682D01*
X165867Y241682D01*
X166795Y241433D01*
X167628Y240952D01*
X168308Y240272D01*
X168789Y239439D01*
X169038Y238511D01*
X169038Y236219D01*
X163575Y236219D01*
G37*
%LPD*%
%LPC*%
G36*
X126745Y152399D02*
X126745Y152399D01*
X126745Y157862D01*
X129037Y157862D01*
X129965Y157613D01*
X130798Y157132D01*
X131478Y156452D01*
X131959Y155619D01*
X132208Y154691D01*
X132208Y152399D01*
X126745Y152399D01*
G37*
%LPD*%
%LPC*%
G36*
X345185Y168909D02*
X345185Y168909D01*
X345185Y174372D01*
X347477Y174372D01*
X348405Y174123D01*
X349238Y173642D01*
X349918Y172962D01*
X350399Y172129D01*
X350648Y171201D01*
X350648Y168909D01*
X345185Y168909D01*
G37*
%LPD*%
%LPC*%
G36*
X238886Y338835D02*
X238886Y338835D01*
X238886Y341127D01*
X239135Y342055D01*
X239616Y342888D01*
X240296Y343568D01*
X241129Y344049D01*
X242057Y344298D01*
X244349Y344298D01*
X244349Y338835D01*
X238886Y338835D01*
G37*
%LPD*%
%LPC*%
G36*
X167004Y175767D02*
X167004Y175767D01*
X167004Y178059D01*
X167253Y178987D01*
X167734Y179820D01*
X168414Y180500D01*
X169247Y180981D01*
X170175Y181230D01*
X172467Y181230D01*
X172467Y175767D01*
X167004Y175767D01*
G37*
%LPD*%
%LPC*%
G36*
X345185Y160400D02*
X345185Y160400D01*
X345185Y165863D01*
X350648Y165863D01*
X350648Y163571D01*
X350399Y162643D01*
X349918Y161810D01*
X349238Y161130D01*
X348405Y160649D01*
X347477Y160400D01*
X345185Y160400D01*
G37*
%LPD*%
%LPC*%
G36*
X116966Y271779D02*
X116966Y271779D01*
X116966Y274071D01*
X117215Y274999D01*
X117696Y275832D01*
X118376Y276512D01*
X119209Y276993D01*
X120137Y277242D01*
X122429Y277242D01*
X122429Y271779D01*
X116966Y271779D01*
G37*
%LPD*%
%LPC*%
G36*
X268858Y294131D02*
X268858Y294131D01*
X268858Y296423D01*
X269107Y297351D01*
X269588Y298184D01*
X270268Y298864D01*
X271101Y299345D01*
X272029Y299594D01*
X274321Y299594D01*
X274321Y294131D01*
X268858Y294131D01*
G37*
%LPD*%
%LPC*%
G36*
X277367Y285622D02*
X277367Y285622D01*
X277367Y291085D01*
X282830Y291085D01*
X282830Y288793D01*
X282581Y287865D01*
X282100Y287032D01*
X281420Y286352D01*
X280587Y285871D01*
X279659Y285622D01*
X277367Y285622D01*
G37*
%LPD*%
%LPC*%
G36*
X118236Y152399D02*
X118236Y152399D01*
X118236Y154691D01*
X118485Y155619D01*
X118966Y156452D01*
X119646Y157132D01*
X120479Y157613D01*
X121407Y157862D01*
X123699Y157862D01*
X123699Y152399D01*
X118236Y152399D01*
G37*
%LPD*%
%LPC*%
G36*
X336676Y168909D02*
X336676Y168909D01*
X336676Y171201D01*
X336925Y172129D01*
X337406Y172962D01*
X338086Y173642D01*
X338919Y174123D01*
X339847Y174372D01*
X342139Y174372D01*
X342139Y168909D01*
X336676Y168909D01*
G37*
%LPD*%
%LPC*%
G36*
X269620Y278383D02*
X269620Y278383D01*
X269620Y280675D01*
X269869Y281603D01*
X270350Y282436D01*
X271030Y283116D01*
X271863Y283597D01*
X272791Y283846D01*
X275083Y283846D01*
X275083Y278383D01*
X269620Y278383D01*
G37*
%LPD*%
%LPC*%
G36*
X125475Y263270D02*
X125475Y263270D01*
X125475Y268733D01*
X130938Y268733D01*
X130938Y266441D01*
X130689Y265513D01*
X130208Y264680D01*
X129528Y264000D01*
X128695Y263519D01*
X127767Y263270D01*
X125475Y263270D01*
G37*
%LPD*%
%LPC*%
G36*
X247395Y330326D02*
X247395Y330326D01*
X247395Y335789D01*
X252858Y335789D01*
X252858Y333497D01*
X252609Y332569D01*
X252128Y331736D01*
X251448Y331056D01*
X250615Y330575D01*
X249687Y330326D01*
X247395Y330326D01*
G37*
%LPD*%
%LPC*%
G36*
X163575Y212978D02*
X163575Y212978D01*
X163575Y218441D01*
X169038Y218441D01*
X169038Y216149D01*
X168789Y215221D01*
X168308Y214388D01*
X167628Y213708D01*
X166795Y213227D01*
X165867Y212978D01*
X163575Y212978D01*
G37*
%LPD*%
%LPC*%
G36*
X278129Y255142D02*
X278129Y255142D01*
X278129Y260605D01*
X283592Y260605D01*
X283592Y258313D01*
X283343Y257385D01*
X282862Y256552D01*
X282182Y255872D01*
X281349Y255391D01*
X280421Y255142D01*
X278129Y255142D01*
G37*
%LPD*%
%LPC*%
G36*
X339847Y160400D02*
X339847Y160400D01*
X338919Y160649D01*
X338086Y161130D01*
X337406Y161810D01*
X336925Y162643D01*
X336676Y163571D01*
X336676Y165863D01*
X342139Y165863D01*
X342139Y160400D01*
X339847Y160400D01*
G37*
%LPD*%
%LPC*%
G36*
X272029Y285622D02*
X272029Y285622D01*
X271101Y285871D01*
X270268Y286352D01*
X269588Y287032D01*
X269107Y287865D01*
X268858Y288793D01*
X268858Y291085D01*
X274321Y291085D01*
X274321Y285622D01*
X272029Y285622D01*
G37*
%LPD*%
%LPC*%
G36*
X242057Y330326D02*
X242057Y330326D01*
X241129Y330575D01*
X240296Y331056D01*
X239616Y331736D01*
X239135Y332569D01*
X238886Y333497D01*
X238886Y335789D01*
X244349Y335789D01*
X244349Y330326D01*
X242057Y330326D01*
G37*
%LPD*%
%LPC*%
G36*
X272791Y255142D02*
X272791Y255142D01*
X271863Y255391D01*
X271030Y255872D01*
X270350Y256552D01*
X269869Y257385D01*
X269620Y258313D01*
X269620Y260605D01*
X275083Y260605D01*
X275083Y255142D01*
X272791Y255142D01*
G37*
%LPD*%
%LPC*%
G36*
X120137Y263270D02*
X120137Y263270D01*
X119209Y263519D01*
X118376Y264000D01*
X117696Y264680D01*
X117215Y265513D01*
X116966Y266441D01*
X116966Y268733D01*
X122429Y268733D01*
X122429Y263270D01*
X120137Y263270D01*
G37*
%LPD*%
%LPC*%
G36*
X331977Y298576D02*
X331977Y298576D01*
X331977Y302769D01*
X334100Y302769D01*
X334948Y302541D01*
X335708Y302102D01*
X336329Y301482D01*
X336768Y300721D01*
X336995Y299873D01*
X336995Y298576D01*
X331977Y298576D01*
G37*
%LPD*%
%LPC*%
G36*
X308609Y298576D02*
X308609Y298576D01*
X308609Y302769D01*
X310732Y302769D01*
X311580Y302541D01*
X312340Y302102D01*
X312961Y301482D01*
X313400Y300721D01*
X313627Y299873D01*
X313627Y298576D01*
X308609Y298576D01*
G37*
%LPD*%
%LPC*%
G36*
X323913Y298576D02*
X323913Y298576D01*
X323913Y299873D01*
X324140Y300721D01*
X324579Y301482D01*
X325200Y302102D01*
X325960Y302541D01*
X326808Y302769D01*
X328931Y302769D01*
X328931Y298576D01*
X323913Y298576D01*
G37*
%LPD*%
%LPC*%
G36*
X300545Y298576D02*
X300545Y298576D01*
X300545Y299873D01*
X300772Y300721D01*
X301211Y301482D01*
X301832Y302102D01*
X302592Y302541D01*
X303440Y302769D01*
X305563Y302769D01*
X305563Y298576D01*
X300545Y298576D01*
G37*
%LPD*%
%LPC*%
G36*
X331977Y291337D02*
X331977Y291337D01*
X331977Y295530D01*
X336995Y295530D01*
X336995Y294233D01*
X336768Y293385D01*
X336329Y292624D01*
X335708Y292004D01*
X334948Y291565D01*
X334100Y291337D01*
X331977Y291337D01*
G37*
%LPD*%
%LPC*%
G36*
X308609Y291337D02*
X308609Y291337D01*
X308609Y295530D01*
X313627Y295530D01*
X313627Y294233D01*
X313400Y293385D01*
X312961Y292624D01*
X312340Y292004D01*
X311580Y291565D01*
X310732Y291337D01*
X308609Y291337D01*
G37*
%LPD*%
%LPC*%
G36*
X303440Y291337D02*
X303440Y291337D01*
X302592Y291565D01*
X301832Y292004D01*
X301211Y292624D01*
X300772Y293385D01*
X300545Y294233D01*
X300545Y295530D01*
X305563Y295530D01*
X305563Y291337D01*
X303440Y291337D01*
G37*
%LPD*%
%LPC*%
G36*
X326808Y291337D02*
X326808Y291337D01*
X325960Y291565D01*
X325200Y292004D01*
X324579Y292624D01*
X324140Y293385D01*
X323913Y294233D01*
X323913Y295530D01*
X328931Y295530D01*
X328931Y291337D01*
X326808Y291337D01*
G37*
%LPD*%
%LPC*%
G36*
X39061Y222399D02*
X39061Y222399D01*
X39061Y222401D01*
X39063Y222401D01*
X39063Y222399D01*
X39061Y222399D01*
G37*
%LPD*%
%LPC*%
G36*
X123951Y270255D02*
X123951Y270255D01*
X123951Y270257D01*
X123953Y270257D01*
X123953Y270255D01*
X123951Y270255D01*
G37*
%LPD*%
%LPC*%
G36*
X275843Y292607D02*
X275843Y292607D01*
X275843Y292609D01*
X275845Y292609D01*
X275845Y292607D01*
X275843Y292607D01*
G37*
%LPD*%
%LPC*%
G36*
X330453Y297052D02*
X330453Y297052D01*
X330453Y297054D01*
X330455Y297054D01*
X330455Y297052D01*
X330453Y297052D01*
G37*
%LPD*%
%LPC*%
G36*
X307085Y297052D02*
X307085Y297052D01*
X307085Y297054D01*
X307087Y297054D01*
X307087Y297052D01*
X307085Y297052D01*
G37*
%LPD*%
%LPC*%
G36*
X245871Y337311D02*
X245871Y337311D01*
X245871Y337313D01*
X245873Y337313D01*
X245873Y337311D01*
X245871Y337311D01*
G37*
%LPD*%
%LPC*%
G36*
X276605Y276859D02*
X276605Y276859D01*
X276605Y276861D01*
X276607Y276861D01*
X276607Y276859D01*
X276605Y276859D01*
G37*
%LPD*%
%LPC*%
G36*
X281685Y222757D02*
X281685Y222757D01*
X281685Y222759D01*
X281687Y222759D01*
X281687Y222757D01*
X281685Y222757D01*
G37*
%LPD*%
%LPC*%
G36*
X276605Y262127D02*
X276605Y262127D01*
X276605Y262129D01*
X276607Y262129D01*
X276607Y262127D01*
X276605Y262127D01*
G37*
%LPD*%
%LPC*%
G36*
X343661Y167385D02*
X343661Y167385D01*
X343661Y167387D01*
X343663Y167387D01*
X343663Y167385D01*
X343661Y167385D01*
G37*
%LPD*%
D10*
X340328Y164052D02*
X340328Y170720D01*
X346996Y170720D01*
X346996Y164052D01*
X340328Y164052D01*
X340328Y166164D02*
X346996Y166164D01*
X346996Y168276D02*
X340328Y168276D01*
X340328Y170388D02*
X346996Y170388D01*
X340328Y155480D02*
X340328Y148812D01*
X340328Y155480D02*
X346996Y155480D01*
X346996Y148812D01*
X340328Y148812D01*
X340328Y150924D02*
X346996Y150924D01*
X346996Y153036D02*
X340328Y153036D01*
X340328Y155148D02*
X346996Y155148D01*
X249206Y340646D02*
X242538Y340646D01*
X249206Y340646D02*
X249206Y333978D01*
X242538Y333978D01*
X242538Y340646D01*
X242538Y336090D02*
X249206Y336090D01*
X249206Y338202D02*
X242538Y338202D01*
X242538Y340314D02*
X249206Y340314D01*
X233966Y340646D02*
X227298Y340646D01*
X233966Y340646D02*
X233966Y333978D01*
X227298Y333978D01*
X227298Y340646D01*
X227298Y336090D02*
X233966Y336090D01*
X233966Y338202D02*
X227298Y338202D01*
X227298Y340314D02*
X233966Y340314D01*
X129508Y336074D02*
X129508Y329406D01*
X129508Y336074D02*
X136176Y336074D01*
X136176Y329406D01*
X129508Y329406D01*
X129508Y331518D02*
X136176Y331518D01*
X136176Y333630D02*
X129508Y333630D01*
X129508Y335742D02*
X136176Y335742D01*
X129508Y320834D02*
X129508Y314166D01*
X129508Y320834D02*
X136176Y320834D01*
X136176Y314166D01*
X129508Y314166D01*
X129508Y316278D02*
X136176Y316278D01*
X136176Y318390D02*
X129508Y318390D01*
X129508Y320502D02*
X136176Y320502D01*
X158718Y238030D02*
X165386Y238030D01*
X165386Y231362D01*
X158718Y231362D01*
X158718Y238030D01*
X158718Y233474D02*
X165386Y233474D01*
X165386Y235586D02*
X158718Y235586D01*
X158718Y237698D02*
X165386Y237698D01*
X150146Y238030D02*
X143478Y238030D01*
X150146Y238030D02*
X150146Y231362D01*
X143478Y231362D01*
X143478Y238030D01*
X143478Y233474D02*
X150146Y233474D01*
X150146Y235586D02*
X143478Y235586D01*
X143478Y237698D02*
X150146Y237698D01*
X121888Y154210D02*
X121888Y147542D01*
X121888Y154210D02*
X128556Y154210D01*
X128556Y147542D01*
X121888Y147542D01*
X121888Y149654D02*
X128556Y149654D01*
X128556Y151766D02*
X121888Y151766D01*
X121888Y153878D02*
X128556Y153878D01*
X121888Y138970D02*
X121888Y132302D01*
X121888Y138970D02*
X128556Y138970D01*
X128556Y132302D01*
X121888Y132302D01*
X121888Y134414D02*
X128556Y134414D01*
X128556Y136526D02*
X121888Y136526D01*
X121888Y138638D02*
X128556Y138638D01*
X158718Y223298D02*
X165386Y223298D01*
X165386Y216630D01*
X158718Y216630D01*
X158718Y223298D01*
X158718Y218742D02*
X165386Y218742D01*
X165386Y220854D02*
X158718Y220854D01*
X158718Y222966D02*
X165386Y222966D01*
X150146Y223298D02*
X143478Y223298D01*
X150146Y223298D02*
X150146Y216630D01*
X143478Y216630D01*
X143478Y223298D01*
X143478Y218742D02*
X150146Y218742D01*
X150146Y220854D02*
X143478Y220854D01*
X143478Y222966D02*
X150146Y222966D01*
D11*
X333660Y280702D02*
X333660Y285464D01*
X333660Y280702D02*
X327248Y280702D01*
X327248Y285464D01*
X333660Y285464D01*
X333660Y282211D02*
X327248Y282211D01*
X327248Y283720D02*
X333660Y283720D01*
X333660Y285229D02*
X327248Y285229D01*
X333660Y294672D02*
X333660Y299434D01*
X333660Y294672D02*
X327248Y294672D01*
X327248Y299434D01*
X333660Y299434D01*
X333660Y296181D02*
X327248Y296181D01*
X327248Y297690D02*
X333660Y297690D01*
X333660Y299199D02*
X327248Y299199D01*
D12*
X154266Y336804D03*
X165266Y336804D03*
D13*
X149672Y196850D03*
X189672Y196850D03*
D14*
X146812Y315810D03*
X146812Y326810D03*
D15*
X295402Y75692D03*
X295402Y101092D03*
X320802Y75692D03*
X320802Y101092D03*
X346202Y75692D03*
X346202Y101092D03*
D16*
X107400Y52324D03*
X117400Y52324D03*
X127400Y52324D03*
X137400Y52324D03*
D17*
X150400Y15574D03*
X94400Y15574D03*
D16*
X227400Y52578D03*
X237400Y52578D03*
X247400Y52578D03*
X257400Y52578D03*
D17*
X270400Y15828D03*
X214400Y15828D03*
D18*
X16510Y100838D03*
X16510Y108966D03*
X16510Y117094D03*
D19*
X16510Y108966D02*
X16510Y100584D01*
X16510Y108966D02*
X16510Y117602D01*
D20*
X211584Y124490D02*
X211584Y129990D01*
X211584Y124490D02*
X180084Y124490D01*
X180084Y129990D01*
X211584Y129990D01*
X211584Y129715D02*
X180084Y129715D01*
X211584Y154490D02*
X211584Y159990D01*
X211584Y154490D02*
X180084Y154490D01*
X180084Y159990D01*
X211584Y159990D01*
X211584Y159715D02*
X180084Y159715D01*
D21*
X64062Y222400D03*
D22*
X39062Y222400D03*
D10*
X135858Y288322D02*
X142526Y288322D01*
X142526Y281654D01*
X135858Y281654D01*
X135858Y288322D01*
X135858Y283766D02*
X142526Y283766D01*
X142526Y285878D02*
X135858Y285878D01*
X135858Y287990D02*
X142526Y287990D01*
X127286Y288322D02*
X120618Y288322D01*
X127286Y288322D02*
X127286Y281654D01*
X120618Y281654D01*
X120618Y288322D01*
X120618Y283766D02*
X127286Y283766D01*
X127286Y285878D02*
X120618Y285878D01*
X120618Y287990D02*
X127286Y287990D01*
X96552Y281654D02*
X89884Y281654D01*
X89884Y288322D01*
X96552Y288322D01*
X96552Y281654D01*
X96552Y283766D02*
X89884Y283766D01*
X89884Y285878D02*
X96552Y285878D01*
X96552Y287990D02*
X89884Y287990D01*
X105124Y281654D02*
X111792Y281654D01*
X105124Y281654D02*
X105124Y288322D01*
X111792Y288322D01*
X111792Y281654D01*
X111792Y283766D02*
X105124Y283766D01*
X105124Y285878D02*
X111792Y285878D01*
X111792Y287990D02*
X105124Y287990D01*
X135858Y303054D02*
X142526Y303054D01*
X142526Y296386D01*
X135858Y296386D01*
X135858Y303054D01*
X135858Y298498D02*
X142526Y298498D01*
X142526Y300610D02*
X135858Y300610D01*
X135858Y302722D02*
X142526Y302722D01*
X127286Y303054D02*
X120618Y303054D01*
X127286Y303054D02*
X127286Y296386D01*
X120618Y296386D01*
X120618Y303054D01*
X120618Y298498D02*
X127286Y298498D01*
X127286Y300610D02*
X120618Y300610D01*
X120618Y302722D02*
X127286Y302722D01*
X121190Y314166D02*
X121190Y320834D01*
X121190Y314166D02*
X114522Y314166D01*
X114522Y320834D01*
X121190Y320834D01*
X121190Y316278D02*
X114522Y316278D01*
X114522Y318390D02*
X121190Y318390D01*
X121190Y320502D02*
X114522Y320502D01*
X121190Y329406D02*
X121190Y336074D01*
X121190Y329406D02*
X114522Y329406D01*
X114522Y336074D01*
X121190Y336074D01*
X121190Y331518D02*
X114522Y331518D01*
X114522Y333630D02*
X121190Y333630D01*
X121190Y335742D02*
X114522Y335742D01*
X120618Y266922D02*
X127286Y266922D01*
X120618Y266922D02*
X120618Y273590D01*
X127286Y273590D01*
X127286Y266922D01*
X127286Y269034D02*
X120618Y269034D01*
X120618Y271146D02*
X127286Y271146D01*
X127286Y273258D02*
X120618Y273258D01*
X135858Y266922D02*
X142526Y266922D01*
X135858Y266922D02*
X135858Y273590D01*
X142526Y273590D01*
X142526Y266922D01*
X142526Y269034D02*
X135858Y269034D01*
X135858Y271146D02*
X142526Y271146D01*
X142526Y273258D02*
X135858Y273258D01*
X273272Y265462D02*
X279940Y265462D01*
X279940Y258794D01*
X273272Y258794D01*
X273272Y265462D01*
X273272Y260906D02*
X279940Y260906D01*
X279940Y263018D02*
X273272Y263018D01*
X273272Y265130D02*
X279940Y265130D01*
X264700Y265462D02*
X258032Y265462D01*
X264700Y265462D02*
X264700Y258794D01*
X258032Y258794D01*
X258032Y265462D01*
X258032Y260906D02*
X264700Y260906D01*
X264700Y263018D02*
X258032Y263018D01*
X258032Y265130D02*
X264700Y265130D01*
X333788Y256826D02*
X333788Y250158D01*
X327120Y250158D01*
X327120Y256826D01*
X333788Y256826D01*
X333788Y252270D02*
X327120Y252270D01*
X327120Y254382D02*
X333788Y254382D01*
X333788Y256494D02*
X327120Y256494D01*
X333788Y265398D02*
X333788Y272066D01*
X333788Y265398D02*
X327120Y265398D01*
X327120Y272066D01*
X333788Y272066D01*
X333788Y267510D02*
X327120Y267510D01*
X327120Y269622D02*
X333788Y269622D01*
X333788Y271734D02*
X327120Y271734D01*
X257778Y304514D02*
X257778Y311182D01*
X264446Y311182D01*
X264446Y304514D01*
X257778Y304514D01*
X257778Y306626D02*
X264446Y306626D01*
X264446Y308738D02*
X257778Y308738D01*
X257778Y310850D02*
X264446Y310850D01*
X257778Y295942D02*
X257778Y289274D01*
X257778Y295942D02*
X264446Y295942D01*
X264446Y289274D01*
X257778Y289274D01*
X257778Y291386D02*
X264446Y291386D01*
X264446Y293498D02*
X257778Y293498D01*
X257778Y295610D02*
X264446Y295610D01*
X279178Y295942D02*
X279178Y289274D01*
X272510Y289274D01*
X272510Y295942D01*
X279178Y295942D01*
X279178Y291386D02*
X272510Y291386D01*
X272510Y293498D02*
X279178Y293498D01*
X279178Y295610D02*
X272510Y295610D01*
X279178Y304514D02*
X279178Y311182D01*
X279178Y304514D02*
X272510Y304514D01*
X272510Y311182D01*
X279178Y311182D01*
X279178Y306626D02*
X272510Y306626D01*
X272510Y308738D02*
X279178Y308738D01*
X279178Y310850D02*
X272510Y310850D01*
X147352Y177578D02*
X140684Y177578D01*
X147352Y177578D02*
X147352Y170910D01*
X140684Y170910D01*
X140684Y177578D01*
X140684Y173022D02*
X147352Y173022D01*
X147352Y175134D02*
X140684Y175134D01*
X140684Y177246D02*
X147352Y177246D01*
X132112Y177578D02*
X125444Y177578D01*
X132112Y177578D02*
X132112Y170910D01*
X125444Y170910D01*
X125444Y177578D01*
X125444Y173022D02*
X132112Y173022D01*
X132112Y175134D02*
X125444Y175134D01*
X125444Y177246D02*
X132112Y177246D01*
X74962Y120428D02*
X68294Y120428D01*
X74962Y120428D02*
X74962Y113760D01*
X68294Y113760D01*
X68294Y120428D01*
X68294Y115872D02*
X74962Y115872D01*
X74962Y117984D02*
X68294Y117984D01*
X68294Y120096D02*
X74962Y120096D01*
X59722Y120428D02*
X53054Y120428D01*
X59722Y120428D02*
X59722Y113760D01*
X53054Y113760D01*
X53054Y120428D01*
X53054Y115872D02*
X59722Y115872D01*
X59722Y117984D02*
X53054Y117984D01*
X53054Y120096D02*
X59722Y120096D01*
X68294Y104172D02*
X74962Y104172D01*
X74962Y97504D01*
X68294Y97504D01*
X68294Y104172D01*
X68294Y99616D02*
X74962Y99616D01*
X74962Y101728D02*
X68294Y101728D01*
X68294Y103840D02*
X74962Y103840D01*
X59722Y104172D02*
X53054Y104172D01*
X59722Y104172D02*
X59722Y97504D01*
X53054Y97504D01*
X53054Y104172D01*
X53054Y99616D02*
X59722Y99616D01*
X59722Y101728D02*
X53054Y101728D01*
X53054Y103840D02*
X59722Y103840D01*
X348266Y219678D02*
X348266Y226346D01*
X348266Y219678D02*
X341598Y219678D01*
X341598Y226346D01*
X348266Y226346D01*
X348266Y221790D02*
X341598Y221790D01*
X341598Y223902D02*
X348266Y223902D01*
X348266Y226014D02*
X341598Y226014D01*
X348266Y234918D02*
X348266Y241586D01*
X348266Y234918D02*
X341598Y234918D01*
X341598Y241586D01*
X348266Y241586D01*
X348266Y237030D02*
X341598Y237030D01*
X341598Y239142D02*
X348266Y239142D01*
X348266Y241254D02*
X341598Y241254D01*
X177324Y177578D02*
X170656Y177578D01*
X177324Y177578D02*
X177324Y170910D01*
X170656Y170910D01*
X170656Y177578D01*
X170656Y173022D02*
X177324Y173022D01*
X177324Y175134D02*
X170656Y175134D01*
X170656Y177246D02*
X177324Y177246D01*
X162084Y177578D02*
X155416Y177578D01*
X162084Y177578D02*
X162084Y170910D01*
X155416Y170910D01*
X155416Y177578D01*
X155416Y173022D02*
X162084Y173022D01*
X162084Y175134D02*
X155416Y175134D01*
X155416Y177246D02*
X162084Y177246D01*
D23*
X261112Y333248D03*
D24*
X113792Y247396D03*
D25*
X319786Y222758D03*
X307086Y222758D03*
X294386Y222758D03*
X281686Y222758D03*
X281686Y155448D03*
X294386Y155448D03*
X307086Y155448D03*
X319786Y155448D03*
D26*
X162814Y154686D03*
X153416Y154686D03*
X144018Y154686D03*
X144018Y131826D03*
X153416Y131826D03*
X162814Y131826D03*
D27*
X178724Y302260D03*
X230724Y302260D03*
X178724Y314960D03*
X178724Y289560D03*
X178724Y276860D03*
X230724Y314960D03*
X230724Y289560D03*
X230724Y276860D03*
D10*
X111792Y303054D02*
X105124Y303054D01*
X111792Y303054D02*
X111792Y296386D01*
X105124Y296386D01*
X105124Y303054D01*
X105124Y298498D02*
X111792Y298498D01*
X111792Y300610D02*
X105124Y300610D01*
X105124Y302722D02*
X111792Y302722D01*
X96552Y303054D02*
X89884Y303054D01*
X96552Y303054D02*
X96552Y296386D01*
X89884Y296386D01*
X89884Y303054D01*
X89884Y298498D02*
X96552Y298498D01*
X96552Y300610D02*
X89884Y300610D01*
X89884Y302722D02*
X96552Y302722D01*
X258032Y273526D02*
X264700Y273526D01*
X258032Y273526D02*
X258032Y280194D01*
X264700Y280194D01*
X264700Y273526D01*
X264700Y275638D02*
X258032Y275638D01*
X258032Y277750D02*
X264700Y277750D01*
X264700Y279862D02*
X258032Y279862D01*
X273272Y273526D02*
X279940Y273526D01*
X273272Y273526D02*
X273272Y280194D01*
X279940Y280194D01*
X279940Y273526D01*
X279940Y275638D02*
X273272Y275638D01*
X273272Y277750D02*
X279940Y277750D01*
X279940Y279862D02*
X273272Y279862D01*
D11*
X310292Y280702D02*
X310292Y285464D01*
X310292Y280702D02*
X303880Y280702D01*
X303880Y285464D01*
X310292Y285464D01*
X310292Y282211D02*
X303880Y282211D01*
X303880Y283720D02*
X310292Y283720D01*
X310292Y285229D02*
X303880Y285229D01*
X310292Y294672D02*
X310292Y299434D01*
X310292Y294672D02*
X303880Y294672D01*
X303880Y299434D01*
X310292Y299434D01*
X310292Y296181D02*
X303880Y296181D01*
X303880Y297690D02*
X310292Y297690D01*
X310292Y299199D02*
X303880Y299199D01*
D10*
X310420Y256826D02*
X310420Y250158D01*
X303752Y250158D01*
X303752Y256826D01*
X310420Y256826D01*
X310420Y252270D02*
X303752Y252270D01*
X303752Y254382D02*
X310420Y254382D01*
X310420Y256494D02*
X303752Y256494D01*
X310420Y265398D02*
X310420Y272066D01*
X310420Y265398D02*
X303752Y265398D01*
X303752Y272066D01*
X310420Y272066D01*
X310420Y267510D02*
X303752Y267510D01*
X303752Y269622D02*
X310420Y269622D01*
X310420Y271734D02*
X303752Y271734D01*
D28*
X175768Y45212D03*
X185928Y45212D03*
X196088Y45212D03*
X206248Y45212D03*
X157988Y311912D03*
X292608Y116332D03*
X290322Y352298D03*
X277622Y352298D03*
X264922Y352298D03*
X252222Y352298D03*
X239522Y352298D03*
X226822Y352298D03*
X15748Y294132D03*
X15748Y281432D03*
X15748Y268732D03*
X15748Y256032D03*
X15748Y243332D03*
X196088Y17272D03*
X180848Y17272D03*
X165608Y17272D03*
X348488Y205232D03*
X348488Y195072D03*
D29*
X307086Y222758D02*
X307086Y253492D01*
D19*
X357378Y86868D02*
X346202Y75692D01*
X357378Y210566D02*
X344932Y223012D01*
X357378Y210566D02*
X357378Y86868D01*
X344678Y222758D02*
X319786Y222758D01*
X344678Y222758D02*
X344932Y223012D01*
X127400Y65894D02*
X127400Y52324D01*
X92456Y100838D02*
X71628Y100838D01*
X92456Y100838D02*
X127400Y65894D01*
X127400Y52324D02*
X127400Y47606D01*
X132842Y42164D02*
X162360Y42164D01*
X186236Y66040D01*
X247400Y62226D02*
X247400Y52578D01*
X132842Y42164D02*
X127400Y47606D01*
X186236Y66040D02*
X243586Y66040D01*
X247400Y62226D01*
X247400Y52578D02*
X247400Y48002D01*
X255016Y40386D01*
X290884Y40386D01*
X326898Y64516D02*
X334010Y71628D01*
X334010Y87884D01*
X320802Y101092D01*
X315014Y64516D02*
X290884Y40386D01*
X315014Y64516D02*
X326898Y64516D01*
X281686Y140208D02*
X281686Y155448D01*
X281686Y140208D02*
X320802Y101092D01*
X137400Y61282D02*
X137400Y52324D01*
X81588Y117094D02*
X71628Y117094D01*
X81588Y117094D02*
X137400Y61282D01*
X137400Y52324D02*
X167132Y52324D01*
X257400Y52578D02*
X257400Y64672D01*
X184658Y69850D02*
X167132Y52324D01*
X184658Y69850D02*
X252222Y69850D01*
X257400Y64672D01*
X257400Y52578D02*
X297688Y52578D01*
X320802Y75692D01*
D28*
X307086Y137922D03*
D19*
X307086Y155448D01*
D30*
X117400Y52324D02*
X117400Y46684D01*
X237400Y46646D02*
X237400Y52578D01*
X127254Y36830D02*
X117400Y46684D01*
X127254Y36830D02*
X227584Y36830D01*
X237400Y46646D01*
X117400Y52324D02*
X117400Y67258D01*
X90170Y94488D01*
D28*
X90170Y94488D03*
X113030Y135890D03*
D30*
X124968Y135890D01*
X125222Y135636D01*
D29*
X45974Y108966D02*
X16510Y108966D01*
D28*
X45974Y108966D03*
D30*
X125222Y135636D02*
X129032Y131826D01*
X144018Y131826D01*
X153416Y131826D01*
X153416Y127508D01*
X158750Y122174D01*
X177292Y122174D01*
X182358Y127240D02*
X195834Y127240D01*
X182358Y127240D02*
X177292Y122174D01*
D29*
X319786Y155448D02*
X340360Y155448D01*
X343662Y152146D01*
X344932Y238252D02*
X330454Y252730D01*
X330454Y253492D01*
X343662Y152146D02*
X343662Y140208D01*
X343916Y139954D01*
D28*
X343916Y139954D03*
X338328Y245110D03*
D29*
X338328Y244856D02*
X344932Y238252D01*
X338328Y244856D02*
X338328Y245110D01*
X268478Y128016D02*
X295402Y101092D01*
X268478Y128016D02*
X268478Y145034D01*
D28*
X268478Y145034D03*
D19*
X294386Y139954D02*
X294386Y155448D01*
X294386Y139954D02*
X297688Y136652D01*
D28*
X297688Y136652D03*
D19*
X56388Y117094D02*
X16510Y117094D01*
X16510Y100838D02*
X56388Y100838D01*
D29*
X330454Y268732D02*
X330454Y283083D01*
D30*
X149672Y196850D02*
X144526Y196850D01*
X128778Y181102D01*
X146812Y219964D02*
X146812Y234696D01*
D29*
X134112Y247396D02*
X113792Y247396D01*
X108458Y252730D01*
X108458Y284988D01*
D30*
X134112Y247396D02*
X146812Y234696D01*
D28*
X134112Y247396D03*
X219456Y332740D03*
D29*
X224028Y337312D01*
X230632Y337312D01*
X230632Y315052D01*
X230724Y314960D01*
D30*
X149672Y196850D02*
X146812Y196850D01*
X146812Y219964D01*
D29*
X123952Y284988D02*
X108458Y284988D01*
D30*
X128778Y181102D02*
X128778Y174244D01*
D29*
X93218Y284988D02*
X93218Y299720D01*
X93218Y284988D02*
X64062Y255832D01*
X64062Y222400D01*
D30*
X108458Y299720D02*
X123952Y299720D01*
D29*
X150114Y302260D02*
X178724Y302260D01*
X150114Y302260D02*
X143002Y302260D01*
X146812Y315810D02*
X134532Y315810D01*
X132842Y317500D01*
X146812Y315810D02*
X146812Y306070D01*
X143002Y302260D01*
X146812Y305562D02*
X146812Y306070D01*
X146812Y305562D02*
X150114Y302260D01*
X132842Y317500D02*
X117856Y317500D01*
X139192Y302260D02*
X143002Y302260D01*
X139192Y302260D02*
X139192Y299720D01*
X230724Y276860D02*
X261366Y276860D01*
X261366Y262128D01*
X132842Y332740D02*
X117856Y332740D01*
X157138Y344932D02*
X165266Y336804D01*
X145034Y344932D02*
X132842Y332740D01*
X145034Y344932D02*
X157138Y344932D01*
X165266Y336804D02*
X187198Y336804D01*
X200406Y323596D01*
X200406Y288290D01*
X211836Y276860D02*
X230724Y276860D01*
X211836Y276860D02*
X200406Y288290D01*
X143764Y289560D02*
X139192Y284988D01*
X143764Y289560D02*
X178724Y289560D01*
X139192Y284988D02*
X139192Y270256D01*
X230724Y289560D02*
X230724Y302260D01*
X230724Y289560D02*
X239776Y289560D01*
X242824Y292608D01*
X261112Y292608D01*
X261112Y307848D02*
X275844Y307848D01*
X261112Y307848D02*
X261112Y333248D01*
X275844Y307848D02*
X276606Y307848D01*
X294386Y290068D02*
X294386Y222758D01*
X294386Y290068D02*
X276606Y307848D01*
D30*
X193280Y154686D02*
X162814Y154686D01*
X193280Y154686D02*
X195834Y157240D01*
X195834Y190688D01*
X189672Y196850D01*
D29*
X144018Y174244D02*
X144018Y154686D01*
X144018Y174244D02*
X158750Y174244D01*
X307086Y268732D02*
X307086Y283083D01*
X178724Y314960D02*
X169672Y314960D01*
X157822Y326810D02*
X146812Y326810D01*
X157822Y326810D02*
X169672Y314960D01*
X146812Y326810D02*
X146812Y329350D01*
X154266Y336804D01*
M02*
