G04 EAGLE Gerber RS-274X export*
G75*
%MOMM*%
%FSLAX34Y34*%
%LPD*%
%INBottom Copper*%
%IPPOS*%
%AMOC8*
5,1,8,0,0,1.08239X$1,22.5*%
G01*
%ADD10P,1.677704X8X22.500000*%
%ADD11R,1.650000X1.650000*%
%ADD12C,1.650000*%
%ADD13C,0.609600*%
%ADD14C,0.203200*%
%ADD15C,0.381000*%
%ADD16C,0.304800*%

G36*
X315808Y5225D02*
X315808Y5225D01*
X315912Y5236D01*
X315929Y5244D01*
X315948Y5247D01*
X316040Y5296D01*
X316135Y5341D01*
X316149Y5354D01*
X316165Y5363D01*
X316237Y5438D01*
X316313Y5511D01*
X316322Y5527D01*
X316335Y5541D01*
X316379Y5636D01*
X316427Y5728D01*
X316430Y5747D01*
X316438Y5764D01*
X316450Y5868D01*
X316466Y5971D01*
X316463Y5990D01*
X316465Y6008D01*
X316443Y6110D01*
X316426Y6214D01*
X316417Y6230D01*
X316413Y6249D01*
X316359Y6339D01*
X316310Y6431D01*
X316294Y6448D01*
X316287Y6460D01*
X316263Y6481D01*
X316195Y6552D01*
X311525Y10470D01*
X306249Y19608D01*
X304417Y30000D01*
X306249Y40392D01*
X311525Y49530D01*
X319608Y56313D01*
X329524Y59921D01*
X340076Y59921D01*
X349992Y56312D01*
X358075Y49530D01*
X358172Y49362D01*
X358202Y49325D01*
X358225Y49282D01*
X358279Y49230D01*
X358328Y49172D01*
X358368Y49146D01*
X358403Y49113D01*
X358472Y49081D01*
X358536Y49041D01*
X358582Y49030D01*
X358626Y49009D01*
X358701Y49001D01*
X358775Y48983D01*
X358823Y48988D01*
X358870Y48982D01*
X358945Y48998D01*
X359020Y49005D01*
X359064Y49024D01*
X359111Y49035D01*
X359176Y49073D01*
X359245Y49104D01*
X359281Y49136D01*
X359322Y49161D01*
X359371Y49218D01*
X359427Y49269D01*
X359451Y49311D01*
X359482Y49348D01*
X359510Y49418D01*
X359547Y49484D01*
X359556Y49531D01*
X359574Y49576D01*
X359588Y49704D01*
X359592Y49726D01*
X359591Y49732D01*
X359592Y49743D01*
X359592Y315057D01*
X359590Y315069D01*
X359591Y315076D01*
X359585Y315107D01*
X359586Y315153D01*
X359565Y315225D01*
X359553Y315300D01*
X359530Y315343D01*
X359516Y315389D01*
X359473Y315451D01*
X359437Y315518D01*
X359403Y315551D01*
X359375Y315590D01*
X359314Y315635D01*
X359259Y315687D01*
X359216Y315707D01*
X359177Y315736D01*
X359105Y315759D01*
X359036Y315791D01*
X358988Y315796D01*
X358943Y315811D01*
X358867Y315809D01*
X358792Y315818D01*
X358745Y315808D01*
X358697Y315807D01*
X358625Y315782D01*
X358551Y315765D01*
X358510Y315741D01*
X358465Y315725D01*
X358405Y315678D01*
X358340Y315639D01*
X358309Y315603D01*
X358271Y315573D01*
X358197Y315473D01*
X358189Y315465D01*
X358188Y315461D01*
X358180Y315452D01*
X358178Y315446D01*
X358172Y315438D01*
X358075Y315270D01*
X349992Y308488D01*
X340076Y304879D01*
X329524Y304879D01*
X319608Y308488D01*
X311525Y315270D01*
X306249Y324408D01*
X304417Y334800D01*
X306249Y345192D01*
X311525Y354330D01*
X316195Y358248D01*
X316263Y358327D01*
X316335Y358403D01*
X316343Y358420D01*
X316355Y358434D01*
X316394Y358531D01*
X316438Y358626D01*
X316440Y358645D01*
X316448Y358662D01*
X316454Y358767D01*
X316465Y358870D01*
X316461Y358889D01*
X316463Y358908D01*
X316435Y359008D01*
X316413Y359111D01*
X316403Y359127D01*
X316399Y359145D01*
X316341Y359232D01*
X316287Y359322D01*
X316273Y359334D01*
X316262Y359350D01*
X316180Y359414D01*
X316100Y359482D01*
X316083Y359489D01*
X316068Y359500D01*
X315969Y359535D01*
X315872Y359574D01*
X315849Y359576D01*
X315835Y359581D01*
X315803Y359581D01*
X315705Y359592D01*
X49095Y359592D01*
X48992Y359575D01*
X48888Y359564D01*
X48871Y359556D01*
X48852Y359553D01*
X48760Y359504D01*
X48665Y359459D01*
X48651Y359446D01*
X48635Y359437D01*
X48563Y359362D01*
X48487Y359289D01*
X48478Y359273D01*
X48465Y359259D01*
X48421Y359164D01*
X48373Y359072D01*
X48370Y359053D01*
X48362Y359036D01*
X48350Y358932D01*
X48334Y358829D01*
X48337Y358810D01*
X48335Y358792D01*
X48357Y358690D01*
X48374Y358586D01*
X48383Y358570D01*
X48387Y358551D01*
X48441Y358461D01*
X48490Y358369D01*
X48506Y358352D01*
X48513Y358340D01*
X48537Y358319D01*
X48605Y358248D01*
X53275Y354330D01*
X58551Y345192D01*
X60383Y334800D01*
X58551Y324408D01*
X53275Y315270D01*
X45192Y308488D01*
X35276Y304879D01*
X24724Y304879D01*
X14808Y308488D01*
X6725Y315270D01*
X6628Y315438D01*
X6598Y315475D01*
X6575Y315518D01*
X6521Y315570D01*
X6472Y315628D01*
X6432Y315654D01*
X6397Y315687D01*
X6328Y315719D01*
X6264Y315759D01*
X6218Y315770D01*
X6174Y315791D01*
X6099Y315799D01*
X6025Y315817D01*
X5977Y315812D01*
X5930Y315818D01*
X5855Y315802D01*
X5780Y315795D01*
X5736Y315776D01*
X5689Y315765D01*
X5624Y315727D01*
X5555Y315696D01*
X5519Y315664D01*
X5478Y315639D01*
X5429Y315582D01*
X5373Y315531D01*
X5349Y315489D01*
X5318Y315452D01*
X5290Y315382D01*
X5253Y315316D01*
X5244Y315269D01*
X5226Y315224D01*
X5212Y315096D01*
X5208Y315074D01*
X5209Y315068D01*
X5208Y315057D01*
X5208Y49743D01*
X5215Y49695D01*
X5214Y49647D01*
X5235Y49575D01*
X5247Y49500D01*
X5270Y49457D01*
X5284Y49411D01*
X5327Y49349D01*
X5363Y49282D01*
X5397Y49249D01*
X5425Y49210D01*
X5486Y49165D01*
X5541Y49113D01*
X5584Y49093D01*
X5623Y49064D01*
X5695Y49041D01*
X5764Y49009D01*
X5812Y49004D01*
X5857Y48989D01*
X5933Y48991D01*
X6008Y48982D01*
X6055Y48992D01*
X6103Y48993D01*
X6175Y49018D01*
X6249Y49035D01*
X6290Y49059D01*
X6335Y49075D01*
X6395Y49122D01*
X6460Y49161D01*
X6491Y49197D01*
X6529Y49227D01*
X6605Y49330D01*
X6620Y49348D01*
X6622Y49354D01*
X6628Y49362D01*
X6725Y49530D01*
X14808Y56312D01*
X24724Y59921D01*
X35276Y59921D01*
X45192Y56312D01*
X53275Y49530D01*
X58551Y40392D01*
X60383Y30000D01*
X58551Y19608D01*
X53275Y10470D01*
X48605Y6552D01*
X48537Y6473D01*
X48465Y6397D01*
X48457Y6380D01*
X48445Y6366D01*
X48406Y6269D01*
X48362Y6174D01*
X48360Y6155D01*
X48352Y6138D01*
X48346Y6033D01*
X48335Y5930D01*
X48339Y5911D01*
X48337Y5892D01*
X48365Y5792D01*
X48387Y5689D01*
X48397Y5673D01*
X48401Y5655D01*
X48459Y5568D01*
X48513Y5478D01*
X48527Y5466D01*
X48538Y5450D01*
X48620Y5386D01*
X48700Y5318D01*
X48717Y5311D01*
X48732Y5300D01*
X48831Y5265D01*
X48928Y5226D01*
X48951Y5224D01*
X48965Y5219D01*
X48997Y5219D01*
X49095Y5208D01*
X315705Y5208D01*
X315808Y5225D01*
G37*
%LPC*%
G36*
X291455Y66163D02*
X291455Y66163D01*
X285873Y71745D01*
X285873Y79639D01*
X286150Y79915D01*
X286161Y79932D01*
X286177Y79944D01*
X286233Y80031D01*
X286293Y80115D01*
X286299Y80134D01*
X286310Y80151D01*
X286335Y80251D01*
X286366Y80350D01*
X286365Y80370D01*
X286370Y80389D01*
X286362Y80492D01*
X286359Y80596D01*
X286352Y80615D01*
X286351Y80635D01*
X286310Y80730D01*
X286275Y80827D01*
X286262Y80843D01*
X286255Y80861D01*
X286150Y80992D01*
X282021Y85120D01*
X280161Y86980D01*
X280161Y123078D01*
X292638Y135555D01*
X292691Y135629D01*
X292751Y135698D01*
X292763Y135728D01*
X292782Y135754D01*
X292809Y135841D01*
X292843Y135926D01*
X292847Y135967D01*
X292854Y135989D01*
X292853Y136022D01*
X292861Y136093D01*
X292861Y138651D01*
X294642Y140432D01*
X294684Y140490D01*
X294733Y140542D01*
X294755Y140589D01*
X294785Y140631D01*
X294806Y140700D01*
X294837Y140765D01*
X294842Y140817D01*
X294858Y140867D01*
X294856Y140938D01*
X294864Y141009D01*
X294853Y141060D01*
X294851Y141112D01*
X294827Y141180D01*
X294811Y141250D01*
X294785Y141295D01*
X294767Y141343D01*
X294722Y141399D01*
X294685Y141461D01*
X294646Y141495D01*
X294613Y141535D01*
X294553Y141574D01*
X294498Y141621D01*
X294450Y141640D01*
X294406Y141668D01*
X294337Y141686D01*
X294270Y141713D01*
X294199Y141721D01*
X294168Y141729D01*
X294144Y141727D01*
X294103Y141731D01*
X272317Y141731D01*
X272227Y141717D01*
X272136Y141709D01*
X272106Y141697D01*
X272074Y141692D01*
X271993Y141649D01*
X271909Y141613D01*
X271877Y141587D01*
X271857Y141576D01*
X271834Y141553D01*
X271778Y141508D01*
X270477Y140207D01*
X266479Y140207D01*
X265178Y141508D01*
X265104Y141561D01*
X265034Y141621D01*
X265004Y141633D01*
X264978Y141652D01*
X264891Y141679D01*
X264806Y141713D01*
X264765Y141717D01*
X264743Y141724D01*
X264711Y141723D01*
X264639Y141731D01*
X123857Y141731D01*
X123767Y141717D01*
X123676Y141709D01*
X123647Y141697D01*
X123615Y141692D01*
X123534Y141649D01*
X123450Y141613D01*
X123418Y141587D01*
X123397Y141576D01*
X123375Y141553D01*
X123319Y141508D01*
X118080Y136269D01*
X118027Y136195D01*
X117967Y136126D01*
X117955Y136095D01*
X117936Y136069D01*
X117909Y135982D01*
X117875Y135897D01*
X117871Y135856D01*
X117864Y135834D01*
X117865Y135802D01*
X117857Y135731D01*
X117857Y133891D01*
X115029Y131063D01*
X113728Y131063D01*
X113638Y131049D01*
X113547Y131041D01*
X113517Y131029D01*
X113485Y131024D01*
X113405Y130981D01*
X113321Y130945D01*
X113289Y130919D01*
X113268Y130908D01*
X113246Y130885D01*
X113190Y130840D01*
X94077Y111727D01*
X94024Y111653D01*
X93964Y111584D01*
X93952Y111554D01*
X93933Y111527D01*
X93906Y111440D01*
X93872Y111356D01*
X93868Y111315D01*
X93861Y111292D01*
X93862Y111260D01*
X93854Y111189D01*
X93854Y97946D01*
X93868Y97856D01*
X93876Y97765D01*
X93888Y97735D01*
X93893Y97703D01*
X93936Y97622D01*
X93972Y97538D01*
X93998Y97506D01*
X94009Y97486D01*
X94032Y97463D01*
X94077Y97407D01*
X94997Y96487D01*
X94997Y92489D01*
X92169Y89661D01*
X88171Y89661D01*
X85343Y92489D01*
X85343Y96487D01*
X86263Y97407D01*
X86316Y97481D01*
X86376Y97551D01*
X86388Y97581D01*
X86407Y97607D01*
X86434Y97694D01*
X86468Y97779D01*
X86472Y97820D01*
X86479Y97842D01*
X86478Y97874D01*
X86486Y97946D01*
X86486Y104362D01*
X86472Y104452D01*
X86464Y104543D01*
X86452Y104572D01*
X86447Y104604D01*
X86404Y104685D01*
X86368Y104769D01*
X86342Y104801D01*
X86331Y104822D01*
X86308Y104844D01*
X86263Y104900D01*
X85723Y105440D01*
X85649Y105493D01*
X85580Y105553D01*
X85549Y105565D01*
X85523Y105584D01*
X85436Y105611D01*
X85351Y105645D01*
X85310Y105649D01*
X85288Y105656D01*
X85256Y105655D01*
X85185Y105663D01*
X49813Y105663D01*
X49723Y105649D01*
X49632Y105641D01*
X49602Y105629D01*
X49570Y105624D01*
X49489Y105581D01*
X49405Y105545D01*
X49373Y105519D01*
X49353Y105508D01*
X49330Y105485D01*
X49274Y105440D01*
X47973Y104139D01*
X43975Y104139D01*
X41147Y106967D01*
X41147Y110965D01*
X43975Y113793D01*
X47973Y113793D01*
X49274Y112492D01*
X49348Y112439D01*
X49418Y112379D01*
X49448Y112367D01*
X49474Y112348D01*
X49561Y112321D01*
X49646Y112287D01*
X49687Y112283D01*
X49709Y112276D01*
X49741Y112277D01*
X49813Y112269D01*
X84423Y112269D01*
X84513Y112283D01*
X84604Y112291D01*
X84633Y112303D01*
X84665Y112308D01*
X84746Y112351D01*
X84830Y112387D01*
X84862Y112413D01*
X84883Y112424D01*
X84905Y112447D01*
X84961Y112492D01*
X86263Y113794D01*
X86316Y113868D01*
X86376Y113937D01*
X86388Y113968D01*
X86407Y113994D01*
X86434Y114081D01*
X86468Y114166D01*
X86472Y114207D01*
X86479Y114229D01*
X86478Y114261D01*
X86486Y114332D01*
X86486Y114556D01*
X107980Y136050D01*
X108033Y136124D01*
X108093Y136193D01*
X108105Y136223D01*
X108124Y136250D01*
X108151Y136337D01*
X108185Y136421D01*
X108189Y136462D01*
X108196Y136485D01*
X108195Y136517D01*
X108203Y136588D01*
X108203Y137889D01*
X111031Y140717D01*
X112871Y140717D01*
X112961Y140731D01*
X113052Y140739D01*
X113081Y140751D01*
X113113Y140756D01*
X113194Y140799D01*
X113278Y140835D01*
X113310Y140861D01*
X113331Y140872D01*
X113353Y140895D01*
X113409Y140940D01*
X118648Y146179D01*
X120806Y148337D01*
X264639Y148337D01*
X264729Y148351D01*
X264820Y148359D01*
X264850Y148371D01*
X264882Y148376D01*
X264963Y148419D01*
X265047Y148455D01*
X265079Y148481D01*
X265099Y148492D01*
X265122Y148515D01*
X265178Y148560D01*
X266479Y149861D01*
X270477Y149861D01*
X271778Y148560D01*
X271852Y148507D01*
X271922Y148447D01*
X271952Y148435D01*
X271978Y148416D01*
X272065Y148389D01*
X272150Y148355D01*
X272191Y148351D01*
X272213Y148344D01*
X272245Y148345D01*
X272317Y148337D01*
X333597Y148337D01*
X333687Y148351D01*
X333778Y148359D01*
X333807Y148371D01*
X333839Y148376D01*
X333920Y148419D01*
X334004Y148455D01*
X334036Y148481D01*
X334057Y148492D01*
X334079Y148515D01*
X334135Y148560D01*
X335310Y149735D01*
X335363Y149809D01*
X335423Y149878D01*
X335435Y149909D01*
X335454Y149935D01*
X335481Y150022D01*
X335515Y150107D01*
X335519Y150148D01*
X335526Y150170D01*
X335525Y150202D01*
X335533Y150273D01*
X335533Y240763D01*
X335519Y240853D01*
X335511Y240944D01*
X335499Y240974D01*
X335494Y241006D01*
X335451Y241087D01*
X335415Y241171D01*
X335389Y241203D01*
X335378Y241223D01*
X335355Y241246D01*
X335310Y241302D01*
X333501Y243111D01*
X333501Y247109D01*
X336329Y249937D01*
X340327Y249937D01*
X343155Y247109D01*
X343155Y243111D01*
X342362Y242318D01*
X342309Y242244D01*
X342249Y242174D01*
X342237Y242144D01*
X342218Y242118D01*
X342191Y242031D01*
X342157Y241946D01*
X342153Y241905D01*
X342146Y241883D01*
X342147Y241851D01*
X342139Y241779D01*
X342139Y146717D01*
X342153Y146627D01*
X342161Y146536D01*
X342173Y146507D01*
X342178Y146475D01*
X342221Y146394D01*
X342257Y146310D01*
X342283Y146278D01*
X342294Y146257D01*
X342317Y146235D01*
X342362Y146179D01*
X343537Y145004D01*
X343611Y144951D01*
X343680Y144891D01*
X343711Y144879D01*
X343737Y144860D01*
X343824Y144833D01*
X343909Y144799D01*
X343950Y144795D01*
X343972Y144788D01*
X344004Y144789D01*
X344075Y144781D01*
X345915Y144781D01*
X348743Y141953D01*
X348743Y137955D01*
X345915Y135127D01*
X341917Y135127D01*
X339089Y137955D01*
X339089Y139795D01*
X339075Y139885D01*
X339067Y139976D01*
X339055Y140006D01*
X339050Y140037D01*
X339007Y140118D01*
X338971Y140202D01*
X338945Y140234D01*
X338934Y140255D01*
X338911Y140277D01*
X338866Y140333D01*
X337691Y141508D01*
X337617Y141561D01*
X337548Y141621D01*
X337517Y141633D01*
X337491Y141652D01*
X337404Y141679D01*
X337319Y141713D01*
X337278Y141717D01*
X337256Y141724D01*
X337224Y141723D01*
X337153Y141731D01*
X311941Y141731D01*
X311870Y141720D01*
X311798Y141718D01*
X311749Y141700D01*
X311698Y141692D01*
X311634Y141658D01*
X311567Y141633D01*
X311526Y141601D01*
X311480Y141576D01*
X311431Y141524D01*
X311375Y141480D01*
X311347Y141436D01*
X311311Y141398D01*
X311281Y141333D01*
X311242Y141273D01*
X311229Y141222D01*
X311207Y141175D01*
X311200Y141104D01*
X311182Y141034D01*
X311186Y140982D01*
X311180Y140931D01*
X311196Y140860D01*
X311201Y140789D01*
X311222Y140741D01*
X311233Y140690D01*
X311269Y140629D01*
X311297Y140563D01*
X311342Y140507D01*
X311359Y140479D01*
X311377Y140464D01*
X311402Y140432D01*
X311913Y139921D01*
X311913Y135923D01*
X310104Y134114D01*
X310051Y134040D01*
X309991Y133970D01*
X309979Y133940D01*
X309960Y133914D01*
X309933Y133827D01*
X309899Y133742D01*
X309895Y133701D01*
X309888Y133679D01*
X309889Y133647D01*
X309881Y133575D01*
X309881Y105484D01*
X309892Y105413D01*
X309894Y105342D01*
X309912Y105293D01*
X309920Y105241D01*
X309954Y105178D01*
X309979Y105111D01*
X310011Y105070D01*
X310036Y105024D01*
X310088Y104975D01*
X310132Y104919D01*
X310176Y104891D01*
X310214Y104855D01*
X310279Y104824D01*
X310339Y104786D01*
X310390Y104773D01*
X310437Y104751D01*
X310508Y104743D01*
X310578Y104726D01*
X310630Y104730D01*
X310681Y104724D01*
X310752Y104739D01*
X310823Y104745D01*
X310871Y104765D01*
X310922Y104776D01*
X310983Y104813D01*
X311049Y104841D01*
X311105Y104886D01*
X311133Y104902D01*
X311148Y104920D01*
X311180Y104946D01*
X316855Y110621D01*
X324749Y110621D01*
X330331Y105039D01*
X330331Y97145D01*
X324749Y91563D01*
X316855Y91563D01*
X311180Y97238D01*
X311122Y97280D01*
X311070Y97329D01*
X311023Y97351D01*
X310981Y97382D01*
X310912Y97403D01*
X310847Y97433D01*
X310795Y97439D01*
X310745Y97454D01*
X310674Y97452D01*
X310603Y97460D01*
X310552Y97449D01*
X310500Y97448D01*
X310432Y97423D01*
X310362Y97408D01*
X310317Y97381D01*
X310269Y97363D01*
X310213Y97318D01*
X310151Y97282D01*
X310117Y97242D01*
X310077Y97209D01*
X310038Y97149D01*
X309991Y97095D01*
X309972Y97046D01*
X309944Y97003D01*
X309926Y96933D01*
X309899Y96867D01*
X309891Y96795D01*
X309883Y96764D01*
X309885Y96741D01*
X309881Y96700D01*
X309881Y90881D01*
X309895Y90791D01*
X309903Y90700D01*
X309915Y90670D01*
X309920Y90638D01*
X309963Y90558D01*
X309999Y90474D01*
X310025Y90442D01*
X310036Y90421D01*
X310059Y90399D01*
X310104Y90343D01*
X315502Y84944D01*
X315518Y84933D01*
X315531Y84917D01*
X315618Y84861D01*
X315702Y84801D01*
X315721Y84795D01*
X315738Y84784D01*
X315838Y84759D01*
X315937Y84728D01*
X315957Y84729D01*
X315976Y84724D01*
X316079Y84732D01*
X316183Y84735D01*
X316202Y84742D01*
X316221Y84743D01*
X316316Y84784D01*
X316414Y84819D01*
X316429Y84832D01*
X316448Y84839D01*
X316579Y84944D01*
X316855Y85221D01*
X324749Y85221D01*
X330331Y79639D01*
X330331Y71745D01*
X324749Y66163D01*
X316855Y66163D01*
X311273Y71745D01*
X311273Y79639D01*
X311550Y79915D01*
X311561Y79932D01*
X311577Y79944D01*
X311633Y80031D01*
X311693Y80115D01*
X311699Y80134D01*
X311710Y80151D01*
X311735Y80251D01*
X311766Y80350D01*
X311765Y80370D01*
X311770Y80389D01*
X311762Y80492D01*
X311759Y80596D01*
X311752Y80615D01*
X311751Y80635D01*
X311710Y80730D01*
X311675Y80827D01*
X311662Y80843D01*
X311655Y80861D01*
X311550Y80992D01*
X306151Y86390D01*
X304291Y88250D01*
X304291Y94668D01*
X304280Y94739D01*
X304278Y94810D01*
X304260Y94859D01*
X304252Y94911D01*
X304218Y94974D01*
X304193Y95041D01*
X304161Y95082D01*
X304136Y95128D01*
X304084Y95177D01*
X304040Y95233D01*
X303996Y95261D01*
X303958Y95297D01*
X303893Y95328D01*
X303833Y95366D01*
X303782Y95379D01*
X303735Y95401D01*
X303664Y95409D01*
X303594Y95426D01*
X303542Y95422D01*
X303491Y95428D01*
X303420Y95413D01*
X303349Y95407D01*
X303301Y95387D01*
X303250Y95376D01*
X303189Y95339D01*
X303123Y95311D01*
X303067Y95266D01*
X303039Y95250D01*
X303024Y95232D01*
X302992Y95206D01*
X299349Y91563D01*
X291455Y91563D01*
X287050Y95968D01*
X286992Y96010D01*
X286940Y96059D01*
X286893Y96081D01*
X286851Y96112D01*
X286782Y96133D01*
X286717Y96163D01*
X286665Y96169D01*
X286615Y96184D01*
X286544Y96182D01*
X286473Y96190D01*
X286422Y96179D01*
X286370Y96178D01*
X286302Y96153D01*
X286232Y96138D01*
X286187Y96111D01*
X286139Y96093D01*
X286083Y96048D01*
X286021Y96012D01*
X285987Y95972D01*
X285947Y95939D01*
X285908Y95879D01*
X285861Y95825D01*
X285842Y95776D01*
X285814Y95733D01*
X285796Y95663D01*
X285769Y95597D01*
X285761Y95525D01*
X285753Y95494D01*
X285755Y95471D01*
X285751Y95430D01*
X285751Y89611D01*
X285765Y89521D01*
X285773Y89430D01*
X285785Y89400D01*
X285790Y89368D01*
X285833Y89288D01*
X285869Y89204D01*
X285895Y89172D01*
X285906Y89151D01*
X285929Y89129D01*
X285974Y89073D01*
X290102Y84944D01*
X290118Y84933D01*
X290131Y84917D01*
X290218Y84861D01*
X290302Y84801D01*
X290321Y84795D01*
X290338Y84784D01*
X290438Y84759D01*
X290537Y84728D01*
X290557Y84729D01*
X290576Y84724D01*
X290679Y84732D01*
X290783Y84735D01*
X290802Y84742D01*
X290821Y84743D01*
X290916Y84784D01*
X291014Y84819D01*
X291029Y84832D01*
X291048Y84839D01*
X291179Y84944D01*
X291455Y85221D01*
X299349Y85221D01*
X304931Y79639D01*
X304931Y71745D01*
X299349Y66163D01*
X291455Y66163D01*
G37*
%LPD*%
%LPC*%
G36*
X132113Y242569D02*
X132113Y242569D01*
X129285Y245397D01*
X129285Y249395D01*
X132113Y252223D01*
X133953Y252223D01*
X134043Y252237D01*
X134134Y252245D01*
X134163Y252257D01*
X134195Y252262D01*
X134276Y252305D01*
X134360Y252341D01*
X134392Y252367D01*
X134413Y252378D01*
X134435Y252401D01*
X134491Y252446D01*
X214406Y332361D01*
X214459Y332435D01*
X214519Y332504D01*
X214531Y332535D01*
X214550Y332561D01*
X214577Y332648D01*
X214611Y332733D01*
X214615Y332774D01*
X214622Y332796D01*
X214621Y332828D01*
X214629Y332899D01*
X214629Y334739D01*
X217457Y337567D01*
X221455Y337567D01*
X224283Y334739D01*
X224283Y330741D01*
X221455Y327913D01*
X219615Y327913D01*
X219525Y327899D01*
X219434Y327891D01*
X219405Y327879D01*
X219373Y327874D01*
X219292Y327831D01*
X219208Y327795D01*
X219176Y327769D01*
X219155Y327758D01*
X219133Y327735D01*
X219077Y327690D01*
X139162Y247775D01*
X139109Y247701D01*
X139049Y247632D01*
X139037Y247601D01*
X139018Y247575D01*
X138991Y247488D01*
X138957Y247403D01*
X138953Y247362D01*
X138946Y247340D01*
X138947Y247308D01*
X138939Y247237D01*
X138939Y245397D01*
X136111Y242569D01*
X132113Y242569D01*
G37*
%LPD*%
%LPC*%
G36*
X55075Y212371D02*
X55075Y212371D01*
X54033Y213413D01*
X54033Y231387D01*
X55075Y232429D01*
X73049Y232429D01*
X74091Y231387D01*
X74091Y213413D01*
X73049Y212371D01*
X55075Y212371D01*
G37*
%LPD*%
G36*
X286622Y106009D02*
X286622Y106009D01*
X286693Y106015D01*
X286741Y106035D01*
X286792Y106046D01*
X286853Y106083D01*
X286919Y106111D01*
X286975Y106156D01*
X287003Y106172D01*
X287018Y106190D01*
X287050Y106216D01*
X291455Y110621D01*
X299349Y110621D01*
X302992Y106978D01*
X303050Y106936D01*
X303102Y106887D01*
X303149Y106865D01*
X303191Y106834D01*
X303260Y106813D01*
X303325Y106783D01*
X303377Y106777D01*
X303427Y106762D01*
X303498Y106764D01*
X303569Y106756D01*
X303620Y106767D01*
X303672Y106768D01*
X303740Y106793D01*
X303810Y106808D01*
X303855Y106835D01*
X303903Y106853D01*
X303959Y106898D01*
X304021Y106934D01*
X304055Y106974D01*
X304095Y107007D01*
X304134Y107067D01*
X304181Y107121D01*
X304200Y107170D01*
X304228Y107213D01*
X304246Y107283D01*
X304273Y107349D01*
X304281Y107421D01*
X304289Y107452D01*
X304287Y107475D01*
X304291Y107516D01*
X304291Y133575D01*
X304277Y133665D01*
X304269Y133756D01*
X304257Y133786D01*
X304252Y133818D01*
X304209Y133899D01*
X304173Y133983D01*
X304147Y134015D01*
X304136Y134035D01*
X304113Y134058D01*
X304068Y134114D01*
X303560Y134622D01*
X303544Y134633D01*
X303532Y134649D01*
X303444Y134705D01*
X303361Y134765D01*
X303342Y134771D01*
X303325Y134782D01*
X303224Y134807D01*
X303125Y134838D01*
X303106Y134837D01*
X303086Y134842D01*
X302983Y134834D01*
X302880Y134831D01*
X302861Y134824D01*
X302841Y134823D01*
X302746Y134782D01*
X302649Y134747D01*
X302633Y134734D01*
X302615Y134726D01*
X302484Y134622D01*
X299687Y131825D01*
X297129Y131825D01*
X297039Y131811D01*
X296948Y131803D01*
X296918Y131791D01*
X296886Y131786D01*
X296806Y131743D01*
X296722Y131707D01*
X296690Y131681D01*
X296669Y131670D01*
X296647Y131647D01*
X296591Y131602D01*
X285974Y120985D01*
X285921Y120911D01*
X285861Y120842D01*
X285849Y120812D01*
X285830Y120786D01*
X285803Y120699D01*
X285769Y120614D01*
X285765Y120573D01*
X285758Y120551D01*
X285759Y120518D01*
X285751Y120447D01*
X285751Y106754D01*
X285762Y106683D01*
X285764Y106612D01*
X285782Y106563D01*
X285790Y106511D01*
X285824Y106448D01*
X285849Y106381D01*
X285881Y106340D01*
X285906Y106294D01*
X285958Y106245D01*
X286002Y106189D01*
X286046Y106161D01*
X286084Y106125D01*
X286149Y106094D01*
X286209Y106056D01*
X286260Y106043D01*
X286307Y106021D01*
X286378Y106013D01*
X286448Y105996D01*
X286500Y106000D01*
X286551Y105994D01*
X286622Y106009D01*
G37*
%LPC*%
G36*
X342255Y66163D02*
X342255Y66163D01*
X336673Y71745D01*
X336673Y79639D01*
X342255Y85221D01*
X350149Y85221D01*
X355731Y79639D01*
X355731Y71745D01*
X350149Y66163D01*
X342255Y66163D01*
G37*
%LPD*%
%LPC*%
G36*
X40585Y223923D02*
X40585Y223923D01*
X40585Y233084D01*
X41589Y232925D01*
X43204Y232400D01*
X44717Y231629D01*
X46092Y230631D01*
X47293Y229430D01*
X48291Y228055D01*
X49062Y226542D01*
X49587Y224927D01*
X49746Y223923D01*
X40585Y223923D01*
G37*
%LPD*%
%LPC*%
G36*
X28378Y223923D02*
X28378Y223923D01*
X28537Y224927D01*
X29062Y226542D01*
X29833Y228055D01*
X30831Y229430D01*
X32032Y230631D01*
X33407Y231629D01*
X34920Y232400D01*
X36535Y232925D01*
X37539Y233084D01*
X37539Y223923D01*
X28378Y223923D01*
G37*
%LPD*%
%LPC*%
G36*
X40585Y220877D02*
X40585Y220877D01*
X49746Y220877D01*
X49587Y219873D01*
X49062Y218258D01*
X48291Y216745D01*
X47293Y215370D01*
X46092Y214169D01*
X44717Y213171D01*
X43204Y212400D01*
X41589Y211875D01*
X40585Y211716D01*
X40585Y220877D01*
G37*
%LPD*%
%LPC*%
G36*
X36535Y211875D02*
X36535Y211875D01*
X34920Y212400D01*
X33407Y213171D01*
X32032Y214169D01*
X30831Y215370D01*
X29833Y216745D01*
X29062Y218258D01*
X28537Y219873D01*
X28378Y220877D01*
X37539Y220877D01*
X37539Y211716D01*
X36535Y211875D01*
G37*
%LPD*%
%LPC*%
G36*
X347725Y102615D02*
X347725Y102615D01*
X347725Y111383D01*
X350465Y111383D01*
X356493Y105355D01*
X356493Y102615D01*
X347725Y102615D01*
G37*
%LPD*%
%LPC*%
G36*
X335911Y102615D02*
X335911Y102615D01*
X335911Y105355D01*
X341939Y111383D01*
X344679Y111383D01*
X344679Y102615D01*
X335911Y102615D01*
G37*
%LPD*%
%LPC*%
G36*
X347725Y90801D02*
X347725Y90801D01*
X347725Y99569D01*
X356493Y99569D01*
X356493Y96829D01*
X350465Y90801D01*
X347725Y90801D01*
G37*
%LPD*%
%LPC*%
G36*
X341939Y90801D02*
X341939Y90801D01*
X335911Y96829D01*
X335911Y99569D01*
X344679Y99569D01*
X344679Y90801D01*
X341939Y90801D01*
G37*
%LPD*%
%LPC*%
G36*
X39061Y222399D02*
X39061Y222399D01*
X39061Y222401D01*
X39063Y222401D01*
X39063Y222399D01*
X39061Y222399D01*
G37*
%LPD*%
%LPC*%
G36*
X346201Y101091D02*
X346201Y101091D01*
X346201Y101093D01*
X346203Y101093D01*
X346203Y101091D01*
X346201Y101091D01*
G37*
%LPD*%
D10*
X295402Y75692D03*
X295402Y101092D03*
X320802Y75692D03*
X320802Y101092D03*
X346202Y75692D03*
X346202Y101092D03*
D11*
X64062Y222400D03*
D12*
X39062Y222400D03*
D13*
X175768Y45212D03*
X185928Y45212D03*
X196088Y45212D03*
X206248Y45212D03*
X157988Y311912D03*
X292608Y116332D03*
X290322Y352298D03*
X277622Y352298D03*
X264922Y352298D03*
X252222Y352298D03*
X239522Y352298D03*
X226822Y352298D03*
X15748Y294132D03*
X15748Y281432D03*
X15748Y268732D03*
X15748Y256032D03*
X15748Y243332D03*
X196088Y17272D03*
X180848Y17272D03*
X165608Y17272D03*
X348488Y205232D03*
X348488Y195072D03*
D14*
X307086Y89408D02*
X320802Y75692D01*
X307086Y89408D02*
X307086Y137922D01*
D13*
X307086Y137922D03*
X90170Y94488D03*
D15*
X90170Y105664D01*
X90170Y113030D01*
X113030Y135890D01*
D13*
X113030Y135890D03*
X45974Y108966D03*
D16*
X86106Y108966D01*
X90170Y113030D01*
X86868Y108966D02*
X86106Y108966D01*
X86868Y108966D02*
X90170Y105664D01*
D13*
X343916Y139954D03*
D16*
X338836Y145034D01*
X122174Y145034D02*
X113030Y135890D01*
X335280Y145034D02*
X338836Y145034D01*
X335280Y145034D02*
X268478Y145034D01*
X122174Y145034D01*
X338836Y145034D02*
X338836Y148590D01*
X338836Y149860D02*
X338836Y244602D01*
X338328Y245110D01*
D13*
X338328Y245110D03*
X268478Y145034D03*
D16*
X335280Y145034D02*
X338836Y148590D01*
X338836Y149860D01*
D13*
X297688Y136652D03*
D14*
X282956Y121920D01*
X282956Y88138D02*
X295402Y75692D01*
X282956Y88138D02*
X282956Y121920D01*
D13*
X134112Y247396D03*
D16*
X219456Y332740D01*
D13*
X219456Y332740D03*
M02*
